G04 #@! TF.GenerationSoftware,KiCad,Pcbnew,(6.0.0)*
G04 #@! TF.CreationDate,2023-01-06T10:55:49+07:00*
G04 #@! TF.ProjectId,yampad_v2,79616d70-6164-45f7-9632-2e6b69636164,2.0*
G04 #@! TF.SameCoordinates,Original*
G04 #@! TF.FileFunction,Paste,Bot*
G04 #@! TF.FilePolarity,Positive*
%FSLAX46Y46*%
G04 Gerber Fmt 4.6, Leading zero omitted, Abs format (unit mm)*
G04 Created by KiCad (PCBNEW (6.0.0)) date 2023-01-06 10:55:49*
%MOMM*%
%LPD*%
G01*
G04 APERTURE LIST*
G04 Aperture macros list*
%AMRoundRect*
0 Rectangle with rounded corners*
0 $1 Rounding radius*
0 $2 $3 $4 $5 $6 $7 $8 $9 X,Y pos of 4 corners*
0 Add a 4 corners polygon primitive as box body*
4,1,4,$2,$3,$4,$5,$6,$7,$8,$9,$2,$3,0*
0 Add four circle primitives for the rounded corners*
1,1,$1+$1,$2,$3*
1,1,$1+$1,$4,$5*
1,1,$1+$1,$6,$7*
1,1,$1+$1,$8,$9*
0 Add four rect primitives between the rounded corners*
20,1,$1+$1,$2,$3,$4,$5,0*
20,1,$1+$1,$4,$5,$6,$7,0*
20,1,$1+$1,$6,$7,$8,$9,0*
20,1,$1+$1,$8,$9,$2,$3,0*%
G04 Aperture macros list end*
%ADD10R,3.000000X2.500000*%
%ADD11R,2.500000X3.000000*%
%ADD12R,2.550000X2.500000*%
%ADD13R,1.500000X1.000000*%
%ADD14R,0.900000X1.200000*%
%ADD15RoundRect,0.250000X-0.450000X0.325000X-0.450000X-0.325000X0.450000X-0.325000X0.450000X0.325000X0*%
%ADD16RoundRect,0.250000X-0.325000X-0.450000X0.325000X-0.450000X0.325000X0.450000X-0.325000X0.450000X0*%
%ADD17RoundRect,0.250000X0.450000X-0.325000X0.450000X0.325000X-0.450000X0.325000X-0.450000X-0.325000X0*%
%ADD18R,1.200000X0.900000*%
%ADD19R,1.000000X1.400000*%
G04 APERTURE END LIST*
D10*
X100580000Y-141224000D03*
X86180000Y-143764000D03*
X119630000Y-141224000D03*
X105230000Y-143764000D03*
D11*
X156210000Y-143379000D03*
X153670000Y-128979000D03*
D10*
X119630000Y-65024000D03*
X105230000Y-67564000D03*
X157730000Y-65024000D03*
X143330000Y-67564000D03*
X100580000Y-84074000D03*
X86180000Y-86614000D03*
X119630000Y-84074000D03*
X105230000Y-86614000D03*
X138680000Y-84074000D03*
X124280000Y-86614000D03*
X100580000Y-103124000D03*
X86180000Y-105664000D03*
X119630000Y-103124000D03*
X105230000Y-105664000D03*
X138680000Y-103124000D03*
X124280000Y-105664000D03*
X100580000Y-122174000D03*
X86180000Y-124714000D03*
X119630000Y-122174000D03*
X105230000Y-124714000D03*
X138680000Y-122174000D03*
X124280000Y-124714000D03*
X138680000Y-141224000D03*
X124280000Y-143764000D03*
X100580000Y-65024000D03*
X86180000Y-67564000D03*
X138680000Y-65024000D03*
X124280000Y-67564000D03*
D11*
X156210000Y-105279000D03*
X153670000Y-90879000D03*
D12*
X68595000Y-107650000D03*
X81522000Y-105110000D03*
D13*
X105955000Y-116129000D03*
X105955000Y-119329000D03*
X101055000Y-119329000D03*
X101055000Y-116129000D03*
X139155000Y-119329000D03*
X139155000Y-116129000D03*
X144055000Y-116129000D03*
X144055000Y-119329000D03*
D14*
X114553000Y-74676000D03*
X111253000Y-74676000D03*
X114553000Y-112649000D03*
X111253000Y-112649000D03*
X95503000Y-112649000D03*
X92203000Y-112649000D03*
X133603000Y-112649000D03*
X130303000Y-112649000D03*
D15*
X133750000Y-135225000D03*
X133750000Y-137275000D03*
D14*
X114553000Y-131699000D03*
X111253000Y-131699000D03*
D16*
X121825000Y-131700000D03*
X123875000Y-131700000D03*
D14*
X95503000Y-131699000D03*
X92203000Y-131699000D03*
X133603000Y-150749000D03*
X130303000Y-150749000D03*
D17*
X111250000Y-137675000D03*
X111250000Y-135625000D03*
D14*
X114553000Y-150749000D03*
X111253000Y-150749000D03*
D13*
X125005000Y-135179000D03*
X125005000Y-138379000D03*
X120105000Y-138379000D03*
X120105000Y-135179000D03*
D14*
X133603000Y-131699000D03*
X130303000Y-131699000D03*
D13*
X105955000Y-78029000D03*
X105955000Y-81229000D03*
X101055000Y-81229000D03*
X101055000Y-78029000D03*
X105955000Y-135179000D03*
X105955000Y-138379000D03*
X101055000Y-138379000D03*
X101055000Y-135179000D03*
D14*
X95503000Y-74676000D03*
X92203000Y-74676000D03*
D13*
X139155000Y-81229000D03*
X139155000Y-78029000D03*
X144055000Y-78029000D03*
X144055000Y-81229000D03*
D14*
X95503000Y-150749000D03*
X92203000Y-150749000D03*
D17*
X112300000Y-80675000D03*
X112300000Y-78625000D03*
X116200000Y-99725000D03*
X116200000Y-97675000D03*
X113950000Y-116525000D03*
X113950000Y-118575000D03*
D15*
X132100000Y-116725000D03*
X132100000Y-118775000D03*
X132800000Y-97675000D03*
X132800000Y-99725000D03*
X134600000Y-78525000D03*
X134600000Y-80575000D03*
D14*
X133603000Y-74676000D03*
X130303000Y-74676000D03*
X152653000Y-74676000D03*
X149353000Y-74676000D03*
X114553000Y-93599000D03*
X111253000Y-93599000D03*
X133603000Y-93599000D03*
X130303000Y-93599000D03*
D18*
X140650000Y-93600000D03*
X140650000Y-90300000D03*
X141732000Y-144906000D03*
X141732000Y-141606000D03*
D13*
X105955000Y-97079000D03*
X105955000Y-100279000D03*
X101055000Y-100279000D03*
X101055000Y-97079000D03*
X139155000Y-138379000D03*
X139155000Y-135179000D03*
X144055000Y-135179000D03*
X144055000Y-138379000D03*
X139155000Y-100279000D03*
X139155000Y-97079000D03*
X144055000Y-97079000D03*
X144055000Y-100279000D03*
D14*
X95503000Y-93599000D03*
X92203000Y-93599000D03*
D19*
X83630000Y-110775000D03*
X83630000Y-114325000D03*
M02*
