G04 #@! TF.GenerationSoftware,KiCad,Pcbnew,(6.0.0)*
G04 #@! TF.CreationDate,2023-01-06T10:55:49+07:00*
G04 #@! TF.ProjectId,yampad_v2,79616d70-6164-45f7-9632-2e6b69636164,2.0*
G04 #@! TF.SameCoordinates,Original*
G04 #@! TF.FileFunction,Soldermask,Top*
G04 #@! TF.FilePolarity,Negative*
%FSLAX46Y46*%
G04 Gerber Fmt 4.6, Leading zero omitted, Abs format (unit mm)*
G04 Created by KiCad (PCBNEW (6.0.0)) date 2023-01-06 10:55:49*
%MOMM*%
%LPD*%
G01*
G04 APERTURE LIST*
G04 Aperture macros list*
%AMRoundRect*
0 Rectangle with rounded corners*
0 $1 Rounding radius*
0 $2 $3 $4 $5 $6 $7 $8 $9 X,Y pos of 4 corners*
0 Add a 4 corners polygon primitive as box body*
4,1,4,$2,$3,$4,$5,$6,$7,$8,$9,$2,$3,0*
0 Add four circle primitives for the rounded corners*
1,1,$1+$1,$2,$3*
1,1,$1+$1,$4,$5*
1,1,$1+$1,$6,$7*
1,1,$1+$1,$8,$9*
0 Add four rect primitives between the rounded corners*
20,1,$1+$1,$2,$3,$4,$5,0*
20,1,$1+$1,$4,$5,$6,$7,0*
20,1,$1+$1,$6,$7,$8,$9,0*
20,1,$1+$1,$8,$9,$2,$3,0*%
G04 Aperture macros list end*
%ADD10RoundRect,0.051000X0.850000X-0.850000X0.850000X0.850000X-0.850000X0.850000X-0.850000X-0.850000X0*%
%ADD11O,1.802000X1.802000*%
%ADD12C,1.803800*%
%ADD13C,3.102000*%
%ADD14C,4.089800*%
%ADD15C,3.150000*%
%ADD16O,1.602000X2.902000*%
%ADD17C,1.852000*%
%ADD18RoundRect,0.051000X-1.000000X1.000000X-1.000000X-1.000000X1.000000X-1.000000X1.000000X1.000000X0*%
%ADD19C,2.102000*%
%ADD20C,0.702000*%
%ADD21RoundRect,0.051000X-0.876300X0.876300X-0.876300X-0.876300X0.876300X-0.876300X0.876300X0.876300X0*%
%ADD22C,1.854600*%
G04 APERTURE END LIST*
D10*
X71374000Y-97663000D03*
D11*
X73914000Y-97663000D03*
X76454000Y-97663000D03*
X78994000Y-97663000D03*
D12*
X99060000Y-146304000D03*
D13*
X90170000Y-143764000D03*
D12*
X88900000Y-146304000D03*
D13*
X96520000Y-141224000D03*
D14*
X93980000Y-146304000D03*
X113030000Y-146304000D03*
D12*
X107950000Y-146304000D03*
X118110000Y-146304000D03*
D13*
X109220000Y-143764000D03*
X115570000Y-141224000D03*
D15*
X158115000Y-124841000D03*
D12*
X151130000Y-131699000D03*
D13*
X153670000Y-132969000D03*
D14*
X151130000Y-136779000D03*
X142875000Y-148717000D03*
D12*
X151130000Y-141859000D03*
D13*
X156210000Y-139319000D03*
D14*
X142875000Y-124841000D03*
D15*
X158115000Y-148717000D03*
D12*
X118110000Y-70104000D03*
X107950000Y-70104000D03*
D13*
X115570000Y-65024000D03*
X109220000Y-67564000D03*
D14*
X113030000Y-70104000D03*
D13*
X153670000Y-65024000D03*
X147320000Y-67564000D03*
D14*
X151130000Y-70104000D03*
D12*
X156210000Y-70104000D03*
X146050000Y-70104000D03*
D14*
X93980000Y-89154000D03*
D13*
X96520000Y-84074000D03*
D12*
X88900000Y-89154000D03*
X99060000Y-89154000D03*
D13*
X90170000Y-86614000D03*
X109220000Y-86614000D03*
D14*
X113030000Y-89154000D03*
D12*
X118110000Y-89154000D03*
D13*
X115570000Y-84074000D03*
D12*
X107950000Y-89154000D03*
D14*
X132080000Y-89154000D03*
D13*
X134620000Y-84074000D03*
D12*
X137160000Y-89154000D03*
X127000000Y-89154000D03*
D13*
X128270000Y-86614000D03*
X90170000Y-105664000D03*
D12*
X99060000Y-108204000D03*
D14*
X93980000Y-108204000D03*
D12*
X88900000Y-108204000D03*
D13*
X96520000Y-103124000D03*
D14*
X113030000Y-108204000D03*
D13*
X115570000Y-103124000D03*
X109220000Y-105664000D03*
D12*
X118110000Y-108204000D03*
X107950000Y-108204000D03*
D13*
X134620000Y-103124000D03*
D14*
X132080000Y-108204000D03*
D12*
X127000000Y-108204000D03*
D13*
X128270000Y-105664000D03*
D12*
X137160000Y-108204000D03*
D13*
X90170000Y-124714000D03*
D12*
X88900000Y-127254000D03*
D13*
X96520000Y-122174000D03*
D12*
X99060000Y-127254000D03*
D14*
X93980000Y-127254000D03*
D13*
X115570000Y-122174000D03*
D12*
X107950000Y-127254000D03*
X118110000Y-127254000D03*
D13*
X109220000Y-124714000D03*
D14*
X113030000Y-127254000D03*
D12*
X127000000Y-127254000D03*
X137160000Y-127254000D03*
D13*
X128270000Y-124714000D03*
X134620000Y-122174000D03*
D14*
X132080000Y-127254000D03*
D13*
X134620000Y-141224000D03*
D12*
X127000000Y-146304000D03*
D13*
X128270000Y-143764000D03*
D12*
X137160000Y-146304000D03*
D14*
X132080000Y-146304000D03*
D12*
X99060000Y-70104000D03*
X88900000Y-70104000D03*
D14*
X93980000Y-70104000D03*
D13*
X96520000Y-65024000D03*
X90170000Y-67564000D03*
D14*
X132080000Y-70104000D03*
D13*
X128270000Y-67564000D03*
X134620000Y-65024000D03*
D12*
X127000000Y-70104000D03*
X137160000Y-70104000D03*
D14*
X142875000Y-86741000D03*
D15*
X158115000Y-86741000D03*
D14*
X151130000Y-98679000D03*
D12*
X151130000Y-93599000D03*
D15*
X158115000Y-110617000D03*
D13*
X156210000Y-101219000D03*
X153670000Y-94869000D03*
D12*
X151130000Y-103759000D03*
D14*
X142875000Y-110617000D03*
X75680000Y-110190000D03*
D13*
X78220000Y-105110000D03*
D16*
X70080000Y-110190000D03*
D17*
X70600000Y-110190000D03*
X80760000Y-110190000D03*
D13*
X71870000Y-107650000D03*
D16*
X81280000Y-110190000D03*
D18*
X78180000Y-102690000D03*
D19*
X73180000Y-102690000D03*
X75680000Y-102690000D03*
D20*
X68595000Y-107650000D03*
D19*
X73180000Y-117190000D03*
D20*
X81522000Y-105110000D03*
D19*
X78180000Y-117190000D03*
D21*
X82804000Y-64643000D03*
D22*
X82804000Y-67183000D03*
X82804000Y-69723000D03*
X82804000Y-72263000D03*
X82804000Y-74803000D03*
X82804000Y-77343000D03*
X82804000Y-79883000D03*
X82804000Y-82423000D03*
X82804000Y-84963000D03*
X82804000Y-87503000D03*
X82804000Y-90043000D03*
X82804000Y-92583000D03*
X67564000Y-92583000D03*
X67564000Y-90043000D03*
X67564000Y-87503000D03*
X67564000Y-84963000D03*
X67564000Y-82423000D03*
X67564000Y-79883000D03*
X67564000Y-77343000D03*
X67564000Y-74803000D03*
X67564000Y-72263000D03*
X67564000Y-69723000D03*
X67564000Y-67183000D03*
X67564000Y-64643000D03*
D19*
X77597000Y-67033000D03*
X77597000Y-73533000D03*
X73097000Y-67033000D03*
X73097000Y-73533000D03*
G36*
X79212841Y-103729418D02*
G01*
X79212508Y-103730660D01*
X79202576Y-103745523D01*
X79202448Y-103745695D01*
X79178696Y-103774115D01*
X79170063Y-103842830D01*
X79200063Y-103905539D01*
X79207148Y-103912788D01*
X79256512Y-103959225D01*
X79257089Y-103961140D01*
X79255718Y-103962597D01*
X79253843Y-103962203D01*
X79130473Y-103856836D01*
X78944228Y-103742705D01*
X78943274Y-103740948D01*
X78944319Y-103739242D01*
X78945273Y-103739000D01*
X79179801Y-103739000D01*
X79198738Y-103735233D01*
X79209734Y-103727886D01*
X79211730Y-103727755D01*
X79212841Y-103729418D01*
G37*
G36*
X77180199Y-103739000D02*
G01*
X77494727Y-103739000D01*
X77496459Y-103740000D01*
X77496459Y-103742000D01*
X77495772Y-103742705D01*
X77309527Y-103856836D01*
X77198259Y-103951867D01*
X77196292Y-103952231D01*
X77194993Y-103950710D01*
X77195628Y-103948854D01*
X77199331Y-103945549D01*
X77236072Y-103886490D01*
X77235056Y-103817238D01*
X77196742Y-103759501D01*
X77180430Y-103751666D01*
X77179302Y-103750014D01*
X77179482Y-103749329D01*
X77165528Y-103740005D01*
X77164643Y-103738211D01*
X77165754Y-103736548D01*
X77167029Y-103736380D01*
X77180199Y-103739000D01*
G37*
M02*
