M48
; DRILL file {KiCad (6.0.0)} date Fri Jan  6 10:55:54 2023
; FORMAT={-:-/ absolute / metric / decimal}
; #@! TF.CreationDate,2023-01-06T10:55:54+07:00
; #@! TF.GenerationSoftware,Kicad,Pcbnew,(6.0.0)
; #@! TF.FileFunction,Plated,1,2,PTH
FMAT,2
METRIC
; #@! TA.AperFunction,Plated,PTH,ComponentDrill
T1C0.300
; #@! TA.AperFunction,Plated,PTH,ViaDrill
T2C0.400
; #@! TA.AperFunction,Plated,PTH,ComponentDrill
T3C1.000
; #@! TA.AperFunction,Plated,PTH,ComponentDrill
T4C1.092
; #@! TA.AperFunction,Plated,PTH,ComponentDrill
T5C1.100
%
G90
G05
T1
X68.595Y-107.65
X81.522Y-105.11
T2
X70.993Y-78.613
X77.978Y-76.708
X79.67Y-100.924
X81.06Y-80.18
X84.06Y-96.36
X84.98Y-102.235
X84.98Y-116.713
X85.87Y-78.16
X86.32Y-95.55
X87.06Y-79.49
X87.22Y-94.85
X87.884Y-98.679
X87.973Y-80.48
X89.408Y-77.978
X90.424Y-99.695
X93.599Y-117.221
X93.853Y-150.622
X95.758Y-99.695
X95.885Y-117.221
X97.42Y-92.11
X98.044Y-77.978
X98.679Y-81.915
X100.36Y-83.929
X100.36Y-102.979
X100.58Y-65.024
X100.58Y-122.174
X100.58Y-141.224
X100.965Y-95.631
X100.965Y-114.808
X100.965Y-133.731
X103.505Y-81.788
X103.505Y-100.838
X103.505Y-120.396
X106.045Y-95.631
X106.045Y-114.808
X106.045Y-133.731
X107.315Y-92.329
X109.855Y-98.679
X110.363Y-79.629
X111.9Y-119.8
X118.237Y-91.948
X119.63Y-65.024
X119.63Y-84.074
X119.63Y-103.124
X119.63Y-122.174
X119.63Y-141.224
X125.857Y-92.202
X135.128Y-98.679
X135.255Y-117.729
X135.382Y-86.614
X136.652Y-81.915
X136.652Y-101.092
X136.652Y-120.269
X137.414Y-134.239
X138.68Y-65.024
X138.68Y-141.224
X139.061Y-84.186
X139.061Y-103.124
X139.131Y-121.723
X141.605Y-96.012
X141.605Y-114.935
X141.605Y-134.366
X144.018Y-101.981
X144.018Y-121.031
X144.145Y-82.677
X154.71Y-118.316
X156.21Y-105.279
X156.21Y-143.379
X157.73Y-65.024
T3
X71.374Y-97.663
X73.18Y-102.69
X73.18Y-117.19
X73.914Y-97.663
X75.68Y-102.69
X76.454Y-97.663
X78.18Y-102.69
X78.18Y-117.19
X78.994Y-97.663
T4
X67.564Y-64.643
X67.564Y-67.183
X67.564Y-69.723
X67.564Y-72.263
X67.564Y-74.803
X67.564Y-77.343
X67.564Y-79.883
X67.564Y-82.423
X67.564Y-84.963
X67.564Y-87.503
X67.564Y-90.043
X67.564Y-92.583
X82.804Y-64.643
X82.804Y-67.183
X82.804Y-69.723
X82.804Y-72.263
X82.804Y-74.803
X82.804Y-77.343
X82.804Y-79.883
X82.804Y-82.423
X82.804Y-84.963
X82.804Y-87.503
X82.804Y-90.043
X82.804Y-92.583
T5
X73.097Y-67.033
X73.097Y-73.533
X77.597Y-67.033
X77.597Y-73.533
T0
M30
