%FSLAX45Y45*%
G04 Gerber Fmt 4.5, Leading zero omitted, Abs format (unit mm)*
G04 Created by KiCad (PCBNEW (6.0.0)) date 2023-01-06 10:55:56*
%MOMM*%
%LPD*%
G01*
G04 APERTURE LIST*
%TA.AperFunction,Profile*%
%ADD10C,0.150000*%
%TD*%
%ADD11C,0.200000*%
%ADD12C,0.150000*%
%ADD13C,0.170180*%
%ADD14C,0.175000*%
%ADD15C,0.300000*%
%ADD16C,0.304800*%
%ADD17C,0.398780*%
G04 APERTURE END LIST*
D10*
X15900400Y-15570200D02*
G75*
G03*
X16052800Y-15417800I0J152400D01*
G01*
X15875000Y-6070600D02*
X6756400Y-6070600D01*
X8407400Y-15392400D02*
G75*
G03*
X8585200Y-15570200I177800J0D01*
G01*
X6604000Y-11895822D02*
X6604000Y-6223000D01*
X6756400Y-6070600D02*
G75*
G03*
X6604000Y-6223000I0J-152400D01*
G01*
X6604000Y-11895822D02*
G75*
G03*
X6731000Y-12022822I127000J0D01*
G01*
X8407400Y-15392400D02*
X8412000Y-12132000D01*
X16052800Y-6248400D02*
G75*
G03*
X15875000Y-6070600I-177800J0D01*
G01*
X8585200Y-15570200D02*
X15900400Y-15570200D01*
X8412000Y-12132000D02*
G75*
G03*
X8307000Y-12024000I-96555J11169D01*
G01*
X16052800Y-15417800D02*
X16052800Y-6248400D01*
X8307000Y-12024000D02*
X6731000Y-12022822D01*
D11*
D12*
X6933000Y-10944000D02*
X7083000Y-11094000D01*
X7083000Y-10944000D02*
X6933000Y-11094000D01*
D11*
X6943000Y-10954000D02*
X6943000Y-11084000D01*
X7073000Y-10954000D02*
X7073000Y-11084000D01*
X6943000Y-11084000D02*
G75*
G03*
X7073000Y-11084000I65000J0D01*
G01*
X7073000Y-10954000D02*
G75*
G03*
X6943000Y-10954000I-65000J0D01*
G01*
D12*
X8053000Y-10944000D02*
X8203000Y-11094000D01*
X8203000Y-10944000D02*
X8053000Y-11094000D01*
D11*
X8063000Y-10954000D02*
X8063000Y-11084000D01*
X8193000Y-10954000D02*
X8193000Y-11084000D01*
X8063000Y-11084000D02*
G75*
G03*
X8193000Y-11084000I65000J0D01*
G01*
X8193000Y-10954000D02*
G75*
G03*
X8063000Y-10954000I-65000J0D01*
G01*
D13*
X8975090Y-7010400D02*
G75*
G03*
X8975090Y-7010400I-85090J0D01*
G01*
X8975090Y-8915400D02*
G75*
G03*
X8975090Y-8915400I-85090J0D01*
G01*
X8975090Y-10820400D02*
G75*
G03*
X8975090Y-10820400I-85090J0D01*
G01*
X8975090Y-12725400D02*
G75*
G03*
X8975090Y-12725400I-85090J0D01*
G01*
X8975090Y-14630400D02*
G75*
G03*
X8975090Y-14630400I-85090J0D01*
G01*
X9991090Y-7010400D02*
G75*
G03*
X9991090Y-7010400I-85090J0D01*
G01*
X9991090Y-8915400D02*
G75*
G03*
X9991090Y-8915400I-85090J0D01*
G01*
X9991090Y-10820400D02*
G75*
G03*
X9991090Y-10820400I-85090J0D01*
G01*
X9991090Y-12725400D02*
G75*
G03*
X9991090Y-12725400I-85090J0D01*
G01*
X9991090Y-14630400D02*
G75*
G03*
X9991090Y-14630400I-85090J0D01*
G01*
X10880090Y-7010400D02*
G75*
G03*
X10880090Y-7010400I-85090J0D01*
G01*
X10880090Y-8915400D02*
G75*
G03*
X10880090Y-8915400I-85090J0D01*
G01*
X10880090Y-10820400D02*
G75*
G03*
X10880090Y-10820400I-85090J0D01*
G01*
X10880090Y-12725400D02*
G75*
G03*
X10880090Y-12725400I-85090J0D01*
G01*
X10880090Y-14630400D02*
G75*
G03*
X10880090Y-14630400I-85090J0D01*
G01*
X11896090Y-7010400D02*
G75*
G03*
X11896090Y-7010400I-85090J0D01*
G01*
X11896090Y-8915400D02*
G75*
G03*
X11896090Y-8915400I-85090J0D01*
G01*
X11896090Y-10820400D02*
G75*
G03*
X11896090Y-10820400I-85090J0D01*
G01*
X11896090Y-12725400D02*
G75*
G03*
X11896090Y-12725400I-85090J0D01*
G01*
X11896090Y-14630400D02*
G75*
G03*
X11896090Y-14630400I-85090J0D01*
G01*
X12785090Y-7010400D02*
G75*
G03*
X12785090Y-7010400I-85090J0D01*
G01*
X12785090Y-8915400D02*
G75*
G03*
X12785090Y-8915400I-85090J0D01*
G01*
X12785090Y-10820400D02*
G75*
G03*
X12785090Y-10820400I-85090J0D01*
G01*
X12785090Y-12725400D02*
G75*
G03*
X12785090Y-12725400I-85090J0D01*
G01*
X12785090Y-14630400D02*
G75*
G03*
X12785090Y-14630400I-85090J0D01*
G01*
X13801090Y-7010400D02*
G75*
G03*
X13801090Y-7010400I-85090J0D01*
G01*
X13801090Y-8915400D02*
G75*
G03*
X13801090Y-8915400I-85090J0D01*
G01*
X13801090Y-10820400D02*
G75*
G03*
X13801090Y-10820400I-85090J0D01*
G01*
X13801090Y-12725400D02*
G75*
G03*
X13801090Y-12725400I-85090J0D01*
G01*
X13801090Y-14630400D02*
G75*
G03*
X13801090Y-14630400I-85090J0D01*
G01*
X14690090Y-7010400D02*
G75*
G03*
X14690090Y-7010400I-85090J0D01*
G01*
X15198090Y-9359900D02*
G75*
G03*
X15198090Y-9359900I-85090J0D01*
G01*
X15198090Y-10375900D02*
G75*
G03*
X15198090Y-10375900I-85090J0D01*
G01*
X15198090Y-13169900D02*
G75*
G03*
X15198090Y-13169900I-85090J0D01*
G01*
X15198090Y-14185900D02*
G75*
G03*
X15198090Y-14185900I-85090J0D01*
G01*
X15706090Y-7010400D02*
G75*
G03*
X15706090Y-7010400I-85090J0D01*
G01*
D14*
X7060000Y-10931500D02*
X7060000Y-11106500D01*
X6972500Y-11019000D02*
X7147500Y-11019000D01*
X8076000Y-10931500D02*
X8076000Y-11106500D01*
X7988500Y-11019000D02*
X8163500Y-11019000D01*
D15*
X7293067Y-10871067D02*
X7293067Y-10658933D01*
X7080933Y-10658933D01*
X7080933Y-10871067D01*
X7293067Y-10871067D01*
X7928067Y-10617067D02*
X7928067Y-10404933D01*
X7715933Y-10404933D01*
X7715933Y-10617067D01*
X7928067Y-10617067D01*
X9123067Y-6862467D02*
X9123067Y-6650333D01*
X8910933Y-6650333D01*
X8910933Y-6862467D01*
X9123067Y-6862467D01*
X9123067Y-8767467D02*
X9123067Y-8555333D01*
X8910933Y-8555333D01*
X8910933Y-8767467D01*
X9123067Y-8767467D01*
X9123067Y-10672467D02*
X9123067Y-10460333D01*
X8910933Y-10460333D01*
X8910933Y-10672467D01*
X9123067Y-10672467D01*
X9123067Y-12577467D02*
X9123067Y-12365333D01*
X8910933Y-12365333D01*
X8910933Y-12577467D01*
X9123067Y-12577467D01*
X9123067Y-14482467D02*
X9123067Y-14270333D01*
X8910933Y-14270333D01*
X8910933Y-14482467D01*
X9123067Y-14482467D01*
X9758067Y-6608467D02*
X9758067Y-6396333D01*
X9545933Y-6396333D01*
X9545933Y-6608467D01*
X9758067Y-6608467D01*
X9758067Y-8513467D02*
X9758067Y-8301333D01*
X9545933Y-8301333D01*
X9545933Y-8513467D01*
X9758067Y-8513467D01*
X9758067Y-10418467D02*
X9758067Y-10206333D01*
X9545933Y-10206333D01*
X9545933Y-10418467D01*
X9758067Y-10418467D01*
X9758067Y-12323467D02*
X9758067Y-12111333D01*
X9545933Y-12111333D01*
X9545933Y-12323467D01*
X9758067Y-12323467D01*
X9758067Y-14228467D02*
X9758067Y-14016333D01*
X9545933Y-14016333D01*
X9545933Y-14228467D01*
X9758067Y-14228467D01*
X11028067Y-6862467D02*
X11028067Y-6650333D01*
X10815933Y-6650333D01*
X10815933Y-6862467D01*
X11028067Y-6862467D01*
X11028067Y-8767467D02*
X11028067Y-8555333D01*
X10815933Y-8555333D01*
X10815933Y-8767467D01*
X11028067Y-8767467D01*
X11028067Y-10672467D02*
X11028067Y-10460333D01*
X10815933Y-10460333D01*
X10815933Y-10672467D01*
X11028067Y-10672467D01*
X11028067Y-12577467D02*
X11028067Y-12365333D01*
X10815933Y-12365333D01*
X10815933Y-12577467D01*
X11028067Y-12577467D01*
X11028067Y-14482467D02*
X11028067Y-14270333D01*
X10815933Y-14270333D01*
X10815933Y-14482467D01*
X11028067Y-14482467D01*
X11663067Y-6608467D02*
X11663067Y-6396333D01*
X11450933Y-6396333D01*
X11450933Y-6608467D01*
X11663067Y-6608467D01*
X11663067Y-8513467D02*
X11663067Y-8301333D01*
X11450933Y-8301333D01*
X11450933Y-8513467D01*
X11663067Y-8513467D01*
X11663067Y-10418467D02*
X11663067Y-10206333D01*
X11450933Y-10206333D01*
X11450933Y-10418467D01*
X11663067Y-10418467D01*
X11663067Y-12323467D02*
X11663067Y-12111333D01*
X11450933Y-12111333D01*
X11450933Y-12323467D01*
X11663067Y-12323467D01*
X11663067Y-14228467D02*
X11663067Y-14016333D01*
X11450933Y-14016333D01*
X11450933Y-14228467D01*
X11663067Y-14228467D01*
X12933067Y-6862467D02*
X12933067Y-6650333D01*
X12720933Y-6650333D01*
X12720933Y-6862467D01*
X12933067Y-6862467D01*
X12933067Y-8767467D02*
X12933067Y-8555333D01*
X12720933Y-8555333D01*
X12720933Y-8767467D01*
X12933067Y-8767467D01*
X12933067Y-10672467D02*
X12933067Y-10460333D01*
X12720933Y-10460333D01*
X12720933Y-10672467D01*
X12933067Y-10672467D01*
X12933067Y-12577467D02*
X12933067Y-12365333D01*
X12720933Y-12365333D01*
X12720933Y-12577467D01*
X12933067Y-12577467D01*
X12933067Y-14482467D02*
X12933067Y-14270333D01*
X12720933Y-14270333D01*
X12720933Y-14482467D01*
X12933067Y-14482467D01*
X13568067Y-6608467D02*
X13568067Y-6396333D01*
X13355933Y-6396333D01*
X13355933Y-6608467D01*
X13568067Y-6608467D01*
X13568067Y-8513467D02*
X13568067Y-8301333D01*
X13355933Y-8301333D01*
X13355933Y-8513467D01*
X13568067Y-8513467D01*
X13568067Y-10418467D02*
X13568067Y-10206333D01*
X13355933Y-10206333D01*
X13355933Y-10418467D01*
X13568067Y-10418467D01*
X13568067Y-12323467D02*
X13568067Y-12111333D01*
X13355933Y-12111333D01*
X13355933Y-12323467D01*
X13568067Y-12323467D01*
X13568067Y-14228467D02*
X13568067Y-14016333D01*
X13355933Y-14016333D01*
X13355933Y-14228467D01*
X13568067Y-14228467D01*
X14838067Y-6862467D02*
X14838067Y-6650333D01*
X14625933Y-6650333D01*
X14625933Y-6862467D01*
X14838067Y-6862467D01*
X15473067Y-6608467D02*
X15473067Y-6396333D01*
X15260933Y-6396333D01*
X15260933Y-6608467D01*
X15473067Y-6608467D01*
X15473067Y-9592967D02*
X15473067Y-9380833D01*
X15260933Y-9380833D01*
X15260933Y-9592967D01*
X15473067Y-9592967D01*
X15473067Y-13402967D02*
X15473067Y-13190833D01*
X15260933Y-13190833D01*
X15260933Y-13402967D01*
X15473067Y-13402967D01*
X15727067Y-10227967D02*
X15727067Y-10015833D01*
X15514933Y-10015833D01*
X15514933Y-10227967D01*
X15727067Y-10227967D01*
X15727067Y-14037967D02*
X15727067Y-13825833D01*
X15514933Y-13825833D01*
X15514933Y-14037967D01*
X15727067Y-14037967D01*
D16*
X15811500Y-8826500D02*
X15963900Y-8674100D01*
X15811500Y-8521700D01*
X15659100Y-8674100D01*
X15811500Y-8826500D01*
X15811500Y-11214100D02*
X15963900Y-11061700D01*
X15811500Y-10909300D01*
X15659100Y-11061700D01*
X15811500Y-11214100D01*
X15811500Y-12636500D02*
X15963900Y-12484100D01*
X15811500Y-12331700D01*
X15659100Y-12484100D01*
X15811500Y-12636500D01*
X15811500Y-15024100D02*
X15963900Y-14871700D01*
X15811500Y-14719300D01*
X15659100Y-14871700D01*
X15811500Y-15024100D01*
D17*
X7368610Y-10819610D02*
X7767390Y-11218390D01*
X7767390Y-10819610D02*
X7368610Y-11218390D01*
X7767390Y-11019000D02*
G75*
G03*
X7767390Y-11019000I-199390J0D01*
G01*
X9198610Y-6811010D02*
X9597390Y-7209790D01*
X9597390Y-6811010D02*
X9198610Y-7209790D01*
X9597390Y-7010400D02*
G75*
G03*
X9597390Y-7010400I-199390J0D01*
G01*
X9198610Y-8716010D02*
X9597390Y-9114790D01*
X9597390Y-8716010D02*
X9198610Y-9114790D01*
X9597390Y-8915400D02*
G75*
G03*
X9597390Y-8915400I-199390J0D01*
G01*
X9198610Y-10621010D02*
X9597390Y-11019790D01*
X9597390Y-10621010D02*
X9198610Y-11019790D01*
X9597390Y-10820400D02*
G75*
G03*
X9597390Y-10820400I-199390J0D01*
G01*
X9198610Y-12526010D02*
X9597390Y-12924790D01*
X9597390Y-12526010D02*
X9198610Y-12924790D01*
X9597390Y-12725400D02*
G75*
G03*
X9597390Y-12725400I-199390J0D01*
G01*
X9198610Y-14431010D02*
X9597390Y-14829790D01*
X9597390Y-14431010D02*
X9198610Y-14829790D01*
X9597390Y-14630400D02*
G75*
G03*
X9597390Y-14630400I-199390J0D01*
G01*
X11103610Y-6811010D02*
X11502390Y-7209790D01*
X11502390Y-6811010D02*
X11103610Y-7209790D01*
X11502390Y-7010400D02*
G75*
G03*
X11502390Y-7010400I-199390J0D01*
G01*
X11103610Y-8716010D02*
X11502390Y-9114790D01*
X11502390Y-8716010D02*
X11103610Y-9114790D01*
X11502390Y-8915400D02*
G75*
G03*
X11502390Y-8915400I-199390J0D01*
G01*
X11103610Y-10621010D02*
X11502390Y-11019790D01*
X11502390Y-10621010D02*
X11103610Y-11019790D01*
X11502390Y-10820400D02*
G75*
G03*
X11502390Y-10820400I-199390J0D01*
G01*
X11103610Y-12526010D02*
X11502390Y-12924790D01*
X11502390Y-12526010D02*
X11103610Y-12924790D01*
X11502390Y-12725400D02*
G75*
G03*
X11502390Y-12725400I-199390J0D01*
G01*
X11103610Y-14431010D02*
X11502390Y-14829790D01*
X11502390Y-14431010D02*
X11103610Y-14829790D01*
X11502390Y-14630400D02*
G75*
G03*
X11502390Y-14630400I-199390J0D01*
G01*
X13008610Y-6811010D02*
X13407390Y-7209790D01*
X13407390Y-6811010D02*
X13008610Y-7209790D01*
X13407390Y-7010400D02*
G75*
G03*
X13407390Y-7010400I-199390J0D01*
G01*
X13008610Y-8716010D02*
X13407390Y-9114790D01*
X13407390Y-8716010D02*
X13008610Y-9114790D01*
X13407390Y-8915400D02*
G75*
G03*
X13407390Y-8915400I-199390J0D01*
G01*
X13008610Y-10621010D02*
X13407390Y-11019790D01*
X13407390Y-10621010D02*
X13008610Y-11019790D01*
X13407390Y-10820400D02*
G75*
G03*
X13407390Y-10820400I-199390J0D01*
G01*
X13008610Y-12526010D02*
X13407390Y-12924790D01*
X13407390Y-12526010D02*
X13008610Y-12924790D01*
X13407390Y-12725400D02*
G75*
G03*
X13407390Y-12725400I-199390J0D01*
G01*
X13008610Y-14431010D02*
X13407390Y-14829790D01*
X13407390Y-14431010D02*
X13008610Y-14829790D01*
X13407390Y-14630400D02*
G75*
G03*
X13407390Y-14630400I-199390J0D01*
G01*
X14088110Y-8474710D02*
X14486890Y-8873490D01*
X14486890Y-8474710D02*
X14088110Y-8873490D01*
X14486890Y-8674100D02*
G75*
G03*
X14486890Y-8674100I-199390J0D01*
G01*
X14088110Y-10862310D02*
X14486890Y-11261090D01*
X14486890Y-10862310D02*
X14088110Y-11261090D01*
X14486890Y-11061700D02*
G75*
G03*
X14486890Y-11061700I-199390J0D01*
G01*
X14088110Y-12284710D02*
X14486890Y-12683490D01*
X14486890Y-12284710D02*
X14088110Y-12683490D01*
X14486890Y-12484100D02*
G75*
G03*
X14486890Y-12484100I-199390J0D01*
G01*
X14088110Y-14672310D02*
X14486890Y-15071090D01*
X14486890Y-14672310D02*
X14088110Y-15071090D01*
X14486890Y-14871700D02*
G75*
G03*
X14486890Y-14871700I-199390J0D01*
G01*
X14913610Y-6811010D02*
X15312390Y-7209790D01*
X15312390Y-6811010D02*
X14913610Y-7209790D01*
X15312390Y-7010400D02*
G75*
G03*
X15312390Y-7010400I-199390J0D01*
G01*
X14913610Y-9668510D02*
X15312390Y-10067290D01*
X15312390Y-9668510D02*
X14913610Y-10067290D01*
X15312390Y-9867900D02*
G75*
G03*
X15312390Y-9867900I-199390J0D01*
G01*
X14913610Y-13478510D02*
X15312390Y-13877290D01*
X15312390Y-13478510D02*
X14913610Y-13877290D01*
X15312390Y-13677900D02*
G75*
G03*
X15312390Y-13677900I-199390J0D01*
G01*
D11*
X6854119Y-15888176D02*
X6854119Y-15688176D01*
X6901738Y-15688176D01*
X6930309Y-15697700D01*
X6949357Y-15716748D01*
X6958881Y-15735795D01*
X6968405Y-15773890D01*
X6968405Y-15802462D01*
X6958881Y-15840557D01*
X6949357Y-15859605D01*
X6930309Y-15878652D01*
X6901738Y-15888176D01*
X6854119Y-15888176D01*
X7054119Y-15888176D02*
X7054119Y-15754843D01*
X7054119Y-15792938D02*
X7063643Y-15773890D01*
X7073167Y-15764367D01*
X7092214Y-15754843D01*
X7111262Y-15754843D01*
X7177928Y-15888176D02*
X7177928Y-15754843D01*
X7177928Y-15688176D02*
X7168405Y-15697700D01*
X7177928Y-15707224D01*
X7187452Y-15697700D01*
X7177928Y-15688176D01*
X7177928Y-15707224D01*
X7301738Y-15888176D02*
X7282690Y-15878652D01*
X7273167Y-15859605D01*
X7273167Y-15688176D01*
X7406500Y-15888176D02*
X7387452Y-15878652D01*
X7377928Y-15859605D01*
X7377928Y-15688176D01*
X7635071Y-15888176D02*
X7635071Y-15688176D01*
X7701738Y-15831033D01*
X7768405Y-15688176D01*
X7768405Y-15888176D01*
X7949357Y-15888176D02*
X7949357Y-15783414D01*
X7939833Y-15764367D01*
X7920786Y-15754843D01*
X7882690Y-15754843D01*
X7863643Y-15764367D01*
X7949357Y-15878652D02*
X7930309Y-15888176D01*
X7882690Y-15888176D01*
X7863643Y-15878652D01*
X7854119Y-15859605D01*
X7854119Y-15840557D01*
X7863643Y-15821509D01*
X7882690Y-15811986D01*
X7930309Y-15811986D01*
X7949357Y-15802462D01*
X8044595Y-15754843D02*
X8044595Y-15954843D01*
X8044595Y-15764367D02*
X8063643Y-15754843D01*
X8101738Y-15754843D01*
X8120786Y-15764367D01*
X8130309Y-15773890D01*
X8139833Y-15792938D01*
X8139833Y-15850081D01*
X8130309Y-15869128D01*
X8120786Y-15878652D01*
X8101738Y-15888176D01*
X8063643Y-15888176D01*
X8044595Y-15878652D01*
X8225548Y-15869128D02*
X8235071Y-15878652D01*
X8225548Y-15888176D01*
X8216024Y-15878652D01*
X8225548Y-15869128D01*
X8225548Y-15888176D01*
X8225548Y-15764367D02*
X8235071Y-15773890D01*
X8225548Y-15783414D01*
X8216024Y-15773890D01*
X8225548Y-15764367D01*
X8225548Y-15783414D01*
D12*
X6446500Y-16142700D02*
X6596500Y-16292700D01*
X6596500Y-16142700D02*
X6446500Y-16292700D01*
D11*
X6958881Y-16308176D02*
X6844595Y-16308176D01*
X6901738Y-16308176D02*
X6901738Y-16108176D01*
X6882690Y-16136748D01*
X6863643Y-16155795D01*
X6844595Y-16165319D01*
X7044595Y-16289128D02*
X7054119Y-16298652D01*
X7044595Y-16308176D01*
X7035071Y-16298652D01*
X7044595Y-16289128D01*
X7044595Y-16308176D01*
X7235071Y-16108176D02*
X7139833Y-16108176D01*
X7130309Y-16203414D01*
X7139833Y-16193890D01*
X7158881Y-16184367D01*
X7206500Y-16184367D01*
X7225548Y-16193890D01*
X7235071Y-16203414D01*
X7244595Y-16222462D01*
X7244595Y-16270081D01*
X7235071Y-16289128D01*
X7225548Y-16298652D01*
X7206500Y-16308176D01*
X7158881Y-16308176D01*
X7139833Y-16298652D01*
X7130309Y-16289128D01*
X7368405Y-16108176D02*
X7387452Y-16108176D01*
X7406500Y-16117700D01*
X7416024Y-16127224D01*
X7425548Y-16146271D01*
X7435071Y-16184367D01*
X7435071Y-16231986D01*
X7425548Y-16270081D01*
X7416024Y-16289128D01*
X7406500Y-16298652D01*
X7387452Y-16308176D01*
X7368405Y-16308176D01*
X7349357Y-16298652D01*
X7339833Y-16289128D01*
X7330309Y-16270081D01*
X7320786Y-16231986D01*
X7320786Y-16184367D01*
X7330309Y-16146271D01*
X7339833Y-16127224D01*
X7349357Y-16117700D01*
X7368405Y-16108176D01*
X7558881Y-16108176D02*
X7577928Y-16108176D01*
X7596976Y-16117700D01*
X7606500Y-16127224D01*
X7616024Y-16146271D01*
X7625548Y-16184367D01*
X7625548Y-16231986D01*
X7616024Y-16270081D01*
X7606500Y-16289128D01*
X7596976Y-16298652D01*
X7577928Y-16308176D01*
X7558881Y-16308176D01*
X7539833Y-16298652D01*
X7530309Y-16289128D01*
X7520786Y-16270081D01*
X7511262Y-16231986D01*
X7511262Y-16184367D01*
X7520786Y-16146271D01*
X7530309Y-16127224D01*
X7539833Y-16117700D01*
X7558881Y-16108176D01*
X7711262Y-16308176D02*
X7711262Y-16174843D01*
X7711262Y-16193890D02*
X7720786Y-16184367D01*
X7739833Y-16174843D01*
X7768405Y-16174843D01*
X7787452Y-16184367D01*
X7796976Y-16203414D01*
X7796976Y-16308176D01*
X7796976Y-16203414D02*
X7806500Y-16184367D01*
X7825548Y-16174843D01*
X7854119Y-16174843D01*
X7873167Y-16184367D01*
X7882690Y-16203414D01*
X7882690Y-16308176D01*
X7977928Y-16308176D02*
X7977928Y-16174843D01*
X7977928Y-16193890D02*
X7987452Y-16184367D01*
X8006500Y-16174843D01*
X8035071Y-16174843D01*
X8054119Y-16184367D01*
X8063643Y-16203414D01*
X8063643Y-16308176D01*
X8063643Y-16203414D02*
X8073167Y-16184367D01*
X8092214Y-16174843D01*
X8120786Y-16174843D01*
X8139833Y-16184367D01*
X8149357Y-16203414D01*
X8149357Y-16308176D01*
X8539833Y-16098652D02*
X8368405Y-16355795D01*
X8796976Y-16108176D02*
X8816024Y-16108176D01*
X8835071Y-16117700D01*
X8844595Y-16127224D01*
X8854119Y-16146271D01*
X8863643Y-16184367D01*
X8863643Y-16231986D01*
X8854119Y-16270081D01*
X8844595Y-16289128D01*
X8835071Y-16298652D01*
X8816024Y-16308176D01*
X8796976Y-16308176D01*
X8777929Y-16298652D01*
X8768405Y-16289128D01*
X8758881Y-16270081D01*
X8749357Y-16231986D01*
X8749357Y-16184367D01*
X8758881Y-16146271D01*
X8768405Y-16127224D01*
X8777929Y-16117700D01*
X8796976Y-16108176D01*
X8949357Y-16289128D02*
X8958881Y-16298652D01*
X8949357Y-16308176D01*
X8939833Y-16298652D01*
X8949357Y-16289128D01*
X8949357Y-16308176D01*
X9082690Y-16108176D02*
X9101738Y-16108176D01*
X9120786Y-16117700D01*
X9130310Y-16127224D01*
X9139833Y-16146271D01*
X9149357Y-16184367D01*
X9149357Y-16231986D01*
X9139833Y-16270081D01*
X9130310Y-16289128D01*
X9120786Y-16298652D01*
X9101738Y-16308176D01*
X9082690Y-16308176D01*
X9063643Y-16298652D01*
X9054119Y-16289128D01*
X9044595Y-16270081D01*
X9035071Y-16231986D01*
X9035071Y-16184367D01*
X9044595Y-16146271D01*
X9054119Y-16127224D01*
X9063643Y-16117700D01*
X9082690Y-16108176D01*
X9330310Y-16108176D02*
X9235071Y-16108176D01*
X9225548Y-16203414D01*
X9235071Y-16193890D01*
X9254119Y-16184367D01*
X9301738Y-16184367D01*
X9320786Y-16193890D01*
X9330310Y-16203414D01*
X9339833Y-16222462D01*
X9339833Y-16270081D01*
X9330310Y-16289128D01*
X9320786Y-16298652D01*
X9301738Y-16308176D01*
X9254119Y-16308176D01*
X9235071Y-16298652D01*
X9225548Y-16289128D01*
X9435071Y-16308176D02*
X9473167Y-16308176D01*
X9492214Y-16298652D01*
X9501738Y-16289128D01*
X9520786Y-16260557D01*
X9530310Y-16222462D01*
X9530310Y-16146271D01*
X9520786Y-16127224D01*
X9511262Y-16117700D01*
X9492214Y-16108176D01*
X9454119Y-16108176D01*
X9435071Y-16117700D01*
X9425548Y-16127224D01*
X9416024Y-16146271D01*
X9416024Y-16193890D01*
X9425548Y-16212938D01*
X9435071Y-16222462D01*
X9454119Y-16231986D01*
X9492214Y-16231986D01*
X9511262Y-16222462D01*
X9520786Y-16212938D01*
X9530310Y-16193890D01*
X9720786Y-16308176D02*
X9606500Y-16308176D01*
X9663643Y-16308176D02*
X9663643Y-16108176D01*
X9644595Y-16136748D01*
X9625548Y-16155795D01*
X9606500Y-16165319D01*
X9796976Y-16108176D02*
X9796976Y-16146271D01*
X9873167Y-16108176D02*
X9873167Y-16146271D01*
X10168405Y-16384367D02*
X10158881Y-16374843D01*
X10139833Y-16346271D01*
X10130310Y-16327224D01*
X10120786Y-16298652D01*
X10111262Y-16251033D01*
X10111262Y-16212938D01*
X10120786Y-16165319D01*
X10130310Y-16136748D01*
X10139833Y-16117700D01*
X10158881Y-16089128D01*
X10168405Y-16079605D01*
X10282690Y-16108176D02*
X10301738Y-16108176D01*
X10320786Y-16117700D01*
X10330310Y-16127224D01*
X10339833Y-16146271D01*
X10349357Y-16184367D01*
X10349357Y-16231986D01*
X10339833Y-16270081D01*
X10330310Y-16289128D01*
X10320786Y-16298652D01*
X10301738Y-16308176D01*
X10282690Y-16308176D01*
X10263643Y-16298652D01*
X10254119Y-16289128D01*
X10244595Y-16270081D01*
X10235071Y-16231986D01*
X10235071Y-16184367D01*
X10244595Y-16146271D01*
X10254119Y-16127224D01*
X10263643Y-16117700D01*
X10282690Y-16108176D01*
X10587452Y-16308176D02*
X10587452Y-16108176D01*
X10673167Y-16308176D02*
X10673167Y-16203414D01*
X10663643Y-16184367D01*
X10644595Y-16174843D01*
X10616024Y-16174843D01*
X10596976Y-16184367D01*
X10587452Y-16193890D01*
X10796976Y-16308176D02*
X10777929Y-16298652D01*
X10768405Y-16289128D01*
X10758881Y-16270081D01*
X10758881Y-16212938D01*
X10768405Y-16193890D01*
X10777929Y-16184367D01*
X10796976Y-16174843D01*
X10825548Y-16174843D01*
X10844595Y-16184367D01*
X10854119Y-16193890D01*
X10863643Y-16212938D01*
X10863643Y-16270081D01*
X10854119Y-16289128D01*
X10844595Y-16298652D01*
X10825548Y-16308176D01*
X10796976Y-16308176D01*
X10977929Y-16308176D02*
X10958881Y-16298652D01*
X10949357Y-16279605D01*
X10949357Y-16108176D01*
X11130310Y-16298652D02*
X11111262Y-16308176D01*
X11073167Y-16308176D01*
X11054119Y-16298652D01*
X11044595Y-16279605D01*
X11044595Y-16203414D01*
X11054119Y-16184367D01*
X11073167Y-16174843D01*
X11111262Y-16174843D01*
X11130310Y-16184367D01*
X11139833Y-16203414D01*
X11139833Y-16222462D01*
X11044595Y-16241509D01*
X11216024Y-16298652D02*
X11235071Y-16308176D01*
X11273167Y-16308176D01*
X11292214Y-16298652D01*
X11301738Y-16279605D01*
X11301738Y-16270081D01*
X11292214Y-16251033D01*
X11273167Y-16241509D01*
X11244595Y-16241509D01*
X11225548Y-16231986D01*
X11216024Y-16212938D01*
X11216024Y-16203414D01*
X11225548Y-16184367D01*
X11244595Y-16174843D01*
X11273167Y-16174843D01*
X11292214Y-16184367D01*
X11539833Y-16231986D02*
X11692214Y-16231986D01*
X11616024Y-16308176D02*
X11616024Y-16155795D01*
X11930309Y-16127224D02*
X11939833Y-16117700D01*
X11958881Y-16108176D01*
X12006500Y-16108176D01*
X12025548Y-16117700D01*
X12035071Y-16127224D01*
X12044595Y-16146271D01*
X12044595Y-16165319D01*
X12035071Y-16193890D01*
X11920786Y-16308176D01*
X12044595Y-16308176D01*
X12273167Y-16298652D02*
X12292214Y-16308176D01*
X12330309Y-16308176D01*
X12349357Y-16298652D01*
X12358881Y-16279605D01*
X12358881Y-16270081D01*
X12349357Y-16251033D01*
X12330309Y-16241509D01*
X12301738Y-16241509D01*
X12282690Y-16231986D01*
X12273167Y-16212938D01*
X12273167Y-16203414D01*
X12282690Y-16184367D01*
X12301738Y-16174843D01*
X12330309Y-16174843D01*
X12349357Y-16184367D01*
X12473167Y-16308176D02*
X12454119Y-16298652D01*
X12444595Y-16279605D01*
X12444595Y-16108176D01*
X12577928Y-16308176D02*
X12558881Y-16298652D01*
X12549357Y-16289128D01*
X12539833Y-16270081D01*
X12539833Y-16212938D01*
X12549357Y-16193890D01*
X12558881Y-16184367D01*
X12577928Y-16174843D01*
X12606500Y-16174843D01*
X12625548Y-16184367D01*
X12635071Y-16193890D01*
X12644595Y-16212938D01*
X12644595Y-16270081D01*
X12635071Y-16289128D01*
X12625548Y-16298652D01*
X12606500Y-16308176D01*
X12577928Y-16308176D01*
X12701738Y-16174843D02*
X12777928Y-16174843D01*
X12730309Y-16108176D02*
X12730309Y-16279605D01*
X12739833Y-16298652D01*
X12758881Y-16308176D01*
X12777928Y-16308176D01*
X12835071Y-16298652D02*
X12854119Y-16308176D01*
X12892214Y-16308176D01*
X12911262Y-16298652D01*
X12920786Y-16279605D01*
X12920786Y-16270081D01*
X12911262Y-16251033D01*
X12892214Y-16241509D01*
X12863643Y-16241509D01*
X12844595Y-16231986D01*
X12835071Y-16212938D01*
X12835071Y-16203414D01*
X12844595Y-16184367D01*
X12863643Y-16174843D01*
X12892214Y-16174843D01*
X12911262Y-16184367D01*
X12987452Y-16384367D02*
X12996976Y-16374843D01*
X13016024Y-16346271D01*
X13025548Y-16327224D01*
X13035071Y-16298652D01*
X13044595Y-16251033D01*
X13044595Y-16212938D01*
X13035071Y-16165319D01*
X13025548Y-16136748D01*
X13016024Y-16117700D01*
X12996976Y-16089128D01*
X12987452Y-16079605D01*
X13349357Y-16384367D02*
X13339833Y-16374843D01*
X13320786Y-16346271D01*
X13311262Y-16327224D01*
X13301738Y-16298652D01*
X13292214Y-16251033D01*
X13292214Y-16212938D01*
X13301738Y-16165319D01*
X13311262Y-16136748D01*
X13320786Y-16117700D01*
X13339833Y-16089128D01*
X13349357Y-16079605D01*
X13425548Y-16174843D02*
X13425548Y-16308176D01*
X13425548Y-16193890D02*
X13435071Y-16184367D01*
X13454119Y-16174843D01*
X13482690Y-16174843D01*
X13501738Y-16184367D01*
X13511262Y-16203414D01*
X13511262Y-16308176D01*
X13635071Y-16308176D02*
X13616024Y-16298652D01*
X13606500Y-16289128D01*
X13596976Y-16270081D01*
X13596976Y-16212938D01*
X13606500Y-16193890D01*
X13616024Y-16184367D01*
X13635071Y-16174843D01*
X13663643Y-16174843D01*
X13682690Y-16184367D01*
X13692214Y-16193890D01*
X13701738Y-16212938D01*
X13701738Y-16270081D01*
X13692214Y-16289128D01*
X13682690Y-16298652D01*
X13663643Y-16308176D01*
X13635071Y-16308176D01*
X13758881Y-16174843D02*
X13835071Y-16174843D01*
X13787452Y-16108176D02*
X13787452Y-16279605D01*
X13796976Y-16298652D01*
X13816024Y-16308176D01*
X13835071Y-16308176D01*
X14054119Y-16174843D02*
X14054119Y-16374843D01*
X14054119Y-16184367D02*
X14073167Y-16174843D01*
X14111262Y-16174843D01*
X14130309Y-16184367D01*
X14139833Y-16193890D01*
X14149357Y-16212938D01*
X14149357Y-16270081D01*
X14139833Y-16289128D01*
X14130309Y-16298652D01*
X14111262Y-16308176D01*
X14073167Y-16308176D01*
X14054119Y-16298652D01*
X14263643Y-16308176D02*
X14244595Y-16298652D01*
X14235071Y-16279605D01*
X14235071Y-16108176D01*
X14425548Y-16308176D02*
X14425548Y-16203414D01*
X14416024Y-16184367D01*
X14396976Y-16174843D01*
X14358881Y-16174843D01*
X14339833Y-16184367D01*
X14425548Y-16298652D02*
X14406500Y-16308176D01*
X14358881Y-16308176D01*
X14339833Y-16298652D01*
X14330309Y-16279605D01*
X14330309Y-16260557D01*
X14339833Y-16241509D01*
X14358881Y-16231986D01*
X14406500Y-16231986D01*
X14425548Y-16222462D01*
X14492214Y-16174843D02*
X14568405Y-16174843D01*
X14520786Y-16108176D02*
X14520786Y-16279605D01*
X14530309Y-16298652D01*
X14549357Y-16308176D01*
X14568405Y-16308176D01*
X14711262Y-16298652D02*
X14692214Y-16308176D01*
X14654119Y-16308176D01*
X14635071Y-16298652D01*
X14625548Y-16279605D01*
X14625548Y-16203414D01*
X14635071Y-16184367D01*
X14654119Y-16174843D01*
X14692214Y-16174843D01*
X14711262Y-16184367D01*
X14720786Y-16203414D01*
X14720786Y-16222462D01*
X14625548Y-16241509D01*
X14892214Y-16308176D02*
X14892214Y-16108176D01*
X14892214Y-16298652D02*
X14873167Y-16308176D01*
X14835071Y-16308176D01*
X14816024Y-16298652D01*
X14806500Y-16289128D01*
X14796976Y-16270081D01*
X14796976Y-16212938D01*
X14806500Y-16193890D01*
X14816024Y-16184367D01*
X14835071Y-16174843D01*
X14873167Y-16174843D01*
X14892214Y-16184367D01*
X14968405Y-16384367D02*
X14977928Y-16374843D01*
X14996976Y-16346271D01*
X15006500Y-16327224D01*
X15016024Y-16298652D01*
X15025548Y-16251033D01*
X15025548Y-16212938D01*
X15016024Y-16165319D01*
X15006500Y-16136748D01*
X14996976Y-16117700D01*
X14977928Y-16089128D01*
X14968405Y-16079605D01*
D13*
X6596500Y-16487700D02*
G75*
G03*
X6596500Y-16487700I-85090J0D01*
G01*
D11*
X6958881Y-16578176D02*
X6844595Y-16578176D01*
X6901738Y-16578176D02*
X6901738Y-16378176D01*
X6882690Y-16406748D01*
X6863643Y-16425795D01*
X6844595Y-16435319D01*
X7044595Y-16559128D02*
X7054119Y-16568652D01*
X7044595Y-16578176D01*
X7035071Y-16568652D01*
X7044595Y-16559128D01*
X7044595Y-16578176D01*
X7120786Y-16378176D02*
X7254119Y-16378176D01*
X7168405Y-16578176D01*
X7368405Y-16378176D02*
X7387452Y-16378176D01*
X7406500Y-16387700D01*
X7416024Y-16397224D01*
X7425548Y-16416271D01*
X7435071Y-16454367D01*
X7435071Y-16501986D01*
X7425548Y-16540081D01*
X7416024Y-16559128D01*
X7406500Y-16568652D01*
X7387452Y-16578176D01*
X7368405Y-16578176D01*
X7349357Y-16568652D01*
X7339833Y-16559128D01*
X7330309Y-16540081D01*
X7320786Y-16501986D01*
X7320786Y-16454367D01*
X7330309Y-16416271D01*
X7339833Y-16397224D01*
X7349357Y-16387700D01*
X7368405Y-16378176D01*
X7511262Y-16397224D02*
X7520786Y-16387700D01*
X7539833Y-16378176D01*
X7587452Y-16378176D01*
X7606500Y-16387700D01*
X7616024Y-16397224D01*
X7625548Y-16416271D01*
X7625548Y-16435319D01*
X7616024Y-16463890D01*
X7501738Y-16578176D01*
X7625548Y-16578176D01*
X7711262Y-16578176D02*
X7711262Y-16444843D01*
X7711262Y-16463890D02*
X7720786Y-16454367D01*
X7739833Y-16444843D01*
X7768405Y-16444843D01*
X7787452Y-16454367D01*
X7796976Y-16473414D01*
X7796976Y-16578176D01*
X7796976Y-16473414D02*
X7806500Y-16454367D01*
X7825548Y-16444843D01*
X7854119Y-16444843D01*
X7873167Y-16454367D01*
X7882690Y-16473414D01*
X7882690Y-16578176D01*
X7977928Y-16578176D02*
X7977928Y-16444843D01*
X7977928Y-16463890D02*
X7987452Y-16454367D01*
X8006500Y-16444843D01*
X8035071Y-16444843D01*
X8054119Y-16454367D01*
X8063643Y-16473414D01*
X8063643Y-16578176D01*
X8063643Y-16473414D02*
X8073167Y-16454367D01*
X8092214Y-16444843D01*
X8120786Y-16444843D01*
X8139833Y-16454367D01*
X8149357Y-16473414D01*
X8149357Y-16578176D01*
X8539833Y-16368652D02*
X8368405Y-16625795D01*
X8796976Y-16378176D02*
X8816024Y-16378176D01*
X8835071Y-16387700D01*
X8844595Y-16397224D01*
X8854119Y-16416271D01*
X8863643Y-16454367D01*
X8863643Y-16501986D01*
X8854119Y-16540081D01*
X8844595Y-16559128D01*
X8835071Y-16568652D01*
X8816024Y-16578176D01*
X8796976Y-16578176D01*
X8777929Y-16568652D01*
X8768405Y-16559128D01*
X8758881Y-16540081D01*
X8749357Y-16501986D01*
X8749357Y-16454367D01*
X8758881Y-16416271D01*
X8768405Y-16397224D01*
X8777929Y-16387700D01*
X8796976Y-16378176D01*
X8949357Y-16559128D02*
X8958881Y-16568652D01*
X8949357Y-16578176D01*
X8939833Y-16568652D01*
X8949357Y-16559128D01*
X8949357Y-16578176D01*
X9082690Y-16378176D02*
X9101738Y-16378176D01*
X9120786Y-16387700D01*
X9130310Y-16397224D01*
X9139833Y-16416271D01*
X9149357Y-16454367D01*
X9149357Y-16501986D01*
X9139833Y-16540081D01*
X9130310Y-16559128D01*
X9120786Y-16568652D01*
X9101738Y-16578176D01*
X9082690Y-16578176D01*
X9063643Y-16568652D01*
X9054119Y-16559128D01*
X9044595Y-16540081D01*
X9035071Y-16501986D01*
X9035071Y-16454367D01*
X9044595Y-16416271D01*
X9054119Y-16397224D01*
X9063643Y-16387700D01*
X9082690Y-16378176D01*
X9320786Y-16378176D02*
X9282690Y-16378176D01*
X9263643Y-16387700D01*
X9254119Y-16397224D01*
X9235071Y-16425795D01*
X9225548Y-16463890D01*
X9225548Y-16540081D01*
X9235071Y-16559128D01*
X9244595Y-16568652D01*
X9263643Y-16578176D01*
X9301738Y-16578176D01*
X9320786Y-16568652D01*
X9330310Y-16559128D01*
X9339833Y-16540081D01*
X9339833Y-16492462D01*
X9330310Y-16473414D01*
X9320786Y-16463890D01*
X9301738Y-16454367D01*
X9263643Y-16454367D01*
X9244595Y-16463890D01*
X9235071Y-16473414D01*
X9225548Y-16492462D01*
X9406500Y-16378176D02*
X9539833Y-16378176D01*
X9454119Y-16578176D01*
X9654119Y-16378176D02*
X9673167Y-16378176D01*
X9692214Y-16387700D01*
X9701738Y-16397224D01*
X9711262Y-16416271D01*
X9720786Y-16454367D01*
X9720786Y-16501986D01*
X9711262Y-16540081D01*
X9701738Y-16559128D01*
X9692214Y-16568652D01*
X9673167Y-16578176D01*
X9654119Y-16578176D01*
X9635071Y-16568652D01*
X9625548Y-16559128D01*
X9616024Y-16540081D01*
X9606500Y-16501986D01*
X9606500Y-16454367D01*
X9616024Y-16416271D01*
X9625548Y-16397224D01*
X9635071Y-16387700D01*
X9654119Y-16378176D01*
X9796976Y-16378176D02*
X9796976Y-16416271D01*
X9873167Y-16378176D02*
X9873167Y-16416271D01*
X10168405Y-16654367D02*
X10158881Y-16644843D01*
X10139833Y-16616271D01*
X10130310Y-16597224D01*
X10120786Y-16568652D01*
X10111262Y-16521033D01*
X10111262Y-16482938D01*
X10120786Y-16435319D01*
X10130310Y-16406748D01*
X10139833Y-16387700D01*
X10158881Y-16359128D01*
X10168405Y-16349605D01*
X10225548Y-16378176D02*
X10349357Y-16378176D01*
X10282690Y-16454367D01*
X10311262Y-16454367D01*
X10330310Y-16463890D01*
X10339833Y-16473414D01*
X10349357Y-16492462D01*
X10349357Y-16540081D01*
X10339833Y-16559128D01*
X10330310Y-16568652D01*
X10311262Y-16578176D01*
X10254119Y-16578176D01*
X10235071Y-16568652D01*
X10225548Y-16559128D01*
X10520786Y-16378176D02*
X10482690Y-16378176D01*
X10463643Y-16387700D01*
X10454119Y-16397224D01*
X10435071Y-16425795D01*
X10425548Y-16463890D01*
X10425548Y-16540081D01*
X10435071Y-16559128D01*
X10444595Y-16568652D01*
X10463643Y-16578176D01*
X10501738Y-16578176D01*
X10520786Y-16568652D01*
X10530310Y-16559128D01*
X10539833Y-16540081D01*
X10539833Y-16492462D01*
X10530310Y-16473414D01*
X10520786Y-16463890D01*
X10501738Y-16454367D01*
X10463643Y-16454367D01*
X10444595Y-16463890D01*
X10435071Y-16473414D01*
X10425548Y-16492462D01*
X10777929Y-16578176D02*
X10777929Y-16378176D01*
X10863643Y-16578176D02*
X10863643Y-16473414D01*
X10854119Y-16454367D01*
X10835071Y-16444843D01*
X10806500Y-16444843D01*
X10787452Y-16454367D01*
X10777929Y-16463890D01*
X10987452Y-16578176D02*
X10968405Y-16568652D01*
X10958881Y-16559128D01*
X10949357Y-16540081D01*
X10949357Y-16482938D01*
X10958881Y-16463890D01*
X10968405Y-16454367D01*
X10987452Y-16444843D01*
X11016024Y-16444843D01*
X11035071Y-16454367D01*
X11044595Y-16463890D01*
X11054119Y-16482938D01*
X11054119Y-16540081D01*
X11044595Y-16559128D01*
X11035071Y-16568652D01*
X11016024Y-16578176D01*
X10987452Y-16578176D01*
X11168405Y-16578176D02*
X11149357Y-16568652D01*
X11139833Y-16549605D01*
X11139833Y-16378176D01*
X11320786Y-16568652D02*
X11301738Y-16578176D01*
X11263643Y-16578176D01*
X11244595Y-16568652D01*
X11235071Y-16549605D01*
X11235071Y-16473414D01*
X11244595Y-16454367D01*
X11263643Y-16444843D01*
X11301738Y-16444843D01*
X11320786Y-16454367D01*
X11330309Y-16473414D01*
X11330309Y-16492462D01*
X11235071Y-16511509D01*
X11406500Y-16568652D02*
X11425548Y-16578176D01*
X11463643Y-16578176D01*
X11482690Y-16568652D01*
X11492214Y-16549605D01*
X11492214Y-16540081D01*
X11482690Y-16521033D01*
X11463643Y-16511509D01*
X11435071Y-16511509D01*
X11416024Y-16501986D01*
X11406500Y-16482938D01*
X11406500Y-16473414D01*
X11416024Y-16454367D01*
X11435071Y-16444843D01*
X11463643Y-16444843D01*
X11482690Y-16454367D01*
X11558881Y-16654367D02*
X11568405Y-16644843D01*
X11587452Y-16616271D01*
X11596976Y-16597224D01*
X11606500Y-16568652D01*
X11616024Y-16521033D01*
X11616024Y-16482938D01*
X11606500Y-16435319D01*
X11596976Y-16406748D01*
X11587452Y-16387700D01*
X11568405Y-16359128D01*
X11558881Y-16349605D01*
X11920786Y-16654367D02*
X11911262Y-16644843D01*
X11892214Y-16616271D01*
X11882690Y-16597224D01*
X11873167Y-16568652D01*
X11863643Y-16521033D01*
X11863643Y-16482938D01*
X11873167Y-16435319D01*
X11882690Y-16406748D01*
X11892214Y-16387700D01*
X11911262Y-16359128D01*
X11920786Y-16349605D01*
X11996976Y-16444843D02*
X11996976Y-16578176D01*
X11996976Y-16463890D02*
X12006500Y-16454367D01*
X12025548Y-16444843D01*
X12054119Y-16444843D01*
X12073167Y-16454367D01*
X12082690Y-16473414D01*
X12082690Y-16578176D01*
X12206500Y-16578176D02*
X12187452Y-16568652D01*
X12177928Y-16559128D01*
X12168405Y-16540081D01*
X12168405Y-16482938D01*
X12177928Y-16463890D01*
X12187452Y-16454367D01*
X12206500Y-16444843D01*
X12235071Y-16444843D01*
X12254119Y-16454367D01*
X12263643Y-16463890D01*
X12273167Y-16482938D01*
X12273167Y-16540081D01*
X12263643Y-16559128D01*
X12254119Y-16568652D01*
X12235071Y-16578176D01*
X12206500Y-16578176D01*
X12330309Y-16444843D02*
X12406500Y-16444843D01*
X12358881Y-16378176D02*
X12358881Y-16549605D01*
X12368405Y-16568652D01*
X12387452Y-16578176D01*
X12406500Y-16578176D01*
X12625548Y-16444843D02*
X12625548Y-16644843D01*
X12625548Y-16454367D02*
X12644595Y-16444843D01*
X12682690Y-16444843D01*
X12701738Y-16454367D01*
X12711262Y-16463890D01*
X12720786Y-16482938D01*
X12720786Y-16540081D01*
X12711262Y-16559128D01*
X12701738Y-16568652D01*
X12682690Y-16578176D01*
X12644595Y-16578176D01*
X12625548Y-16568652D01*
X12835071Y-16578176D02*
X12816024Y-16568652D01*
X12806500Y-16549605D01*
X12806500Y-16378176D01*
X12996976Y-16578176D02*
X12996976Y-16473414D01*
X12987452Y-16454367D01*
X12968405Y-16444843D01*
X12930309Y-16444843D01*
X12911262Y-16454367D01*
X12996976Y-16568652D02*
X12977928Y-16578176D01*
X12930309Y-16578176D01*
X12911262Y-16568652D01*
X12901738Y-16549605D01*
X12901738Y-16530557D01*
X12911262Y-16511509D01*
X12930309Y-16501986D01*
X12977928Y-16501986D01*
X12996976Y-16492462D01*
X13063643Y-16444843D02*
X13139833Y-16444843D01*
X13092214Y-16378176D02*
X13092214Y-16549605D01*
X13101738Y-16568652D01*
X13120786Y-16578176D01*
X13139833Y-16578176D01*
X13282690Y-16568652D02*
X13263643Y-16578176D01*
X13225548Y-16578176D01*
X13206500Y-16568652D01*
X13196976Y-16549605D01*
X13196976Y-16473414D01*
X13206500Y-16454367D01*
X13225548Y-16444843D01*
X13263643Y-16444843D01*
X13282690Y-16454367D01*
X13292214Y-16473414D01*
X13292214Y-16492462D01*
X13196976Y-16511509D01*
X13463643Y-16578176D02*
X13463643Y-16378176D01*
X13463643Y-16568652D02*
X13444595Y-16578176D01*
X13406500Y-16578176D01*
X13387452Y-16568652D01*
X13377928Y-16559128D01*
X13368405Y-16540081D01*
X13368405Y-16482938D01*
X13377928Y-16463890D01*
X13387452Y-16454367D01*
X13406500Y-16444843D01*
X13444595Y-16444843D01*
X13463643Y-16454367D01*
X13539833Y-16654367D02*
X13549357Y-16644843D01*
X13568405Y-16616271D01*
X13577928Y-16597224D01*
X13587452Y-16568652D01*
X13596976Y-16521033D01*
X13596976Y-16482938D01*
X13587452Y-16435319D01*
X13577928Y-16406748D01*
X13568405Y-16387700D01*
X13549357Y-16359128D01*
X13539833Y-16349605D01*
D14*
X6509000Y-16690380D02*
X6509000Y-16865380D01*
X6421500Y-16777880D02*
X6596500Y-16777880D01*
D11*
X6958881Y-16868356D02*
X6844595Y-16868356D01*
X6901738Y-16868356D02*
X6901738Y-16668356D01*
X6882690Y-16696928D01*
X6863643Y-16715975D01*
X6844595Y-16725499D01*
X7044595Y-16849309D02*
X7054119Y-16858832D01*
X7044595Y-16868356D01*
X7035071Y-16858832D01*
X7044595Y-16849309D01*
X7044595Y-16868356D01*
X7120786Y-16668356D02*
X7254119Y-16668356D01*
X7168405Y-16868356D01*
X7425548Y-16668356D02*
X7330309Y-16668356D01*
X7320786Y-16763594D01*
X7330309Y-16754070D01*
X7349357Y-16744547D01*
X7396976Y-16744547D01*
X7416024Y-16754070D01*
X7425548Y-16763594D01*
X7435071Y-16782642D01*
X7435071Y-16830261D01*
X7425548Y-16849309D01*
X7416024Y-16858832D01*
X7396976Y-16868356D01*
X7349357Y-16868356D01*
X7330309Y-16858832D01*
X7320786Y-16849309D01*
X7558881Y-16668356D02*
X7577928Y-16668356D01*
X7596976Y-16677880D01*
X7606500Y-16687404D01*
X7616024Y-16706451D01*
X7625548Y-16744547D01*
X7625548Y-16792166D01*
X7616024Y-16830261D01*
X7606500Y-16849309D01*
X7596976Y-16858832D01*
X7577928Y-16868356D01*
X7558881Y-16868356D01*
X7539833Y-16858832D01*
X7530309Y-16849309D01*
X7520786Y-16830261D01*
X7511262Y-16792166D01*
X7511262Y-16744547D01*
X7520786Y-16706451D01*
X7530309Y-16687404D01*
X7539833Y-16677880D01*
X7558881Y-16668356D01*
X7711262Y-16868356D02*
X7711262Y-16735023D01*
X7711262Y-16754070D02*
X7720786Y-16744547D01*
X7739833Y-16735023D01*
X7768405Y-16735023D01*
X7787452Y-16744547D01*
X7796976Y-16763594D01*
X7796976Y-16868356D01*
X7796976Y-16763594D02*
X7806500Y-16744547D01*
X7825548Y-16735023D01*
X7854119Y-16735023D01*
X7873167Y-16744547D01*
X7882690Y-16763594D01*
X7882690Y-16868356D01*
X7977928Y-16868356D02*
X7977928Y-16735023D01*
X7977928Y-16754070D02*
X7987452Y-16744547D01*
X8006500Y-16735023D01*
X8035071Y-16735023D01*
X8054119Y-16744547D01*
X8063643Y-16763594D01*
X8063643Y-16868356D01*
X8063643Y-16763594D02*
X8073167Y-16744547D01*
X8092214Y-16735023D01*
X8120786Y-16735023D01*
X8139833Y-16744547D01*
X8149357Y-16763594D01*
X8149357Y-16868356D01*
X8539833Y-16658832D02*
X8368405Y-16915975D01*
X8796976Y-16668356D02*
X8816024Y-16668356D01*
X8835071Y-16677880D01*
X8844595Y-16687404D01*
X8854119Y-16706451D01*
X8863643Y-16744547D01*
X8863643Y-16792166D01*
X8854119Y-16830261D01*
X8844595Y-16849309D01*
X8835071Y-16858832D01*
X8816024Y-16868356D01*
X8796976Y-16868356D01*
X8777929Y-16858832D01*
X8768405Y-16849309D01*
X8758881Y-16830261D01*
X8749357Y-16792166D01*
X8749357Y-16744547D01*
X8758881Y-16706451D01*
X8768405Y-16687404D01*
X8777929Y-16677880D01*
X8796976Y-16668356D01*
X8949357Y-16849309D02*
X8958881Y-16858832D01*
X8949357Y-16868356D01*
X8939833Y-16858832D01*
X8949357Y-16849309D01*
X8949357Y-16868356D01*
X9082690Y-16668356D02*
X9101738Y-16668356D01*
X9120786Y-16677880D01*
X9130310Y-16687404D01*
X9139833Y-16706451D01*
X9149357Y-16744547D01*
X9149357Y-16792166D01*
X9139833Y-16830261D01*
X9130310Y-16849309D01*
X9120786Y-16858832D01*
X9101738Y-16868356D01*
X9082690Y-16868356D01*
X9063643Y-16858832D01*
X9054119Y-16849309D01*
X9044595Y-16830261D01*
X9035071Y-16792166D01*
X9035071Y-16744547D01*
X9044595Y-16706451D01*
X9054119Y-16687404D01*
X9063643Y-16677880D01*
X9082690Y-16668356D01*
X9320786Y-16668356D02*
X9282690Y-16668356D01*
X9263643Y-16677880D01*
X9254119Y-16687404D01*
X9235071Y-16715975D01*
X9225548Y-16754070D01*
X9225548Y-16830261D01*
X9235071Y-16849309D01*
X9244595Y-16858832D01*
X9263643Y-16868356D01*
X9301738Y-16868356D01*
X9320786Y-16858832D01*
X9330310Y-16849309D01*
X9339833Y-16830261D01*
X9339833Y-16782642D01*
X9330310Y-16763594D01*
X9320786Y-16754070D01*
X9301738Y-16744547D01*
X9263643Y-16744547D01*
X9244595Y-16754070D01*
X9235071Y-16763594D01*
X9225548Y-16782642D01*
X9454119Y-16754070D02*
X9435071Y-16744547D01*
X9425548Y-16735023D01*
X9416024Y-16715975D01*
X9416024Y-16706451D01*
X9425548Y-16687404D01*
X9435071Y-16677880D01*
X9454119Y-16668356D01*
X9492214Y-16668356D01*
X9511262Y-16677880D01*
X9520786Y-16687404D01*
X9530310Y-16706451D01*
X9530310Y-16715975D01*
X9520786Y-16735023D01*
X9511262Y-16744547D01*
X9492214Y-16754070D01*
X9454119Y-16754070D01*
X9435071Y-16763594D01*
X9425548Y-16773118D01*
X9416024Y-16792166D01*
X9416024Y-16830261D01*
X9425548Y-16849309D01*
X9435071Y-16858832D01*
X9454119Y-16868356D01*
X9492214Y-16868356D01*
X9511262Y-16858832D01*
X9520786Y-16849309D01*
X9530310Y-16830261D01*
X9530310Y-16792166D01*
X9520786Y-16773118D01*
X9511262Y-16763594D01*
X9492214Y-16754070D01*
X9625548Y-16868356D02*
X9663643Y-16868356D01*
X9682690Y-16858832D01*
X9692214Y-16849309D01*
X9711262Y-16820737D01*
X9720786Y-16782642D01*
X9720786Y-16706451D01*
X9711262Y-16687404D01*
X9701738Y-16677880D01*
X9682690Y-16668356D01*
X9644595Y-16668356D01*
X9625548Y-16677880D01*
X9616024Y-16687404D01*
X9606500Y-16706451D01*
X9606500Y-16754070D01*
X9616024Y-16773118D01*
X9625548Y-16782642D01*
X9644595Y-16792166D01*
X9682690Y-16792166D01*
X9701738Y-16782642D01*
X9711262Y-16773118D01*
X9720786Y-16754070D01*
X9796976Y-16668356D02*
X9796976Y-16706451D01*
X9873167Y-16668356D02*
X9873167Y-16706451D01*
X10168405Y-16944547D02*
X10158881Y-16935023D01*
X10139833Y-16906451D01*
X10130310Y-16887404D01*
X10120786Y-16858832D01*
X10111262Y-16811213D01*
X10111262Y-16773118D01*
X10120786Y-16725499D01*
X10130310Y-16696928D01*
X10139833Y-16677880D01*
X10158881Y-16649308D01*
X10168405Y-16639785D01*
X10235071Y-16687404D02*
X10244595Y-16677880D01*
X10263643Y-16668356D01*
X10311262Y-16668356D01*
X10330310Y-16677880D01*
X10339833Y-16687404D01*
X10349357Y-16706451D01*
X10349357Y-16725499D01*
X10339833Y-16754070D01*
X10225548Y-16868356D01*
X10349357Y-16868356D01*
X10587452Y-16868356D02*
X10587452Y-16668356D01*
X10673167Y-16868356D02*
X10673167Y-16763594D01*
X10663643Y-16744547D01*
X10644595Y-16735023D01*
X10616024Y-16735023D01*
X10596976Y-16744547D01*
X10587452Y-16754070D01*
X10796976Y-16868356D02*
X10777929Y-16858832D01*
X10768405Y-16849309D01*
X10758881Y-16830261D01*
X10758881Y-16773118D01*
X10768405Y-16754070D01*
X10777929Y-16744547D01*
X10796976Y-16735023D01*
X10825548Y-16735023D01*
X10844595Y-16744547D01*
X10854119Y-16754070D01*
X10863643Y-16773118D01*
X10863643Y-16830261D01*
X10854119Y-16849309D01*
X10844595Y-16858832D01*
X10825548Y-16868356D01*
X10796976Y-16868356D01*
X10977929Y-16868356D02*
X10958881Y-16858832D01*
X10949357Y-16839785D01*
X10949357Y-16668356D01*
X11130310Y-16858832D02*
X11111262Y-16868356D01*
X11073167Y-16868356D01*
X11054119Y-16858832D01*
X11044595Y-16839785D01*
X11044595Y-16763594D01*
X11054119Y-16744547D01*
X11073167Y-16735023D01*
X11111262Y-16735023D01*
X11130310Y-16744547D01*
X11139833Y-16763594D01*
X11139833Y-16782642D01*
X11044595Y-16801690D01*
X11216024Y-16858832D02*
X11235071Y-16868356D01*
X11273167Y-16868356D01*
X11292214Y-16858832D01*
X11301738Y-16839785D01*
X11301738Y-16830261D01*
X11292214Y-16811213D01*
X11273167Y-16801690D01*
X11244595Y-16801690D01*
X11225548Y-16792166D01*
X11216024Y-16773118D01*
X11216024Y-16763594D01*
X11225548Y-16744547D01*
X11244595Y-16735023D01*
X11273167Y-16735023D01*
X11292214Y-16744547D01*
X11368405Y-16944547D02*
X11377928Y-16935023D01*
X11396976Y-16906451D01*
X11406500Y-16887404D01*
X11416024Y-16858832D01*
X11425548Y-16811213D01*
X11425548Y-16773118D01*
X11416024Y-16725499D01*
X11406500Y-16696928D01*
X11396976Y-16677880D01*
X11377928Y-16649308D01*
X11368405Y-16639785D01*
X11730309Y-16944547D02*
X11720786Y-16935023D01*
X11701738Y-16906451D01*
X11692214Y-16887404D01*
X11682690Y-16858832D01*
X11673167Y-16811213D01*
X11673167Y-16773118D01*
X11682690Y-16725499D01*
X11692214Y-16696928D01*
X11701738Y-16677880D01*
X11720786Y-16649308D01*
X11730309Y-16639785D01*
X11806500Y-16735023D02*
X11806500Y-16868356D01*
X11806500Y-16754070D02*
X11816024Y-16744547D01*
X11835071Y-16735023D01*
X11863643Y-16735023D01*
X11882690Y-16744547D01*
X11892214Y-16763594D01*
X11892214Y-16868356D01*
X12016024Y-16868356D02*
X11996976Y-16858832D01*
X11987452Y-16849309D01*
X11977928Y-16830261D01*
X11977928Y-16773118D01*
X11987452Y-16754070D01*
X11996976Y-16744547D01*
X12016024Y-16735023D01*
X12044595Y-16735023D01*
X12063643Y-16744547D01*
X12073167Y-16754070D01*
X12082690Y-16773118D01*
X12082690Y-16830261D01*
X12073167Y-16849309D01*
X12063643Y-16858832D01*
X12044595Y-16868356D01*
X12016024Y-16868356D01*
X12139833Y-16735023D02*
X12216024Y-16735023D01*
X12168405Y-16668356D02*
X12168405Y-16839785D01*
X12177928Y-16858832D01*
X12196976Y-16868356D01*
X12216024Y-16868356D01*
X12435071Y-16735023D02*
X12435071Y-16935023D01*
X12435071Y-16744547D02*
X12454119Y-16735023D01*
X12492214Y-16735023D01*
X12511262Y-16744547D01*
X12520786Y-16754070D01*
X12530309Y-16773118D01*
X12530309Y-16830261D01*
X12520786Y-16849309D01*
X12511262Y-16858832D01*
X12492214Y-16868356D01*
X12454119Y-16868356D01*
X12435071Y-16858832D01*
X12644595Y-16868356D02*
X12625548Y-16858832D01*
X12616024Y-16839785D01*
X12616024Y-16668356D01*
X12806500Y-16868356D02*
X12806500Y-16763594D01*
X12796976Y-16744547D01*
X12777928Y-16735023D01*
X12739833Y-16735023D01*
X12720786Y-16744547D01*
X12806500Y-16858832D02*
X12787452Y-16868356D01*
X12739833Y-16868356D01*
X12720786Y-16858832D01*
X12711262Y-16839785D01*
X12711262Y-16820737D01*
X12720786Y-16801690D01*
X12739833Y-16792166D01*
X12787452Y-16792166D01*
X12806500Y-16782642D01*
X12873167Y-16735023D02*
X12949357Y-16735023D01*
X12901738Y-16668356D02*
X12901738Y-16839785D01*
X12911262Y-16858832D01*
X12930309Y-16868356D01*
X12949357Y-16868356D01*
X13092214Y-16858832D02*
X13073167Y-16868356D01*
X13035071Y-16868356D01*
X13016024Y-16858832D01*
X13006500Y-16839785D01*
X13006500Y-16763594D01*
X13016024Y-16744547D01*
X13035071Y-16735023D01*
X13073167Y-16735023D01*
X13092214Y-16744547D01*
X13101738Y-16763594D01*
X13101738Y-16782642D01*
X13006500Y-16801690D01*
X13273167Y-16868356D02*
X13273167Y-16668356D01*
X13273167Y-16858832D02*
X13254119Y-16868356D01*
X13216024Y-16868356D01*
X13196976Y-16858832D01*
X13187452Y-16849309D01*
X13177928Y-16830261D01*
X13177928Y-16773118D01*
X13187452Y-16754070D01*
X13196976Y-16744547D01*
X13216024Y-16735023D01*
X13254119Y-16735023D01*
X13273167Y-16744547D01*
X13349357Y-16944547D02*
X13358881Y-16935023D01*
X13377928Y-16906451D01*
X13387452Y-16887404D01*
X13396976Y-16858832D01*
X13406500Y-16811213D01*
X13406500Y-16773118D01*
X13396976Y-16725499D01*
X13387452Y-16696928D01*
X13377928Y-16677880D01*
X13358881Y-16649308D01*
X13349357Y-16639785D01*
X6567211Y-17143591D02*
X6567211Y-17002169D01*
X6425789Y-17002169D01*
X6425789Y-17143591D01*
X6567211Y-17143591D01*
X6835071Y-16963356D02*
X6958881Y-16963356D01*
X6892214Y-17039547D01*
X6920786Y-17039547D01*
X6939833Y-17049070D01*
X6949357Y-17058594D01*
X6958881Y-17077642D01*
X6958881Y-17125261D01*
X6949357Y-17144309D01*
X6939833Y-17153832D01*
X6920786Y-17163356D01*
X6863643Y-17163356D01*
X6844595Y-17153832D01*
X6835071Y-17144309D01*
X7044595Y-17144309D02*
X7054119Y-17153832D01*
X7044595Y-17163356D01*
X7035071Y-17153832D01*
X7044595Y-17144309D01*
X7044595Y-17163356D01*
X7177928Y-16963356D02*
X7196976Y-16963356D01*
X7216024Y-16972880D01*
X7225548Y-16982404D01*
X7235071Y-17001451D01*
X7244595Y-17039547D01*
X7244595Y-17087166D01*
X7235071Y-17125261D01*
X7225548Y-17144309D01*
X7216024Y-17153832D01*
X7196976Y-17163356D01*
X7177928Y-17163356D01*
X7158881Y-17153832D01*
X7149357Y-17144309D01*
X7139833Y-17125261D01*
X7130309Y-17087166D01*
X7130309Y-17039547D01*
X7139833Y-17001451D01*
X7149357Y-16982404D01*
X7158881Y-16972880D01*
X7177928Y-16963356D01*
X7368405Y-16963356D02*
X7387452Y-16963356D01*
X7406500Y-16972880D01*
X7416024Y-16982404D01*
X7425548Y-17001451D01*
X7435071Y-17039547D01*
X7435071Y-17087166D01*
X7425548Y-17125261D01*
X7416024Y-17144309D01*
X7406500Y-17153832D01*
X7387452Y-17163356D01*
X7368405Y-17163356D01*
X7349357Y-17153832D01*
X7339833Y-17144309D01*
X7330309Y-17125261D01*
X7320786Y-17087166D01*
X7320786Y-17039547D01*
X7330309Y-17001451D01*
X7339833Y-16982404D01*
X7349357Y-16972880D01*
X7368405Y-16963356D01*
X7558881Y-16963356D02*
X7577928Y-16963356D01*
X7596976Y-16972880D01*
X7606500Y-16982404D01*
X7616024Y-17001451D01*
X7625548Y-17039547D01*
X7625548Y-17087166D01*
X7616024Y-17125261D01*
X7606500Y-17144309D01*
X7596976Y-17153832D01*
X7577928Y-17163356D01*
X7558881Y-17163356D01*
X7539833Y-17153832D01*
X7530309Y-17144309D01*
X7520786Y-17125261D01*
X7511262Y-17087166D01*
X7511262Y-17039547D01*
X7520786Y-17001451D01*
X7530309Y-16982404D01*
X7539833Y-16972880D01*
X7558881Y-16963356D01*
X7711262Y-17163356D02*
X7711262Y-17030023D01*
X7711262Y-17049070D02*
X7720786Y-17039547D01*
X7739833Y-17030023D01*
X7768405Y-17030023D01*
X7787452Y-17039547D01*
X7796976Y-17058594D01*
X7796976Y-17163356D01*
X7796976Y-17058594D02*
X7806500Y-17039547D01*
X7825548Y-17030023D01*
X7854119Y-17030023D01*
X7873167Y-17039547D01*
X7882690Y-17058594D01*
X7882690Y-17163356D01*
X7977928Y-17163356D02*
X7977928Y-17030023D01*
X7977928Y-17049070D02*
X7987452Y-17039547D01*
X8006500Y-17030023D01*
X8035071Y-17030023D01*
X8054119Y-17039547D01*
X8063643Y-17058594D01*
X8063643Y-17163356D01*
X8063643Y-17058594D02*
X8073167Y-17039547D01*
X8092214Y-17030023D01*
X8120786Y-17030023D01*
X8139833Y-17039547D01*
X8149357Y-17058594D01*
X8149357Y-17163356D01*
X8539833Y-16953832D02*
X8368405Y-17210975D01*
X8796976Y-16963356D02*
X8816024Y-16963356D01*
X8835071Y-16972880D01*
X8844595Y-16982404D01*
X8854119Y-17001451D01*
X8863643Y-17039547D01*
X8863643Y-17087166D01*
X8854119Y-17125261D01*
X8844595Y-17144309D01*
X8835071Y-17153832D01*
X8816024Y-17163356D01*
X8796976Y-17163356D01*
X8777929Y-17153832D01*
X8768405Y-17144309D01*
X8758881Y-17125261D01*
X8749357Y-17087166D01*
X8749357Y-17039547D01*
X8758881Y-17001451D01*
X8768405Y-16982404D01*
X8777929Y-16972880D01*
X8796976Y-16963356D01*
X8949357Y-17144309D02*
X8958881Y-17153832D01*
X8949357Y-17163356D01*
X8939833Y-17153832D01*
X8949357Y-17144309D01*
X8949357Y-17163356D01*
X9149357Y-17163356D02*
X9035071Y-17163356D01*
X9092214Y-17163356D02*
X9092214Y-16963356D01*
X9073167Y-16991928D01*
X9054119Y-17010975D01*
X9035071Y-17020499D01*
X9339833Y-17163356D02*
X9225548Y-17163356D01*
X9282690Y-17163356D02*
X9282690Y-16963356D01*
X9263643Y-16991928D01*
X9244595Y-17010975D01*
X9225548Y-17020499D01*
X9454119Y-17049070D02*
X9435071Y-17039547D01*
X9425548Y-17030023D01*
X9416024Y-17010975D01*
X9416024Y-17001451D01*
X9425548Y-16982404D01*
X9435071Y-16972880D01*
X9454119Y-16963356D01*
X9492214Y-16963356D01*
X9511262Y-16972880D01*
X9520786Y-16982404D01*
X9530310Y-17001451D01*
X9530310Y-17010975D01*
X9520786Y-17030023D01*
X9511262Y-17039547D01*
X9492214Y-17049070D01*
X9454119Y-17049070D01*
X9435071Y-17058594D01*
X9425548Y-17068118D01*
X9416024Y-17087166D01*
X9416024Y-17125261D01*
X9425548Y-17144309D01*
X9435071Y-17153832D01*
X9454119Y-17163356D01*
X9492214Y-17163356D01*
X9511262Y-17153832D01*
X9520786Y-17144309D01*
X9530310Y-17125261D01*
X9530310Y-17087166D01*
X9520786Y-17068118D01*
X9511262Y-17058594D01*
X9492214Y-17049070D01*
X9720786Y-17163356D02*
X9606500Y-17163356D01*
X9663643Y-17163356D02*
X9663643Y-16963356D01*
X9644595Y-16991928D01*
X9625548Y-17010975D01*
X9606500Y-17020499D01*
X9796976Y-16963356D02*
X9796976Y-17001451D01*
X9873167Y-16963356D02*
X9873167Y-17001451D01*
X10168405Y-17239547D02*
X10158881Y-17230023D01*
X10139833Y-17201451D01*
X10130310Y-17182404D01*
X10120786Y-17153832D01*
X10111262Y-17106213D01*
X10111262Y-17068118D01*
X10120786Y-17020499D01*
X10130310Y-16991928D01*
X10139833Y-16972880D01*
X10158881Y-16944309D01*
X10168405Y-16934785D01*
X10225548Y-16963356D02*
X10349357Y-16963356D01*
X10282690Y-17039547D01*
X10311262Y-17039547D01*
X10330310Y-17049070D01*
X10339833Y-17058594D01*
X10349357Y-17077642D01*
X10349357Y-17125261D01*
X10339833Y-17144309D01*
X10330310Y-17153832D01*
X10311262Y-17163356D01*
X10254119Y-17163356D01*
X10235071Y-17153832D01*
X10225548Y-17144309D01*
X10463643Y-17049070D02*
X10444595Y-17039547D01*
X10435071Y-17030023D01*
X10425548Y-17010975D01*
X10425548Y-17001451D01*
X10435071Y-16982404D01*
X10444595Y-16972880D01*
X10463643Y-16963356D01*
X10501738Y-16963356D01*
X10520786Y-16972880D01*
X10530310Y-16982404D01*
X10539833Y-17001451D01*
X10539833Y-17010975D01*
X10530310Y-17030023D01*
X10520786Y-17039547D01*
X10501738Y-17049070D01*
X10463643Y-17049070D01*
X10444595Y-17058594D01*
X10435071Y-17068118D01*
X10425548Y-17087166D01*
X10425548Y-17125261D01*
X10435071Y-17144309D01*
X10444595Y-17153832D01*
X10463643Y-17163356D01*
X10501738Y-17163356D01*
X10520786Y-17153832D01*
X10530310Y-17144309D01*
X10539833Y-17125261D01*
X10539833Y-17087166D01*
X10530310Y-17068118D01*
X10520786Y-17058594D01*
X10501738Y-17049070D01*
X10777929Y-17163356D02*
X10777929Y-16963356D01*
X10863643Y-17163356D02*
X10863643Y-17058594D01*
X10854119Y-17039547D01*
X10835071Y-17030023D01*
X10806500Y-17030023D01*
X10787452Y-17039547D01*
X10777929Y-17049070D01*
X10987452Y-17163356D02*
X10968405Y-17153832D01*
X10958881Y-17144309D01*
X10949357Y-17125261D01*
X10949357Y-17068118D01*
X10958881Y-17049070D01*
X10968405Y-17039547D01*
X10987452Y-17030023D01*
X11016024Y-17030023D01*
X11035071Y-17039547D01*
X11044595Y-17049070D01*
X11054119Y-17068118D01*
X11054119Y-17125261D01*
X11044595Y-17144309D01*
X11035071Y-17153832D01*
X11016024Y-17163356D01*
X10987452Y-17163356D01*
X11168405Y-17163356D02*
X11149357Y-17153832D01*
X11139833Y-17134785D01*
X11139833Y-16963356D01*
X11320786Y-17153832D02*
X11301738Y-17163356D01*
X11263643Y-17163356D01*
X11244595Y-17153832D01*
X11235071Y-17134785D01*
X11235071Y-17058594D01*
X11244595Y-17039547D01*
X11263643Y-17030023D01*
X11301738Y-17030023D01*
X11320786Y-17039547D01*
X11330309Y-17058594D01*
X11330309Y-17077642D01*
X11235071Y-17096690D01*
X11406500Y-17153832D02*
X11425548Y-17163356D01*
X11463643Y-17163356D01*
X11482690Y-17153832D01*
X11492214Y-17134785D01*
X11492214Y-17125261D01*
X11482690Y-17106213D01*
X11463643Y-17096690D01*
X11435071Y-17096690D01*
X11416024Y-17087166D01*
X11406500Y-17068118D01*
X11406500Y-17058594D01*
X11416024Y-17039547D01*
X11435071Y-17030023D01*
X11463643Y-17030023D01*
X11482690Y-17039547D01*
X11558881Y-17239547D02*
X11568405Y-17230023D01*
X11587452Y-17201451D01*
X11596976Y-17182404D01*
X11606500Y-17153832D01*
X11616024Y-17106213D01*
X11616024Y-17068118D01*
X11606500Y-17020499D01*
X11596976Y-16991928D01*
X11587452Y-16972880D01*
X11568405Y-16944309D01*
X11558881Y-16934785D01*
X11920786Y-17239547D02*
X11911262Y-17230023D01*
X11892214Y-17201451D01*
X11882690Y-17182404D01*
X11873167Y-17153832D01*
X11863643Y-17106213D01*
X11863643Y-17068118D01*
X11873167Y-17020499D01*
X11882690Y-16991928D01*
X11892214Y-16972880D01*
X11911262Y-16944309D01*
X11920786Y-16934785D01*
X11996976Y-17030023D02*
X11996976Y-17163356D01*
X11996976Y-17049070D02*
X12006500Y-17039547D01*
X12025548Y-17030023D01*
X12054119Y-17030023D01*
X12073167Y-17039547D01*
X12082690Y-17058594D01*
X12082690Y-17163356D01*
X12206500Y-17163356D02*
X12187452Y-17153832D01*
X12177928Y-17144309D01*
X12168405Y-17125261D01*
X12168405Y-17068118D01*
X12177928Y-17049070D01*
X12187452Y-17039547D01*
X12206500Y-17030023D01*
X12235071Y-17030023D01*
X12254119Y-17039547D01*
X12263643Y-17049070D01*
X12273167Y-17068118D01*
X12273167Y-17125261D01*
X12263643Y-17144309D01*
X12254119Y-17153832D01*
X12235071Y-17163356D01*
X12206500Y-17163356D01*
X12330309Y-17030023D02*
X12406500Y-17030023D01*
X12358881Y-16963356D02*
X12358881Y-17134785D01*
X12368405Y-17153832D01*
X12387452Y-17163356D01*
X12406500Y-17163356D01*
X12625548Y-17030023D02*
X12625548Y-17230023D01*
X12625548Y-17039547D02*
X12644595Y-17030023D01*
X12682690Y-17030023D01*
X12701738Y-17039547D01*
X12711262Y-17049070D01*
X12720786Y-17068118D01*
X12720786Y-17125261D01*
X12711262Y-17144309D01*
X12701738Y-17153832D01*
X12682690Y-17163356D01*
X12644595Y-17163356D01*
X12625548Y-17153832D01*
X12835071Y-17163356D02*
X12816024Y-17153832D01*
X12806500Y-17134785D01*
X12806500Y-16963356D01*
X12996976Y-17163356D02*
X12996976Y-17058594D01*
X12987452Y-17039547D01*
X12968405Y-17030023D01*
X12930309Y-17030023D01*
X12911262Y-17039547D01*
X12996976Y-17153832D02*
X12977928Y-17163356D01*
X12930309Y-17163356D01*
X12911262Y-17153832D01*
X12901738Y-17134785D01*
X12901738Y-17115737D01*
X12911262Y-17096690D01*
X12930309Y-17087166D01*
X12977928Y-17087166D01*
X12996976Y-17077642D01*
X13063643Y-17030023D02*
X13139833Y-17030023D01*
X13092214Y-16963356D02*
X13092214Y-17134785D01*
X13101738Y-17153832D01*
X13120786Y-17163356D01*
X13139833Y-17163356D01*
X13282690Y-17153832D02*
X13263643Y-17163356D01*
X13225548Y-17163356D01*
X13206500Y-17153832D01*
X13196976Y-17134785D01*
X13196976Y-17058594D01*
X13206500Y-17039547D01*
X13225548Y-17030023D01*
X13263643Y-17030023D01*
X13282690Y-17039547D01*
X13292214Y-17058594D01*
X13292214Y-17077642D01*
X13196976Y-17096690D01*
X13463643Y-17163356D02*
X13463643Y-16963356D01*
X13463643Y-17153832D02*
X13444595Y-17163356D01*
X13406500Y-17163356D01*
X13387452Y-17153832D01*
X13377928Y-17144309D01*
X13368405Y-17125261D01*
X13368405Y-17068118D01*
X13377928Y-17049070D01*
X13387452Y-17039547D01*
X13406500Y-17030023D01*
X13444595Y-17030023D01*
X13463643Y-17039547D01*
X13539833Y-17239547D02*
X13549357Y-17230023D01*
X13568405Y-17201451D01*
X13577928Y-17182404D01*
X13587452Y-17153832D01*
X13596976Y-17106213D01*
X13596976Y-17068118D01*
X13587452Y-17020499D01*
X13577928Y-16991928D01*
X13568405Y-16972880D01*
X13549357Y-16944309D01*
X13539833Y-16934785D01*
X6496500Y-17492880D02*
X6596500Y-17392880D01*
X6496500Y-17292880D01*
X6396500Y-17392880D01*
X6496500Y-17492880D01*
X6835071Y-17283356D02*
X6958881Y-17283356D01*
X6892214Y-17359547D01*
X6920786Y-17359547D01*
X6939833Y-17369070D01*
X6949357Y-17378594D01*
X6958881Y-17397642D01*
X6958881Y-17445261D01*
X6949357Y-17464309D01*
X6939833Y-17473832D01*
X6920786Y-17483356D01*
X6863643Y-17483356D01*
X6844595Y-17473832D01*
X6835071Y-17464309D01*
X7044595Y-17464309D02*
X7054119Y-17473832D01*
X7044595Y-17483356D01*
X7035071Y-17473832D01*
X7044595Y-17464309D01*
X7044595Y-17483356D01*
X7177928Y-17283356D02*
X7196976Y-17283356D01*
X7216024Y-17292880D01*
X7225548Y-17302404D01*
X7235071Y-17321451D01*
X7244595Y-17359547D01*
X7244595Y-17407166D01*
X7235071Y-17445261D01*
X7225548Y-17464309D01*
X7216024Y-17473832D01*
X7196976Y-17483356D01*
X7177928Y-17483356D01*
X7158881Y-17473832D01*
X7149357Y-17464309D01*
X7139833Y-17445261D01*
X7130309Y-17407166D01*
X7130309Y-17359547D01*
X7139833Y-17321451D01*
X7149357Y-17302404D01*
X7158881Y-17292880D01*
X7177928Y-17283356D01*
X7416024Y-17350023D02*
X7416024Y-17483356D01*
X7368405Y-17273832D02*
X7320786Y-17416690D01*
X7444595Y-17416690D01*
X7549357Y-17369070D02*
X7530309Y-17359547D01*
X7520786Y-17350023D01*
X7511262Y-17330975D01*
X7511262Y-17321451D01*
X7520786Y-17302404D01*
X7530309Y-17292880D01*
X7549357Y-17283356D01*
X7587452Y-17283356D01*
X7606500Y-17292880D01*
X7616024Y-17302404D01*
X7625548Y-17321451D01*
X7625548Y-17330975D01*
X7616024Y-17350023D01*
X7606500Y-17359547D01*
X7587452Y-17369070D01*
X7549357Y-17369070D01*
X7530309Y-17378594D01*
X7520786Y-17388118D01*
X7511262Y-17407166D01*
X7511262Y-17445261D01*
X7520786Y-17464309D01*
X7530309Y-17473832D01*
X7549357Y-17483356D01*
X7587452Y-17483356D01*
X7606500Y-17473832D01*
X7616024Y-17464309D01*
X7625548Y-17445261D01*
X7625548Y-17407166D01*
X7616024Y-17388118D01*
X7606500Y-17378594D01*
X7587452Y-17369070D01*
X7711262Y-17483356D02*
X7711262Y-17350023D01*
X7711262Y-17369070D02*
X7720786Y-17359547D01*
X7739833Y-17350023D01*
X7768405Y-17350023D01*
X7787452Y-17359547D01*
X7796976Y-17378594D01*
X7796976Y-17483356D01*
X7796976Y-17378594D02*
X7806500Y-17359547D01*
X7825548Y-17350023D01*
X7854119Y-17350023D01*
X7873167Y-17359547D01*
X7882690Y-17378594D01*
X7882690Y-17483356D01*
X7977928Y-17483356D02*
X7977928Y-17350023D01*
X7977928Y-17369070D02*
X7987452Y-17359547D01*
X8006500Y-17350023D01*
X8035071Y-17350023D01*
X8054119Y-17359547D01*
X8063643Y-17378594D01*
X8063643Y-17483356D01*
X8063643Y-17378594D02*
X8073167Y-17359547D01*
X8092214Y-17350023D01*
X8120786Y-17350023D01*
X8139833Y-17359547D01*
X8149357Y-17378594D01*
X8149357Y-17483356D01*
X8539833Y-17273832D02*
X8368405Y-17530975D01*
X8796976Y-17283356D02*
X8816024Y-17283356D01*
X8835071Y-17292880D01*
X8844595Y-17302404D01*
X8854119Y-17321451D01*
X8863643Y-17359547D01*
X8863643Y-17407166D01*
X8854119Y-17445261D01*
X8844595Y-17464309D01*
X8835071Y-17473832D01*
X8816024Y-17483356D01*
X8796976Y-17483356D01*
X8777929Y-17473832D01*
X8768405Y-17464309D01*
X8758881Y-17445261D01*
X8749357Y-17407166D01*
X8749357Y-17359547D01*
X8758881Y-17321451D01*
X8768405Y-17302404D01*
X8777929Y-17292880D01*
X8796976Y-17283356D01*
X8949357Y-17464309D02*
X8958881Y-17473832D01*
X8949357Y-17483356D01*
X8939833Y-17473832D01*
X8949357Y-17464309D01*
X8949357Y-17483356D01*
X9149357Y-17483356D02*
X9035071Y-17483356D01*
X9092214Y-17483356D02*
X9092214Y-17283356D01*
X9073167Y-17311928D01*
X9054119Y-17330975D01*
X9035071Y-17340499D01*
X9225548Y-17302404D02*
X9235071Y-17292880D01*
X9254119Y-17283356D01*
X9301738Y-17283356D01*
X9320786Y-17292880D01*
X9330310Y-17302404D01*
X9339833Y-17321451D01*
X9339833Y-17340499D01*
X9330310Y-17369070D01*
X9216024Y-17483356D01*
X9339833Y-17483356D01*
X9463643Y-17283356D02*
X9482690Y-17283356D01*
X9501738Y-17292880D01*
X9511262Y-17302404D01*
X9520786Y-17321451D01*
X9530310Y-17359547D01*
X9530310Y-17407166D01*
X9520786Y-17445261D01*
X9511262Y-17464309D01*
X9501738Y-17473832D01*
X9482690Y-17483356D01*
X9463643Y-17483356D01*
X9444595Y-17473832D01*
X9435071Y-17464309D01*
X9425548Y-17445261D01*
X9416024Y-17407166D01*
X9416024Y-17359547D01*
X9425548Y-17321451D01*
X9435071Y-17302404D01*
X9444595Y-17292880D01*
X9463643Y-17283356D01*
X9654119Y-17283356D02*
X9673167Y-17283356D01*
X9692214Y-17292880D01*
X9701738Y-17302404D01*
X9711262Y-17321451D01*
X9720786Y-17359547D01*
X9720786Y-17407166D01*
X9711262Y-17445261D01*
X9701738Y-17464309D01*
X9692214Y-17473832D01*
X9673167Y-17483356D01*
X9654119Y-17483356D01*
X9635071Y-17473832D01*
X9625548Y-17464309D01*
X9616024Y-17445261D01*
X9606500Y-17407166D01*
X9606500Y-17359547D01*
X9616024Y-17321451D01*
X9625548Y-17302404D01*
X9635071Y-17292880D01*
X9654119Y-17283356D01*
X9796976Y-17283356D02*
X9796976Y-17321451D01*
X9873167Y-17283356D02*
X9873167Y-17321451D01*
X10168405Y-17559547D02*
X10158881Y-17550023D01*
X10139833Y-17521451D01*
X10130310Y-17502404D01*
X10120786Y-17473832D01*
X10111262Y-17426213D01*
X10111262Y-17388118D01*
X10120786Y-17340499D01*
X10130310Y-17311928D01*
X10139833Y-17292880D01*
X10158881Y-17264309D01*
X10168405Y-17254785D01*
X10330310Y-17350023D02*
X10330310Y-17483356D01*
X10282690Y-17273832D02*
X10235071Y-17416690D01*
X10358881Y-17416690D01*
X10587452Y-17483356D02*
X10587452Y-17283356D01*
X10673167Y-17483356D02*
X10673167Y-17378594D01*
X10663643Y-17359547D01*
X10644595Y-17350023D01*
X10616024Y-17350023D01*
X10596976Y-17359547D01*
X10587452Y-17369070D01*
X10796976Y-17483356D02*
X10777929Y-17473832D01*
X10768405Y-17464309D01*
X10758881Y-17445261D01*
X10758881Y-17388118D01*
X10768405Y-17369070D01*
X10777929Y-17359547D01*
X10796976Y-17350023D01*
X10825548Y-17350023D01*
X10844595Y-17359547D01*
X10854119Y-17369070D01*
X10863643Y-17388118D01*
X10863643Y-17445261D01*
X10854119Y-17464309D01*
X10844595Y-17473832D01*
X10825548Y-17483356D01*
X10796976Y-17483356D01*
X10977929Y-17483356D02*
X10958881Y-17473832D01*
X10949357Y-17454785D01*
X10949357Y-17283356D01*
X11130310Y-17473832D02*
X11111262Y-17483356D01*
X11073167Y-17483356D01*
X11054119Y-17473832D01*
X11044595Y-17454785D01*
X11044595Y-17378594D01*
X11054119Y-17359547D01*
X11073167Y-17350023D01*
X11111262Y-17350023D01*
X11130310Y-17359547D01*
X11139833Y-17378594D01*
X11139833Y-17397642D01*
X11044595Y-17416690D01*
X11216024Y-17473832D02*
X11235071Y-17483356D01*
X11273167Y-17483356D01*
X11292214Y-17473832D01*
X11301738Y-17454785D01*
X11301738Y-17445261D01*
X11292214Y-17426213D01*
X11273167Y-17416690D01*
X11244595Y-17416690D01*
X11225548Y-17407166D01*
X11216024Y-17388118D01*
X11216024Y-17378594D01*
X11225548Y-17359547D01*
X11244595Y-17350023D01*
X11273167Y-17350023D01*
X11292214Y-17359547D01*
X11368405Y-17559547D02*
X11377928Y-17550023D01*
X11396976Y-17521451D01*
X11406500Y-17502404D01*
X11416024Y-17473832D01*
X11425548Y-17426213D01*
X11425548Y-17388118D01*
X11416024Y-17340499D01*
X11406500Y-17311928D01*
X11396976Y-17292880D01*
X11377928Y-17264309D01*
X11368405Y-17254785D01*
X11730309Y-17559547D02*
X11720786Y-17550023D01*
X11701738Y-17521451D01*
X11692214Y-17502404D01*
X11682690Y-17473832D01*
X11673167Y-17426213D01*
X11673167Y-17388118D01*
X11682690Y-17340499D01*
X11692214Y-17311928D01*
X11701738Y-17292880D01*
X11720786Y-17264309D01*
X11730309Y-17254785D01*
X11806500Y-17350023D02*
X11806500Y-17483356D01*
X11806500Y-17369070D02*
X11816024Y-17359547D01*
X11835071Y-17350023D01*
X11863643Y-17350023D01*
X11882690Y-17359547D01*
X11892214Y-17378594D01*
X11892214Y-17483356D01*
X12016024Y-17483356D02*
X11996976Y-17473832D01*
X11987452Y-17464309D01*
X11977928Y-17445261D01*
X11977928Y-17388118D01*
X11987452Y-17369070D01*
X11996976Y-17359547D01*
X12016024Y-17350023D01*
X12044595Y-17350023D01*
X12063643Y-17359547D01*
X12073167Y-17369070D01*
X12082690Y-17388118D01*
X12082690Y-17445261D01*
X12073167Y-17464309D01*
X12063643Y-17473832D01*
X12044595Y-17483356D01*
X12016024Y-17483356D01*
X12139833Y-17350023D02*
X12216024Y-17350023D01*
X12168405Y-17283356D02*
X12168405Y-17454785D01*
X12177928Y-17473832D01*
X12196976Y-17483356D01*
X12216024Y-17483356D01*
X12435071Y-17350023D02*
X12435071Y-17550023D01*
X12435071Y-17359547D02*
X12454119Y-17350023D01*
X12492214Y-17350023D01*
X12511262Y-17359547D01*
X12520786Y-17369070D01*
X12530309Y-17388118D01*
X12530309Y-17445261D01*
X12520786Y-17464309D01*
X12511262Y-17473832D01*
X12492214Y-17483356D01*
X12454119Y-17483356D01*
X12435071Y-17473832D01*
X12644595Y-17483356D02*
X12625548Y-17473832D01*
X12616024Y-17454785D01*
X12616024Y-17283356D01*
X12806500Y-17483356D02*
X12806500Y-17378594D01*
X12796976Y-17359547D01*
X12777928Y-17350023D01*
X12739833Y-17350023D01*
X12720786Y-17359547D01*
X12806500Y-17473832D02*
X12787452Y-17483356D01*
X12739833Y-17483356D01*
X12720786Y-17473832D01*
X12711262Y-17454785D01*
X12711262Y-17435737D01*
X12720786Y-17416690D01*
X12739833Y-17407166D01*
X12787452Y-17407166D01*
X12806500Y-17397642D01*
X12873167Y-17350023D02*
X12949357Y-17350023D01*
X12901738Y-17283356D02*
X12901738Y-17454785D01*
X12911262Y-17473832D01*
X12930309Y-17483356D01*
X12949357Y-17483356D01*
X13092214Y-17473832D02*
X13073167Y-17483356D01*
X13035071Y-17483356D01*
X13016024Y-17473832D01*
X13006500Y-17454785D01*
X13006500Y-17378594D01*
X13016024Y-17359547D01*
X13035071Y-17350023D01*
X13073167Y-17350023D01*
X13092214Y-17359547D01*
X13101738Y-17378594D01*
X13101738Y-17397642D01*
X13006500Y-17416690D01*
X13273167Y-17483356D02*
X13273167Y-17283356D01*
X13273167Y-17473832D02*
X13254119Y-17483356D01*
X13216024Y-17483356D01*
X13196976Y-17473832D01*
X13187452Y-17464309D01*
X13177928Y-17445261D01*
X13177928Y-17388118D01*
X13187452Y-17369070D01*
X13196976Y-17359547D01*
X13216024Y-17350023D01*
X13254119Y-17350023D01*
X13273167Y-17359547D01*
X13349357Y-17559547D02*
X13358881Y-17550023D01*
X13377928Y-17521451D01*
X13387452Y-17502404D01*
X13396976Y-17473832D01*
X13406500Y-17426213D01*
X13406500Y-17388118D01*
X13396976Y-17340499D01*
X13387452Y-17311928D01*
X13377928Y-17292880D01*
X13358881Y-17264309D01*
X13349357Y-17254785D01*
X6396500Y-17612880D02*
X6596500Y-17812880D01*
X6596500Y-17612880D02*
X6396500Y-17812880D01*
X6596500Y-17712880D02*
G75*
G03*
X6596500Y-17712880I-100000J0D01*
G01*
X6835071Y-17603356D02*
X6958881Y-17603356D01*
X6892214Y-17679547D01*
X6920786Y-17679547D01*
X6939833Y-17689070D01*
X6949357Y-17698594D01*
X6958881Y-17717642D01*
X6958881Y-17765261D01*
X6949357Y-17784309D01*
X6939833Y-17793832D01*
X6920786Y-17803356D01*
X6863643Y-17803356D01*
X6844595Y-17793832D01*
X6835071Y-17784309D01*
X7044595Y-17784309D02*
X7054119Y-17793832D01*
X7044595Y-17803356D01*
X7035071Y-17793832D01*
X7044595Y-17784309D01*
X7044595Y-17803356D01*
X7149357Y-17803356D02*
X7187452Y-17803356D01*
X7206500Y-17793832D01*
X7216024Y-17784309D01*
X7235071Y-17755737D01*
X7244595Y-17717642D01*
X7244595Y-17641451D01*
X7235071Y-17622404D01*
X7225548Y-17612880D01*
X7206500Y-17603356D01*
X7168405Y-17603356D01*
X7149357Y-17612880D01*
X7139833Y-17622404D01*
X7130309Y-17641451D01*
X7130309Y-17689070D01*
X7139833Y-17708118D01*
X7149357Y-17717642D01*
X7168405Y-17727166D01*
X7206500Y-17727166D01*
X7225548Y-17717642D01*
X7235071Y-17708118D01*
X7244595Y-17689070D01*
X7358881Y-17689070D02*
X7339833Y-17679547D01*
X7330309Y-17670023D01*
X7320786Y-17650975D01*
X7320786Y-17641451D01*
X7330309Y-17622404D01*
X7339833Y-17612880D01*
X7358881Y-17603356D01*
X7396976Y-17603356D01*
X7416024Y-17612880D01*
X7425548Y-17622404D01*
X7435071Y-17641451D01*
X7435071Y-17650975D01*
X7425548Y-17670023D01*
X7416024Y-17679547D01*
X7396976Y-17689070D01*
X7358881Y-17689070D01*
X7339833Y-17698594D01*
X7330309Y-17708118D01*
X7320786Y-17727166D01*
X7320786Y-17765261D01*
X7330309Y-17784309D01*
X7339833Y-17793832D01*
X7358881Y-17803356D01*
X7396976Y-17803356D01*
X7416024Y-17793832D01*
X7425548Y-17784309D01*
X7435071Y-17765261D01*
X7435071Y-17727166D01*
X7425548Y-17708118D01*
X7416024Y-17698594D01*
X7396976Y-17689070D01*
X7549357Y-17689070D02*
X7530309Y-17679547D01*
X7520786Y-17670023D01*
X7511262Y-17650975D01*
X7511262Y-17641451D01*
X7520786Y-17622404D01*
X7530309Y-17612880D01*
X7549357Y-17603356D01*
X7587452Y-17603356D01*
X7606500Y-17612880D01*
X7616024Y-17622404D01*
X7625548Y-17641451D01*
X7625548Y-17650975D01*
X7616024Y-17670023D01*
X7606500Y-17679547D01*
X7587452Y-17689070D01*
X7549357Y-17689070D01*
X7530309Y-17698594D01*
X7520786Y-17708118D01*
X7511262Y-17727166D01*
X7511262Y-17765261D01*
X7520786Y-17784309D01*
X7530309Y-17793832D01*
X7549357Y-17803356D01*
X7587452Y-17803356D01*
X7606500Y-17793832D01*
X7616024Y-17784309D01*
X7625548Y-17765261D01*
X7625548Y-17727166D01*
X7616024Y-17708118D01*
X7606500Y-17698594D01*
X7587452Y-17689070D01*
X7711262Y-17803356D02*
X7711262Y-17670023D01*
X7711262Y-17689070D02*
X7720786Y-17679547D01*
X7739833Y-17670023D01*
X7768405Y-17670023D01*
X7787452Y-17679547D01*
X7796976Y-17698594D01*
X7796976Y-17803356D01*
X7796976Y-17698594D02*
X7806500Y-17679547D01*
X7825548Y-17670023D01*
X7854119Y-17670023D01*
X7873167Y-17679547D01*
X7882690Y-17698594D01*
X7882690Y-17803356D01*
X7977928Y-17803356D02*
X7977928Y-17670023D01*
X7977928Y-17689070D02*
X7987452Y-17679547D01*
X8006500Y-17670023D01*
X8035071Y-17670023D01*
X8054119Y-17679547D01*
X8063643Y-17698594D01*
X8063643Y-17803356D01*
X8063643Y-17698594D02*
X8073167Y-17679547D01*
X8092214Y-17670023D01*
X8120786Y-17670023D01*
X8139833Y-17679547D01*
X8149357Y-17698594D01*
X8149357Y-17803356D01*
X8539833Y-17593832D02*
X8368405Y-17850975D01*
X8796976Y-17603356D02*
X8816024Y-17603356D01*
X8835071Y-17612880D01*
X8844595Y-17622404D01*
X8854119Y-17641451D01*
X8863643Y-17679547D01*
X8863643Y-17727166D01*
X8854119Y-17765261D01*
X8844595Y-17784309D01*
X8835071Y-17793832D01*
X8816024Y-17803356D01*
X8796976Y-17803356D01*
X8777929Y-17793832D01*
X8768405Y-17784309D01*
X8758881Y-17765261D01*
X8749357Y-17727166D01*
X8749357Y-17679547D01*
X8758881Y-17641451D01*
X8768405Y-17622404D01*
X8777929Y-17612880D01*
X8796976Y-17603356D01*
X8949357Y-17784309D02*
X8958881Y-17793832D01*
X8949357Y-17803356D01*
X8939833Y-17793832D01*
X8949357Y-17784309D01*
X8949357Y-17803356D01*
X9149357Y-17803356D02*
X9035071Y-17803356D01*
X9092214Y-17803356D02*
X9092214Y-17603356D01*
X9073167Y-17631928D01*
X9054119Y-17650975D01*
X9035071Y-17660499D01*
X9330310Y-17603356D02*
X9235071Y-17603356D01*
X9225548Y-17698594D01*
X9235071Y-17689070D01*
X9254119Y-17679547D01*
X9301738Y-17679547D01*
X9320786Y-17689070D01*
X9330310Y-17698594D01*
X9339833Y-17717642D01*
X9339833Y-17765261D01*
X9330310Y-17784309D01*
X9320786Y-17793832D01*
X9301738Y-17803356D01*
X9254119Y-17803356D01*
X9235071Y-17793832D01*
X9225548Y-17784309D01*
X9406500Y-17603356D02*
X9539833Y-17603356D01*
X9454119Y-17803356D01*
X9654119Y-17603356D02*
X9673167Y-17603356D01*
X9692214Y-17612880D01*
X9701738Y-17622404D01*
X9711262Y-17641451D01*
X9720786Y-17679547D01*
X9720786Y-17727166D01*
X9711262Y-17765261D01*
X9701738Y-17784309D01*
X9692214Y-17793832D01*
X9673167Y-17803356D01*
X9654119Y-17803356D01*
X9635071Y-17793832D01*
X9625548Y-17784309D01*
X9616024Y-17765261D01*
X9606500Y-17727166D01*
X9606500Y-17679547D01*
X9616024Y-17641451D01*
X9625548Y-17622404D01*
X9635071Y-17612880D01*
X9654119Y-17603356D01*
X9796976Y-17603356D02*
X9796976Y-17641451D01*
X9873167Y-17603356D02*
X9873167Y-17641451D01*
X10168405Y-17879547D02*
X10158881Y-17870023D01*
X10139833Y-17841451D01*
X10130310Y-17822404D01*
X10120786Y-17793832D01*
X10111262Y-17746213D01*
X10111262Y-17708118D01*
X10120786Y-17660499D01*
X10130310Y-17631928D01*
X10139833Y-17612880D01*
X10158881Y-17584309D01*
X10168405Y-17574785D01*
X10235071Y-17622404D02*
X10244595Y-17612880D01*
X10263643Y-17603356D01*
X10311262Y-17603356D01*
X10330310Y-17612880D01*
X10339833Y-17622404D01*
X10349357Y-17641451D01*
X10349357Y-17660499D01*
X10339833Y-17689070D01*
X10225548Y-17803356D01*
X10349357Y-17803356D01*
X10416024Y-17603356D02*
X10539833Y-17603356D01*
X10473167Y-17679547D01*
X10501738Y-17679547D01*
X10520786Y-17689070D01*
X10530310Y-17698594D01*
X10539833Y-17717642D01*
X10539833Y-17765261D01*
X10530310Y-17784309D01*
X10520786Y-17793832D01*
X10501738Y-17803356D01*
X10444595Y-17803356D01*
X10425548Y-17793832D01*
X10416024Y-17784309D01*
X10777929Y-17803356D02*
X10777929Y-17603356D01*
X10863643Y-17803356D02*
X10863643Y-17698594D01*
X10854119Y-17679547D01*
X10835071Y-17670023D01*
X10806500Y-17670023D01*
X10787452Y-17679547D01*
X10777929Y-17689070D01*
X10987452Y-17803356D02*
X10968405Y-17793832D01*
X10958881Y-17784309D01*
X10949357Y-17765261D01*
X10949357Y-17708118D01*
X10958881Y-17689070D01*
X10968405Y-17679547D01*
X10987452Y-17670023D01*
X11016024Y-17670023D01*
X11035071Y-17679547D01*
X11044595Y-17689070D01*
X11054119Y-17708118D01*
X11054119Y-17765261D01*
X11044595Y-17784309D01*
X11035071Y-17793832D01*
X11016024Y-17803356D01*
X10987452Y-17803356D01*
X11168405Y-17803356D02*
X11149357Y-17793832D01*
X11139833Y-17774785D01*
X11139833Y-17603356D01*
X11320786Y-17793832D02*
X11301738Y-17803356D01*
X11263643Y-17803356D01*
X11244595Y-17793832D01*
X11235071Y-17774785D01*
X11235071Y-17698594D01*
X11244595Y-17679547D01*
X11263643Y-17670023D01*
X11301738Y-17670023D01*
X11320786Y-17679547D01*
X11330309Y-17698594D01*
X11330309Y-17717642D01*
X11235071Y-17736690D01*
X11406500Y-17793832D02*
X11425548Y-17803356D01*
X11463643Y-17803356D01*
X11482690Y-17793832D01*
X11492214Y-17774785D01*
X11492214Y-17765261D01*
X11482690Y-17746213D01*
X11463643Y-17736690D01*
X11435071Y-17736690D01*
X11416024Y-17727166D01*
X11406500Y-17708118D01*
X11406500Y-17698594D01*
X11416024Y-17679547D01*
X11435071Y-17670023D01*
X11463643Y-17670023D01*
X11482690Y-17679547D01*
X11558881Y-17879547D02*
X11568405Y-17870023D01*
X11587452Y-17841451D01*
X11596976Y-17822404D01*
X11606500Y-17793832D01*
X11616024Y-17746213D01*
X11616024Y-17708118D01*
X11606500Y-17660499D01*
X11596976Y-17631928D01*
X11587452Y-17612880D01*
X11568405Y-17584309D01*
X11558881Y-17574785D01*
X11920786Y-17879547D02*
X11911262Y-17870023D01*
X11892214Y-17841451D01*
X11882690Y-17822404D01*
X11873167Y-17793832D01*
X11863643Y-17746213D01*
X11863643Y-17708118D01*
X11873167Y-17660499D01*
X11882690Y-17631928D01*
X11892214Y-17612880D01*
X11911262Y-17584309D01*
X11920786Y-17574785D01*
X11996976Y-17670023D02*
X11996976Y-17803356D01*
X11996976Y-17689070D02*
X12006500Y-17679547D01*
X12025548Y-17670023D01*
X12054119Y-17670023D01*
X12073167Y-17679547D01*
X12082690Y-17698594D01*
X12082690Y-17803356D01*
X12206500Y-17803356D02*
X12187452Y-17793832D01*
X12177928Y-17784309D01*
X12168405Y-17765261D01*
X12168405Y-17708118D01*
X12177928Y-17689070D01*
X12187452Y-17679547D01*
X12206500Y-17670023D01*
X12235071Y-17670023D01*
X12254119Y-17679547D01*
X12263643Y-17689070D01*
X12273167Y-17708118D01*
X12273167Y-17765261D01*
X12263643Y-17784309D01*
X12254119Y-17793832D01*
X12235071Y-17803356D01*
X12206500Y-17803356D01*
X12330309Y-17670023D02*
X12406500Y-17670023D01*
X12358881Y-17603356D02*
X12358881Y-17774785D01*
X12368405Y-17793832D01*
X12387452Y-17803356D01*
X12406500Y-17803356D01*
X12625548Y-17670023D02*
X12625548Y-17870023D01*
X12625548Y-17679547D02*
X12644595Y-17670023D01*
X12682690Y-17670023D01*
X12701738Y-17679547D01*
X12711262Y-17689070D01*
X12720786Y-17708118D01*
X12720786Y-17765261D01*
X12711262Y-17784309D01*
X12701738Y-17793832D01*
X12682690Y-17803356D01*
X12644595Y-17803356D01*
X12625548Y-17793832D01*
X12835071Y-17803356D02*
X12816024Y-17793832D01*
X12806500Y-17774785D01*
X12806500Y-17603356D01*
X12996976Y-17803356D02*
X12996976Y-17698594D01*
X12987452Y-17679547D01*
X12968405Y-17670023D01*
X12930309Y-17670023D01*
X12911262Y-17679547D01*
X12996976Y-17793832D02*
X12977928Y-17803356D01*
X12930309Y-17803356D01*
X12911262Y-17793832D01*
X12901738Y-17774785D01*
X12901738Y-17755737D01*
X12911262Y-17736690D01*
X12930309Y-17727166D01*
X12977928Y-17727166D01*
X12996976Y-17717642D01*
X13063643Y-17670023D02*
X13139833Y-17670023D01*
X13092214Y-17603356D02*
X13092214Y-17774785D01*
X13101738Y-17793832D01*
X13120786Y-17803356D01*
X13139833Y-17803356D01*
X13282690Y-17793832D02*
X13263643Y-17803356D01*
X13225548Y-17803356D01*
X13206500Y-17793832D01*
X13196976Y-17774785D01*
X13196976Y-17698594D01*
X13206500Y-17679547D01*
X13225548Y-17670023D01*
X13263643Y-17670023D01*
X13282690Y-17679547D01*
X13292214Y-17698594D01*
X13292214Y-17717642D01*
X13196976Y-17736690D01*
X13463643Y-17803356D02*
X13463643Y-17603356D01*
X13463643Y-17793832D02*
X13444595Y-17803356D01*
X13406500Y-17803356D01*
X13387452Y-17793832D01*
X13377928Y-17784309D01*
X13368405Y-17765261D01*
X13368405Y-17708118D01*
X13377928Y-17689070D01*
X13387452Y-17679547D01*
X13406500Y-17670023D01*
X13444595Y-17670023D01*
X13463643Y-17679547D01*
X13539833Y-17879547D02*
X13549357Y-17870023D01*
X13568405Y-17841451D01*
X13577928Y-17822404D01*
X13587452Y-17793832D01*
X13596976Y-17746213D01*
X13596976Y-17708118D01*
X13587452Y-17660499D01*
X13577928Y-17631928D01*
X13568405Y-17612880D01*
X13549357Y-17584309D01*
X13539833Y-17574785D01*
M02*
