%FSLAX45Y45*%
G04 Gerber Fmt 4.5, Leading zero omitted, Abs format (unit mm)*
G04 Created by KiCad (PCBNEW (6.0.0)) date 2023-01-06 10:55:56*
%MOMM*%
%LPD*%
G01*
G04 APERTURE LIST*
%TA.AperFunction,Profile*%
%ADD10C,0.150000*%
%TD*%
%ADD11C,0.200000*%
%ADD12C,0.030000*%
%ADD13C,0.040000*%
%ADD14C,0.100000*%
%ADD15C,0.109220*%
%ADD16C,0.110000*%
G04 APERTURE END LIST*
D10*
X15900400Y-15570200D02*
G75*
G03*
X16052800Y-15417800I0J152400D01*
G01*
X15875000Y-6070600D02*
X6756400Y-6070600D01*
X8407400Y-15392400D02*
G75*
G03*
X8585200Y-15570200I177800J0D01*
G01*
X6604000Y-11895822D02*
X6604000Y-6223000D01*
X6756400Y-6070600D02*
G75*
G03*
X6604000Y-6223000I0J-152400D01*
G01*
X6604000Y-11895822D02*
G75*
G03*
X6731000Y-12022822I127000J0D01*
G01*
X8407400Y-15392400D02*
X8412000Y-12132000D01*
X16052800Y-6248400D02*
G75*
G03*
X15875000Y-6070600I-177800J0D01*
G01*
X8585200Y-15570200D02*
X15900400Y-15570200D01*
X8412000Y-12132000D02*
G75*
G03*
X8307000Y-12024000I-96555J11169D01*
G01*
X16052800Y-15417800D02*
X16052800Y-6248400D01*
X8307000Y-12024000D02*
X6731000Y-12022822D01*
D11*
D12*
X6844500Y-10750000D02*
X6874500Y-10780000D01*
X6874500Y-10750000D02*
X6844500Y-10780000D01*
X8137200Y-10496000D02*
X8167200Y-10526000D01*
X8167200Y-10496000D02*
X8137200Y-10526000D01*
D13*
X7119300Y-7861300D02*
G75*
G03*
X7119300Y-7861300I-20000J0D01*
G01*
X7817800Y-7670800D02*
G75*
G03*
X7817800Y-7670800I-20000J0D01*
G01*
X7987000Y-10092450D02*
G75*
G03*
X7987000Y-10092450I-20000J0D01*
G01*
X8126000Y-8018000D02*
G75*
G03*
X8126000Y-8018000I-20000J0D01*
G01*
X8426000Y-9636000D02*
G75*
G03*
X8426000Y-9636000I-20000J0D01*
G01*
X8518000Y-10223500D02*
G75*
G03*
X8518000Y-10223500I-20000J0D01*
G01*
X8518000Y-11671300D02*
G75*
G03*
X8518000Y-11671300I-20000J0D01*
G01*
X8607000Y-7816000D02*
G75*
G03*
X8607000Y-7816000I-20000J0D01*
G01*
X8652000Y-9555000D02*
G75*
G03*
X8652000Y-9555000I-20000J0D01*
G01*
X8726000Y-7949000D02*
G75*
G03*
X8726000Y-7949000I-20000J0D01*
G01*
X8742000Y-9485000D02*
G75*
G03*
X8742000Y-9485000I-20000J0D01*
G01*
X8808400Y-9867900D02*
G75*
G03*
X8808400Y-9867900I-20000J0D01*
G01*
X8817335Y-8048035D02*
G75*
G03*
X8817335Y-8048035I-20000J0D01*
G01*
X8960800Y-7797800D02*
G75*
G03*
X8960800Y-7797800I-20000J0D01*
G01*
X9062400Y-9969500D02*
G75*
G03*
X9062400Y-9969500I-20000J0D01*
G01*
X9379900Y-11722100D02*
G75*
G03*
X9379900Y-11722100I-20000J0D01*
G01*
X9405300Y-15062200D02*
G75*
G03*
X9405300Y-15062200I-20000J0D01*
G01*
X9595800Y-9969500D02*
G75*
G03*
X9595800Y-9969500I-20000J0D01*
G01*
X9608500Y-11722100D02*
G75*
G03*
X9608500Y-11722100I-20000J0D01*
G01*
X9762000Y-9211000D02*
G75*
G03*
X9762000Y-9211000I-20000J0D01*
G01*
X9824400Y-7797800D02*
G75*
G03*
X9824400Y-7797800I-20000J0D01*
G01*
X9887900Y-8191500D02*
G75*
G03*
X9887900Y-8191500I-20000J0D01*
G01*
X10055984Y-8392875D02*
G75*
G03*
X10055984Y-8392875I-20000J0D01*
G01*
X10055984Y-10297875D02*
G75*
G03*
X10055984Y-10297875I-20000J0D01*
G01*
X10078000Y-6502400D02*
G75*
G03*
X10078000Y-6502400I-20000J0D01*
G01*
X10078000Y-12217400D02*
G75*
G03*
X10078000Y-12217400I-20000J0D01*
G01*
X10078000Y-14122400D02*
G75*
G03*
X10078000Y-14122400I-20000J0D01*
G01*
X10116500Y-9563100D02*
G75*
G03*
X10116500Y-9563100I-20000J0D01*
G01*
X10116500Y-11480800D02*
G75*
G03*
X10116500Y-11480800I-20000J0D01*
G01*
X10116500Y-13373100D02*
G75*
G03*
X10116500Y-13373100I-20000J0D01*
G01*
X10370500Y-8178800D02*
G75*
G03*
X10370500Y-8178800I-20000J0D01*
G01*
X10370500Y-10083800D02*
G75*
G03*
X10370500Y-10083800I-20000J0D01*
G01*
X10370500Y-12039600D02*
G75*
G03*
X10370500Y-12039600I-20000J0D01*
G01*
X10624500Y-9563100D02*
G75*
G03*
X10624500Y-9563100I-20000J0D01*
G01*
X10624500Y-11480800D02*
G75*
G03*
X10624500Y-11480800I-20000J0D01*
G01*
X10624500Y-13373100D02*
G75*
G03*
X10624500Y-13373100I-20000J0D01*
G01*
X10751500Y-9232900D02*
G75*
G03*
X10751500Y-9232900I-20000J0D01*
G01*
X11005500Y-9867900D02*
G75*
G03*
X11005500Y-9867900I-20000J0D01*
G01*
X11056300Y-7962900D02*
G75*
G03*
X11056300Y-7962900I-20000J0D01*
G01*
X11210000Y-11980000D02*
G75*
G03*
X11210000Y-11980000I-20000J0D01*
G01*
X11843700Y-9194800D02*
G75*
G03*
X11843700Y-9194800I-20000J0D01*
G01*
X11983000Y-6502400D02*
G75*
G03*
X11983000Y-6502400I-20000J0D01*
G01*
X11983000Y-8407400D02*
G75*
G03*
X11983000Y-8407400I-20000J0D01*
G01*
X11983000Y-10312400D02*
G75*
G03*
X11983000Y-10312400I-20000J0D01*
G01*
X11983000Y-12217400D02*
G75*
G03*
X11983000Y-12217400I-20000J0D01*
G01*
X11983000Y-14122400D02*
G75*
G03*
X11983000Y-14122400I-20000J0D01*
G01*
X12605700Y-9220200D02*
G75*
G03*
X12605700Y-9220200I-20000J0D01*
G01*
X13532800Y-9867900D02*
G75*
G03*
X13532800Y-9867900I-20000J0D01*
G01*
X13545500Y-11772900D02*
G75*
G03*
X13545500Y-11772900I-20000J0D01*
G01*
X13558200Y-8661400D02*
G75*
G03*
X13558200Y-8661400I-20000J0D01*
G01*
X13685200Y-8191500D02*
G75*
G03*
X13685200Y-8191500I-20000J0D01*
G01*
X13685200Y-10109200D02*
G75*
G03*
X13685200Y-10109200I-20000J0D01*
G01*
X13685200Y-12026900D02*
G75*
G03*
X13685200Y-12026900I-20000J0D01*
G01*
X13761400Y-13423900D02*
G75*
G03*
X13761400Y-13423900I-20000J0D01*
G01*
X13888000Y-6502400D02*
G75*
G03*
X13888000Y-6502400I-20000J0D01*
G01*
X13888000Y-14122400D02*
G75*
G03*
X13888000Y-14122400I-20000J0D01*
G01*
X13926090Y-8418607D02*
G75*
G03*
X13926090Y-8418607I-20000J0D01*
G01*
X13926090Y-10312400D02*
G75*
G03*
X13926090Y-10312400I-20000J0D01*
G01*
X13933115Y-12172285D02*
G75*
G03*
X13933115Y-12172285I-20000J0D01*
G01*
X14180500Y-9601200D02*
G75*
G03*
X14180500Y-9601200I-20000J0D01*
G01*
X14180500Y-11493500D02*
G75*
G03*
X14180500Y-11493500I-20000J0D01*
G01*
X14180500Y-13436600D02*
G75*
G03*
X14180500Y-13436600I-20000J0D01*
G01*
X14421800Y-10198100D02*
G75*
G03*
X14421800Y-10198100I-20000J0D01*
G01*
X14421800Y-12103100D02*
G75*
G03*
X14421800Y-12103100I-20000J0D01*
G01*
X14434500Y-8267700D02*
G75*
G03*
X14434500Y-8267700I-20000J0D01*
G01*
X15491000Y-11831600D02*
G75*
G03*
X15491000Y-11831600I-20000J0D01*
G01*
X15641000Y-10527900D02*
G75*
G03*
X15641000Y-10527900I-20000J0D01*
G01*
X15641000Y-14337900D02*
G75*
G03*
X15641000Y-14337900I-20000J0D01*
G01*
X15793000Y-6502400D02*
G75*
G03*
X15793000Y-6502400I-20000J0D01*
G01*
D14*
X7137400Y-9716300D02*
X7137400Y-9816300D01*
X7087400Y-9766300D02*
X7187400Y-9766300D01*
X7318000Y-10219000D02*
X7318000Y-10319000D01*
X7268000Y-10269000D02*
X7368000Y-10269000D01*
X7318000Y-11669000D02*
X7318000Y-11769000D01*
X7268000Y-11719000D02*
X7368000Y-11719000D01*
X7391400Y-9716300D02*
X7391400Y-9816300D01*
X7341400Y-9766300D02*
X7441400Y-9766300D01*
X7568000Y-10219000D02*
X7568000Y-10319000D01*
X7518000Y-10269000D02*
X7618000Y-10269000D01*
X7645400Y-9716300D02*
X7645400Y-9816300D01*
X7595400Y-9766300D02*
X7695400Y-9766300D01*
X7818000Y-10219000D02*
X7818000Y-10319000D01*
X7768000Y-10269000D02*
X7868000Y-10269000D01*
X7818000Y-11669000D02*
X7818000Y-11769000D01*
X7768000Y-11719000D02*
X7868000Y-11719000D01*
X7899400Y-9716300D02*
X7899400Y-9816300D01*
X7849400Y-9766300D02*
X7949400Y-9766300D01*
D15*
X6795015Y-6502915D02*
X6795015Y-6425684D01*
X6717784Y-6425684D01*
X6717784Y-6502915D01*
X6795015Y-6502915D01*
X6795015Y-6756915D02*
X6795015Y-6679684D01*
X6717784Y-6679684D01*
X6717784Y-6756915D01*
X6795015Y-6756915D01*
X6795015Y-7010915D02*
X6795015Y-6933684D01*
X6717784Y-6933684D01*
X6717784Y-7010915D01*
X6795015Y-7010915D01*
X6795015Y-7264915D02*
X6795015Y-7187684D01*
X6717784Y-7187684D01*
X6717784Y-7264915D01*
X6795015Y-7264915D01*
X6795015Y-7518915D02*
X6795015Y-7441684D01*
X6717784Y-7441684D01*
X6717784Y-7518915D01*
X6795015Y-7518915D01*
X6795015Y-7772915D02*
X6795015Y-7695684D01*
X6717784Y-7695684D01*
X6717784Y-7772915D01*
X6795015Y-7772915D01*
X6795015Y-8026915D02*
X6795015Y-7949684D01*
X6717784Y-7949684D01*
X6717784Y-8026915D01*
X6795015Y-8026915D01*
X6795015Y-8280915D02*
X6795015Y-8203684D01*
X6717784Y-8203684D01*
X6717784Y-8280915D01*
X6795015Y-8280915D01*
X6795015Y-8534916D02*
X6795015Y-8457685D01*
X6717784Y-8457685D01*
X6717784Y-8534916D01*
X6795015Y-8534916D01*
X6795015Y-8788916D02*
X6795015Y-8711685D01*
X6717784Y-8711685D01*
X6717784Y-8788916D01*
X6795015Y-8788916D01*
X6795015Y-9042916D02*
X6795015Y-8965685D01*
X6717784Y-8965685D01*
X6717784Y-9042916D01*
X6795015Y-9042916D01*
X6795015Y-9296916D02*
X6795015Y-9219685D01*
X6717784Y-9219685D01*
X6717784Y-9296916D01*
X6795015Y-9296916D01*
X8319015Y-6502915D02*
X8319015Y-6425684D01*
X8241784Y-6425684D01*
X8241784Y-6502915D01*
X8319015Y-6502915D01*
X8319015Y-6756915D02*
X8319015Y-6679684D01*
X8241784Y-6679684D01*
X8241784Y-6756915D01*
X8319015Y-6756915D01*
X8319015Y-7010915D02*
X8319015Y-6933684D01*
X8241784Y-6933684D01*
X8241784Y-7010915D01*
X8319015Y-7010915D01*
X8319015Y-7264915D02*
X8319015Y-7187684D01*
X8241784Y-7187684D01*
X8241784Y-7264915D01*
X8319015Y-7264915D01*
X8319015Y-7518915D02*
X8319015Y-7441684D01*
X8241784Y-7441684D01*
X8241784Y-7518915D01*
X8319015Y-7518915D01*
X8319015Y-7772915D02*
X8319015Y-7695684D01*
X8241784Y-7695684D01*
X8241784Y-7772915D01*
X8319015Y-7772915D01*
X8319015Y-8026915D02*
X8319015Y-7949684D01*
X8241784Y-7949684D01*
X8241784Y-8026915D01*
X8319015Y-8026915D01*
X8319015Y-8280915D02*
X8319015Y-8203684D01*
X8241784Y-8203684D01*
X8241784Y-8280915D01*
X8319015Y-8280915D01*
X8319015Y-8534916D02*
X8319015Y-8457685D01*
X8241784Y-8457685D01*
X8241784Y-8534916D01*
X8319015Y-8534916D01*
X8319015Y-8788916D02*
X8319015Y-8711685D01*
X8241784Y-8711685D01*
X8241784Y-8788916D01*
X8319015Y-8788916D01*
X8319015Y-9042916D02*
X8319015Y-8965685D01*
X8241784Y-8965685D01*
X8241784Y-9042916D01*
X8319015Y-9042916D01*
X8319015Y-9296916D02*
X8319015Y-9219685D01*
X8241784Y-9219685D01*
X8241784Y-9296916D01*
X8319015Y-9296916D01*
D16*
X7309700Y-6758300D02*
X7364700Y-6703300D01*
X7309700Y-6648300D01*
X7254700Y-6703300D01*
X7309700Y-6758300D01*
X7309700Y-7408300D02*
X7364700Y-7353300D01*
X7309700Y-7298300D01*
X7254700Y-7353300D01*
X7309700Y-7408300D01*
X7759700Y-6758300D02*
X7814700Y-6703300D01*
X7759700Y-6648300D01*
X7704700Y-6703300D01*
X7759700Y-6758300D01*
X7759700Y-7408300D02*
X7814700Y-7353300D01*
X7759700Y-7298300D01*
X7704700Y-7353300D01*
X7759700Y-7408300D01*
D11*
X6854119Y-15888176D02*
X6854119Y-15688176D01*
X6901738Y-15688176D01*
X6930309Y-15697700D01*
X6949357Y-15716748D01*
X6958881Y-15735795D01*
X6968405Y-15773890D01*
X6968405Y-15802462D01*
X6958881Y-15840557D01*
X6949357Y-15859605D01*
X6930309Y-15878652D01*
X6901738Y-15888176D01*
X6854119Y-15888176D01*
X7054119Y-15888176D02*
X7054119Y-15754843D01*
X7054119Y-15792938D02*
X7063643Y-15773890D01*
X7073167Y-15764367D01*
X7092214Y-15754843D01*
X7111262Y-15754843D01*
X7177928Y-15888176D02*
X7177928Y-15754843D01*
X7177928Y-15688176D02*
X7168405Y-15697700D01*
X7177928Y-15707224D01*
X7187452Y-15697700D01*
X7177928Y-15688176D01*
X7177928Y-15707224D01*
X7301738Y-15888176D02*
X7282690Y-15878652D01*
X7273167Y-15859605D01*
X7273167Y-15688176D01*
X7406500Y-15888176D02*
X7387452Y-15878652D01*
X7377928Y-15859605D01*
X7377928Y-15688176D01*
X7635071Y-15888176D02*
X7635071Y-15688176D01*
X7701738Y-15831033D01*
X7768405Y-15688176D01*
X7768405Y-15888176D01*
X7949357Y-15888176D02*
X7949357Y-15783414D01*
X7939833Y-15764367D01*
X7920786Y-15754843D01*
X7882690Y-15754843D01*
X7863643Y-15764367D01*
X7949357Y-15878652D02*
X7930309Y-15888176D01*
X7882690Y-15888176D01*
X7863643Y-15878652D01*
X7854119Y-15859605D01*
X7854119Y-15840557D01*
X7863643Y-15821509D01*
X7882690Y-15811986D01*
X7930309Y-15811986D01*
X7949357Y-15802462D01*
X8044595Y-15754843D02*
X8044595Y-15954843D01*
X8044595Y-15764367D02*
X8063643Y-15754843D01*
X8101738Y-15754843D01*
X8120786Y-15764367D01*
X8130309Y-15773890D01*
X8139833Y-15792938D01*
X8139833Y-15850081D01*
X8130309Y-15869128D01*
X8120786Y-15878652D01*
X8101738Y-15888176D01*
X8063643Y-15888176D01*
X8044595Y-15878652D01*
X8225548Y-15869128D02*
X8235071Y-15878652D01*
X8225548Y-15888176D01*
X8216024Y-15878652D01*
X8225548Y-15869128D01*
X8225548Y-15888176D01*
X8225548Y-15764367D02*
X8235071Y-15773890D01*
X8225548Y-15783414D01*
X8216024Y-15773890D01*
X8225548Y-15764367D01*
X8225548Y-15783414D01*
D12*
X6566500Y-16202700D02*
X6596500Y-16232700D01*
X6596500Y-16202700D02*
X6566500Y-16232700D01*
D11*
X6892214Y-16108176D02*
X6911262Y-16108176D01*
X6930309Y-16117700D01*
X6939833Y-16127224D01*
X6949357Y-16146271D01*
X6958881Y-16184367D01*
X6958881Y-16231986D01*
X6949357Y-16270081D01*
X6939833Y-16289128D01*
X6930309Y-16298652D01*
X6911262Y-16308176D01*
X6892214Y-16308176D01*
X6873167Y-16298652D01*
X6863643Y-16289128D01*
X6854119Y-16270081D01*
X6844595Y-16231986D01*
X6844595Y-16184367D01*
X6854119Y-16146271D01*
X6863643Y-16127224D01*
X6873167Y-16117700D01*
X6892214Y-16108176D01*
X7044595Y-16289128D02*
X7054119Y-16298652D01*
X7044595Y-16308176D01*
X7035071Y-16298652D01*
X7044595Y-16289128D01*
X7044595Y-16308176D01*
X7120786Y-16108176D02*
X7244595Y-16108176D01*
X7177928Y-16184367D01*
X7206500Y-16184367D01*
X7225548Y-16193890D01*
X7235071Y-16203414D01*
X7244595Y-16222462D01*
X7244595Y-16270081D01*
X7235071Y-16289128D01*
X7225548Y-16298652D01*
X7206500Y-16308176D01*
X7149357Y-16308176D01*
X7130309Y-16298652D01*
X7120786Y-16289128D01*
X7368405Y-16108176D02*
X7387452Y-16108176D01*
X7406500Y-16117700D01*
X7416024Y-16127224D01*
X7425548Y-16146271D01*
X7435071Y-16184367D01*
X7435071Y-16231986D01*
X7425548Y-16270081D01*
X7416024Y-16289128D01*
X7406500Y-16298652D01*
X7387452Y-16308176D01*
X7368405Y-16308176D01*
X7349357Y-16298652D01*
X7339833Y-16289128D01*
X7330309Y-16270081D01*
X7320786Y-16231986D01*
X7320786Y-16184367D01*
X7330309Y-16146271D01*
X7339833Y-16127224D01*
X7349357Y-16117700D01*
X7368405Y-16108176D01*
X7558881Y-16108176D02*
X7577928Y-16108176D01*
X7596976Y-16117700D01*
X7606500Y-16127224D01*
X7616024Y-16146271D01*
X7625548Y-16184367D01*
X7625548Y-16231986D01*
X7616024Y-16270081D01*
X7606500Y-16289128D01*
X7596976Y-16298652D01*
X7577928Y-16308176D01*
X7558881Y-16308176D01*
X7539833Y-16298652D01*
X7530309Y-16289128D01*
X7520786Y-16270081D01*
X7511262Y-16231986D01*
X7511262Y-16184367D01*
X7520786Y-16146271D01*
X7530309Y-16127224D01*
X7539833Y-16117700D01*
X7558881Y-16108176D01*
X7711262Y-16308176D02*
X7711262Y-16174843D01*
X7711262Y-16193890D02*
X7720786Y-16184367D01*
X7739833Y-16174843D01*
X7768405Y-16174843D01*
X7787452Y-16184367D01*
X7796976Y-16203414D01*
X7796976Y-16308176D01*
X7796976Y-16203414D02*
X7806500Y-16184367D01*
X7825548Y-16174843D01*
X7854119Y-16174843D01*
X7873167Y-16184367D01*
X7882690Y-16203414D01*
X7882690Y-16308176D01*
X7977928Y-16308176D02*
X7977928Y-16174843D01*
X7977928Y-16193890D02*
X7987452Y-16184367D01*
X8006500Y-16174843D01*
X8035071Y-16174843D01*
X8054119Y-16184367D01*
X8063643Y-16203414D01*
X8063643Y-16308176D01*
X8063643Y-16203414D02*
X8073167Y-16184367D01*
X8092214Y-16174843D01*
X8120786Y-16174843D01*
X8139833Y-16184367D01*
X8149357Y-16203414D01*
X8149357Y-16308176D01*
X8539833Y-16098652D02*
X8368405Y-16355795D01*
X8796976Y-16108176D02*
X8816024Y-16108176D01*
X8835071Y-16117700D01*
X8844595Y-16127224D01*
X8854119Y-16146271D01*
X8863643Y-16184367D01*
X8863643Y-16231986D01*
X8854119Y-16270081D01*
X8844595Y-16289128D01*
X8835071Y-16298652D01*
X8816024Y-16308176D01*
X8796976Y-16308176D01*
X8777929Y-16298652D01*
X8768405Y-16289128D01*
X8758881Y-16270081D01*
X8749357Y-16231986D01*
X8749357Y-16184367D01*
X8758881Y-16146271D01*
X8768405Y-16127224D01*
X8777929Y-16117700D01*
X8796976Y-16108176D01*
X8949357Y-16289128D02*
X8958881Y-16298652D01*
X8949357Y-16308176D01*
X8939833Y-16298652D01*
X8949357Y-16289128D01*
X8949357Y-16308176D01*
X9082690Y-16108176D02*
X9101738Y-16108176D01*
X9120786Y-16117700D01*
X9130310Y-16127224D01*
X9139833Y-16146271D01*
X9149357Y-16184367D01*
X9149357Y-16231986D01*
X9139833Y-16270081D01*
X9130310Y-16289128D01*
X9120786Y-16298652D01*
X9101738Y-16308176D01*
X9082690Y-16308176D01*
X9063643Y-16298652D01*
X9054119Y-16289128D01*
X9044595Y-16270081D01*
X9035071Y-16231986D01*
X9035071Y-16184367D01*
X9044595Y-16146271D01*
X9054119Y-16127224D01*
X9063643Y-16117700D01*
X9082690Y-16108176D01*
X9339833Y-16308176D02*
X9225548Y-16308176D01*
X9282690Y-16308176D02*
X9282690Y-16108176D01*
X9263643Y-16136748D01*
X9244595Y-16155795D01*
X9225548Y-16165319D01*
X9530310Y-16308176D02*
X9416024Y-16308176D01*
X9473167Y-16308176D02*
X9473167Y-16108176D01*
X9454119Y-16136748D01*
X9435071Y-16155795D01*
X9416024Y-16165319D01*
X9644595Y-16193890D02*
X9625548Y-16184367D01*
X9616024Y-16174843D01*
X9606500Y-16155795D01*
X9606500Y-16146271D01*
X9616024Y-16127224D01*
X9625548Y-16117700D01*
X9644595Y-16108176D01*
X9682690Y-16108176D01*
X9701738Y-16117700D01*
X9711262Y-16127224D01*
X9720786Y-16146271D01*
X9720786Y-16155795D01*
X9711262Y-16174843D01*
X9701738Y-16184367D01*
X9682690Y-16193890D01*
X9644595Y-16193890D01*
X9625548Y-16203414D01*
X9616024Y-16212938D01*
X9606500Y-16231986D01*
X9606500Y-16270081D01*
X9616024Y-16289128D01*
X9625548Y-16298652D01*
X9644595Y-16308176D01*
X9682690Y-16308176D01*
X9701738Y-16298652D01*
X9711262Y-16289128D01*
X9720786Y-16270081D01*
X9720786Y-16231986D01*
X9711262Y-16212938D01*
X9701738Y-16203414D01*
X9682690Y-16193890D01*
X9796976Y-16108176D02*
X9796976Y-16146271D01*
X9873167Y-16108176D02*
X9873167Y-16146271D01*
X10168405Y-16384367D02*
X10158881Y-16374843D01*
X10139833Y-16346271D01*
X10130310Y-16327224D01*
X10120786Y-16298652D01*
X10111262Y-16251033D01*
X10111262Y-16212938D01*
X10120786Y-16165319D01*
X10130310Y-16136748D01*
X10139833Y-16117700D01*
X10158881Y-16089128D01*
X10168405Y-16079605D01*
X10235071Y-16127224D02*
X10244595Y-16117700D01*
X10263643Y-16108176D01*
X10311262Y-16108176D01*
X10330310Y-16117700D01*
X10339833Y-16127224D01*
X10349357Y-16146271D01*
X10349357Y-16165319D01*
X10339833Y-16193890D01*
X10225548Y-16308176D01*
X10349357Y-16308176D01*
X10587452Y-16308176D02*
X10587452Y-16108176D01*
X10673167Y-16308176D02*
X10673167Y-16203414D01*
X10663643Y-16184367D01*
X10644595Y-16174843D01*
X10616024Y-16174843D01*
X10596976Y-16184367D01*
X10587452Y-16193890D01*
X10796976Y-16308176D02*
X10777929Y-16298652D01*
X10768405Y-16289128D01*
X10758881Y-16270081D01*
X10758881Y-16212938D01*
X10768405Y-16193890D01*
X10777929Y-16184367D01*
X10796976Y-16174843D01*
X10825548Y-16174843D01*
X10844595Y-16184367D01*
X10854119Y-16193890D01*
X10863643Y-16212938D01*
X10863643Y-16270081D01*
X10854119Y-16289128D01*
X10844595Y-16298652D01*
X10825548Y-16308176D01*
X10796976Y-16308176D01*
X10977929Y-16308176D02*
X10958881Y-16298652D01*
X10949357Y-16279605D01*
X10949357Y-16108176D01*
X11130310Y-16298652D02*
X11111262Y-16308176D01*
X11073167Y-16308176D01*
X11054119Y-16298652D01*
X11044595Y-16279605D01*
X11044595Y-16203414D01*
X11054119Y-16184367D01*
X11073167Y-16174843D01*
X11111262Y-16174843D01*
X11130310Y-16184367D01*
X11139833Y-16203414D01*
X11139833Y-16222462D01*
X11044595Y-16241509D01*
X11216024Y-16298652D02*
X11235071Y-16308176D01*
X11273167Y-16308176D01*
X11292214Y-16298652D01*
X11301738Y-16279605D01*
X11301738Y-16270081D01*
X11292214Y-16251033D01*
X11273167Y-16241509D01*
X11244595Y-16241509D01*
X11225548Y-16231986D01*
X11216024Y-16212938D01*
X11216024Y-16203414D01*
X11225548Y-16184367D01*
X11244595Y-16174843D01*
X11273167Y-16174843D01*
X11292214Y-16184367D01*
X11368405Y-16384367D02*
X11377928Y-16374843D01*
X11396976Y-16346271D01*
X11406500Y-16327224D01*
X11416024Y-16298652D01*
X11425548Y-16251033D01*
X11425548Y-16212938D01*
X11416024Y-16165319D01*
X11406500Y-16136748D01*
X11396976Y-16117700D01*
X11377928Y-16089128D01*
X11368405Y-16079605D01*
D13*
X6596500Y-16481700D02*
G75*
G03*
X6596500Y-16481700I-20000J0D01*
G01*
D11*
X6892214Y-16372176D02*
X6911262Y-16372176D01*
X6930309Y-16381700D01*
X6939833Y-16391224D01*
X6949357Y-16410271D01*
X6958881Y-16448367D01*
X6958881Y-16495986D01*
X6949357Y-16534081D01*
X6939833Y-16553128D01*
X6930309Y-16562652D01*
X6911262Y-16572176D01*
X6892214Y-16572176D01*
X6873167Y-16562652D01*
X6863643Y-16553128D01*
X6854119Y-16534081D01*
X6844595Y-16495986D01*
X6844595Y-16448367D01*
X6854119Y-16410271D01*
X6863643Y-16391224D01*
X6873167Y-16381700D01*
X6892214Y-16372176D01*
X7044595Y-16553128D02*
X7054119Y-16562652D01*
X7044595Y-16572176D01*
X7035071Y-16562652D01*
X7044595Y-16553128D01*
X7044595Y-16572176D01*
X7225548Y-16438843D02*
X7225548Y-16572176D01*
X7177928Y-16362652D02*
X7130309Y-16505509D01*
X7254119Y-16505509D01*
X7368405Y-16372176D02*
X7387452Y-16372176D01*
X7406500Y-16381700D01*
X7416024Y-16391224D01*
X7425548Y-16410271D01*
X7435071Y-16448367D01*
X7435071Y-16495986D01*
X7425548Y-16534081D01*
X7416024Y-16553128D01*
X7406500Y-16562652D01*
X7387452Y-16572176D01*
X7368405Y-16572176D01*
X7349357Y-16562652D01*
X7339833Y-16553128D01*
X7330309Y-16534081D01*
X7320786Y-16495986D01*
X7320786Y-16448367D01*
X7330309Y-16410271D01*
X7339833Y-16391224D01*
X7349357Y-16381700D01*
X7368405Y-16372176D01*
X7558881Y-16372176D02*
X7577928Y-16372176D01*
X7596976Y-16381700D01*
X7606500Y-16391224D01*
X7616024Y-16410271D01*
X7625548Y-16448367D01*
X7625548Y-16495986D01*
X7616024Y-16534081D01*
X7606500Y-16553128D01*
X7596976Y-16562652D01*
X7577928Y-16572176D01*
X7558881Y-16572176D01*
X7539833Y-16562652D01*
X7530309Y-16553128D01*
X7520786Y-16534081D01*
X7511262Y-16495986D01*
X7511262Y-16448367D01*
X7520786Y-16410271D01*
X7530309Y-16391224D01*
X7539833Y-16381700D01*
X7558881Y-16372176D01*
X7711262Y-16572176D02*
X7711262Y-16438843D01*
X7711262Y-16457890D02*
X7720786Y-16448367D01*
X7739833Y-16438843D01*
X7768405Y-16438843D01*
X7787452Y-16448367D01*
X7796976Y-16467414D01*
X7796976Y-16572176D01*
X7796976Y-16467414D02*
X7806500Y-16448367D01*
X7825548Y-16438843D01*
X7854119Y-16438843D01*
X7873167Y-16448367D01*
X7882690Y-16467414D01*
X7882690Y-16572176D01*
X7977928Y-16572176D02*
X7977928Y-16438843D01*
X7977928Y-16457890D02*
X7987452Y-16448367D01*
X8006500Y-16438843D01*
X8035071Y-16438843D01*
X8054119Y-16448367D01*
X8063643Y-16467414D01*
X8063643Y-16572176D01*
X8063643Y-16467414D02*
X8073167Y-16448367D01*
X8092214Y-16438843D01*
X8120786Y-16438843D01*
X8139833Y-16448367D01*
X8149357Y-16467414D01*
X8149357Y-16572176D01*
X8539833Y-16362652D02*
X8368405Y-16619795D01*
X8796976Y-16372176D02*
X8816024Y-16372176D01*
X8835071Y-16381700D01*
X8844595Y-16391224D01*
X8854119Y-16410271D01*
X8863643Y-16448367D01*
X8863643Y-16495986D01*
X8854119Y-16534081D01*
X8844595Y-16553128D01*
X8835071Y-16562652D01*
X8816024Y-16572176D01*
X8796976Y-16572176D01*
X8777929Y-16562652D01*
X8768405Y-16553128D01*
X8758881Y-16534081D01*
X8749357Y-16495986D01*
X8749357Y-16448367D01*
X8758881Y-16410271D01*
X8768405Y-16391224D01*
X8777929Y-16381700D01*
X8796976Y-16372176D01*
X8949357Y-16553128D02*
X8958881Y-16562652D01*
X8949357Y-16572176D01*
X8939833Y-16562652D01*
X8949357Y-16553128D01*
X8949357Y-16572176D01*
X9082690Y-16372176D02*
X9101738Y-16372176D01*
X9120786Y-16381700D01*
X9130310Y-16391224D01*
X9139833Y-16410271D01*
X9149357Y-16448367D01*
X9149357Y-16495986D01*
X9139833Y-16534081D01*
X9130310Y-16553128D01*
X9120786Y-16562652D01*
X9101738Y-16572176D01*
X9082690Y-16572176D01*
X9063643Y-16562652D01*
X9054119Y-16553128D01*
X9044595Y-16534081D01*
X9035071Y-16495986D01*
X9035071Y-16448367D01*
X9044595Y-16410271D01*
X9054119Y-16391224D01*
X9063643Y-16381700D01*
X9082690Y-16372176D01*
X9339833Y-16572176D02*
X9225548Y-16572176D01*
X9282690Y-16572176D02*
X9282690Y-16372176D01*
X9263643Y-16400748D01*
X9244595Y-16419795D01*
X9225548Y-16429319D01*
X9520786Y-16372176D02*
X9425548Y-16372176D01*
X9416024Y-16467414D01*
X9425548Y-16457890D01*
X9444595Y-16448367D01*
X9492214Y-16448367D01*
X9511262Y-16457890D01*
X9520786Y-16467414D01*
X9530310Y-16486462D01*
X9530310Y-16534081D01*
X9520786Y-16553128D01*
X9511262Y-16562652D01*
X9492214Y-16572176D01*
X9444595Y-16572176D01*
X9425548Y-16562652D01*
X9416024Y-16553128D01*
X9596976Y-16372176D02*
X9730310Y-16372176D01*
X9644595Y-16572176D01*
X9796976Y-16372176D02*
X9796976Y-16410271D01*
X9873167Y-16372176D02*
X9873167Y-16410271D01*
X10168405Y-16648367D02*
X10158881Y-16638843D01*
X10139833Y-16610271D01*
X10130310Y-16591224D01*
X10120786Y-16562652D01*
X10111262Y-16515033D01*
X10111262Y-16476938D01*
X10120786Y-16429319D01*
X10130310Y-16400748D01*
X10139833Y-16381700D01*
X10158881Y-16353128D01*
X10168405Y-16343605D01*
X10330310Y-16372176D02*
X10292214Y-16372176D01*
X10273167Y-16381700D01*
X10263643Y-16391224D01*
X10244595Y-16419795D01*
X10235071Y-16457890D01*
X10235071Y-16534081D01*
X10244595Y-16553128D01*
X10254119Y-16562652D01*
X10273167Y-16572176D01*
X10311262Y-16572176D01*
X10330310Y-16562652D01*
X10339833Y-16553128D01*
X10349357Y-16534081D01*
X10349357Y-16486462D01*
X10339833Y-16467414D01*
X10330310Y-16457890D01*
X10311262Y-16448367D01*
X10273167Y-16448367D01*
X10254119Y-16457890D01*
X10244595Y-16467414D01*
X10235071Y-16486462D01*
X10444595Y-16572176D02*
X10482690Y-16572176D01*
X10501738Y-16562652D01*
X10511262Y-16553128D01*
X10530310Y-16524557D01*
X10539833Y-16486462D01*
X10539833Y-16410271D01*
X10530310Y-16391224D01*
X10520786Y-16381700D01*
X10501738Y-16372176D01*
X10463643Y-16372176D01*
X10444595Y-16381700D01*
X10435071Y-16391224D01*
X10425548Y-16410271D01*
X10425548Y-16457890D01*
X10435071Y-16476938D01*
X10444595Y-16486462D01*
X10463643Y-16495986D01*
X10501738Y-16495986D01*
X10520786Y-16486462D01*
X10530310Y-16476938D01*
X10539833Y-16457890D01*
X10777929Y-16572176D02*
X10777929Y-16372176D01*
X10863643Y-16572176D02*
X10863643Y-16467414D01*
X10854119Y-16448367D01*
X10835071Y-16438843D01*
X10806500Y-16438843D01*
X10787452Y-16448367D01*
X10777929Y-16457890D01*
X10987452Y-16572176D02*
X10968405Y-16562652D01*
X10958881Y-16553128D01*
X10949357Y-16534081D01*
X10949357Y-16476938D01*
X10958881Y-16457890D01*
X10968405Y-16448367D01*
X10987452Y-16438843D01*
X11016024Y-16438843D01*
X11035071Y-16448367D01*
X11044595Y-16457890D01*
X11054119Y-16476938D01*
X11054119Y-16534081D01*
X11044595Y-16553128D01*
X11035071Y-16562652D01*
X11016024Y-16572176D01*
X10987452Y-16572176D01*
X11168405Y-16572176D02*
X11149357Y-16562652D01*
X11139833Y-16543605D01*
X11139833Y-16372176D01*
X11320786Y-16562652D02*
X11301738Y-16572176D01*
X11263643Y-16572176D01*
X11244595Y-16562652D01*
X11235071Y-16543605D01*
X11235071Y-16467414D01*
X11244595Y-16448367D01*
X11263643Y-16438843D01*
X11301738Y-16438843D01*
X11320786Y-16448367D01*
X11330309Y-16467414D01*
X11330309Y-16486462D01*
X11235071Y-16505509D01*
X11406500Y-16562652D02*
X11425548Y-16572176D01*
X11463643Y-16572176D01*
X11482690Y-16562652D01*
X11492214Y-16543605D01*
X11492214Y-16534081D01*
X11482690Y-16515033D01*
X11463643Y-16505509D01*
X11435071Y-16505509D01*
X11416024Y-16495986D01*
X11406500Y-16476938D01*
X11406500Y-16467414D01*
X11416024Y-16448367D01*
X11435071Y-16438843D01*
X11463643Y-16438843D01*
X11482690Y-16448367D01*
X11558881Y-16648367D02*
X11568405Y-16638843D01*
X11587452Y-16610271D01*
X11596976Y-16591224D01*
X11606500Y-16562652D01*
X11616024Y-16515033D01*
X11616024Y-16476938D01*
X11606500Y-16429319D01*
X11596976Y-16400748D01*
X11587452Y-16381700D01*
X11568405Y-16353128D01*
X11558881Y-16343605D01*
D14*
X6546500Y-16695700D02*
X6546500Y-16795700D01*
X6496500Y-16745700D02*
X6596500Y-16745700D01*
D11*
X6958881Y-16836176D02*
X6844595Y-16836176D01*
X6901738Y-16836176D02*
X6901738Y-16636176D01*
X6882690Y-16664748D01*
X6863643Y-16683795D01*
X6844595Y-16693319D01*
X7044595Y-16817129D02*
X7054119Y-16826652D01*
X7044595Y-16836176D01*
X7035071Y-16826652D01*
X7044595Y-16817129D01*
X7044595Y-16836176D01*
X7177928Y-16636176D02*
X7196976Y-16636176D01*
X7216024Y-16645700D01*
X7225548Y-16655224D01*
X7235071Y-16674271D01*
X7244595Y-16712367D01*
X7244595Y-16759986D01*
X7235071Y-16798081D01*
X7225548Y-16817129D01*
X7216024Y-16826652D01*
X7196976Y-16836176D01*
X7177928Y-16836176D01*
X7158881Y-16826652D01*
X7149357Y-16817129D01*
X7139833Y-16798081D01*
X7130309Y-16759986D01*
X7130309Y-16712367D01*
X7139833Y-16674271D01*
X7149357Y-16655224D01*
X7158881Y-16645700D01*
X7177928Y-16636176D01*
X7368405Y-16636176D02*
X7387452Y-16636176D01*
X7406500Y-16645700D01*
X7416024Y-16655224D01*
X7425548Y-16674271D01*
X7435071Y-16712367D01*
X7435071Y-16759986D01*
X7425548Y-16798081D01*
X7416024Y-16817129D01*
X7406500Y-16826652D01*
X7387452Y-16836176D01*
X7368405Y-16836176D01*
X7349357Y-16826652D01*
X7339833Y-16817129D01*
X7330309Y-16798081D01*
X7320786Y-16759986D01*
X7320786Y-16712367D01*
X7330309Y-16674271D01*
X7339833Y-16655224D01*
X7349357Y-16645700D01*
X7368405Y-16636176D01*
X7558881Y-16636176D02*
X7577928Y-16636176D01*
X7596976Y-16645700D01*
X7606500Y-16655224D01*
X7616024Y-16674271D01*
X7625548Y-16712367D01*
X7625548Y-16759986D01*
X7616024Y-16798081D01*
X7606500Y-16817129D01*
X7596976Y-16826652D01*
X7577928Y-16836176D01*
X7558881Y-16836176D01*
X7539833Y-16826652D01*
X7530309Y-16817129D01*
X7520786Y-16798081D01*
X7511262Y-16759986D01*
X7511262Y-16712367D01*
X7520786Y-16674271D01*
X7530309Y-16655224D01*
X7539833Y-16645700D01*
X7558881Y-16636176D01*
X7711262Y-16836176D02*
X7711262Y-16702843D01*
X7711262Y-16721890D02*
X7720786Y-16712367D01*
X7739833Y-16702843D01*
X7768405Y-16702843D01*
X7787452Y-16712367D01*
X7796976Y-16731414D01*
X7796976Y-16836176D01*
X7796976Y-16731414D02*
X7806500Y-16712367D01*
X7825548Y-16702843D01*
X7854119Y-16702843D01*
X7873167Y-16712367D01*
X7882690Y-16731414D01*
X7882690Y-16836176D01*
X7977928Y-16836176D02*
X7977928Y-16702843D01*
X7977928Y-16721890D02*
X7987452Y-16712367D01*
X8006500Y-16702843D01*
X8035071Y-16702843D01*
X8054119Y-16712367D01*
X8063643Y-16731414D01*
X8063643Y-16836176D01*
X8063643Y-16731414D02*
X8073167Y-16712367D01*
X8092214Y-16702843D01*
X8120786Y-16702843D01*
X8139833Y-16712367D01*
X8149357Y-16731414D01*
X8149357Y-16836176D01*
X8539833Y-16626652D02*
X8368405Y-16883795D01*
X8796976Y-16636176D02*
X8816024Y-16636176D01*
X8835071Y-16645700D01*
X8844595Y-16655224D01*
X8854119Y-16674271D01*
X8863643Y-16712367D01*
X8863643Y-16759986D01*
X8854119Y-16798081D01*
X8844595Y-16817129D01*
X8835071Y-16826652D01*
X8816024Y-16836176D01*
X8796976Y-16836176D01*
X8777929Y-16826652D01*
X8768405Y-16817129D01*
X8758881Y-16798081D01*
X8749357Y-16759986D01*
X8749357Y-16712367D01*
X8758881Y-16674271D01*
X8768405Y-16655224D01*
X8777929Y-16645700D01*
X8796976Y-16636176D01*
X8949357Y-16817129D02*
X8958881Y-16826652D01*
X8949357Y-16836176D01*
X8939833Y-16826652D01*
X8949357Y-16817129D01*
X8949357Y-16836176D01*
X9082690Y-16636176D02*
X9101738Y-16636176D01*
X9120786Y-16645700D01*
X9130310Y-16655224D01*
X9139833Y-16674271D01*
X9149357Y-16712367D01*
X9149357Y-16759986D01*
X9139833Y-16798081D01*
X9130310Y-16817129D01*
X9120786Y-16826652D01*
X9101738Y-16836176D01*
X9082690Y-16836176D01*
X9063643Y-16826652D01*
X9054119Y-16817129D01*
X9044595Y-16798081D01*
X9035071Y-16759986D01*
X9035071Y-16712367D01*
X9044595Y-16674271D01*
X9054119Y-16655224D01*
X9063643Y-16645700D01*
X9082690Y-16636176D01*
X9216024Y-16636176D02*
X9339833Y-16636176D01*
X9273167Y-16712367D01*
X9301738Y-16712367D01*
X9320786Y-16721890D01*
X9330310Y-16731414D01*
X9339833Y-16750462D01*
X9339833Y-16798081D01*
X9330310Y-16817129D01*
X9320786Y-16826652D01*
X9301738Y-16836176D01*
X9244595Y-16836176D01*
X9225548Y-16826652D01*
X9216024Y-16817129D01*
X9435071Y-16836176D02*
X9473167Y-16836176D01*
X9492214Y-16826652D01*
X9501738Y-16817129D01*
X9520786Y-16788557D01*
X9530310Y-16750462D01*
X9530310Y-16674271D01*
X9520786Y-16655224D01*
X9511262Y-16645700D01*
X9492214Y-16636176D01*
X9454119Y-16636176D01*
X9435071Y-16645700D01*
X9425548Y-16655224D01*
X9416024Y-16674271D01*
X9416024Y-16721890D01*
X9425548Y-16740938D01*
X9435071Y-16750462D01*
X9454119Y-16759986D01*
X9492214Y-16759986D01*
X9511262Y-16750462D01*
X9520786Y-16740938D01*
X9530310Y-16721890D01*
X9701738Y-16702843D02*
X9701738Y-16836176D01*
X9654119Y-16626652D02*
X9606500Y-16769509D01*
X9730310Y-16769509D01*
X9796976Y-16636176D02*
X9796976Y-16674271D01*
X9873167Y-16636176D02*
X9873167Y-16674271D01*
X10168405Y-16912367D02*
X10158881Y-16902843D01*
X10139833Y-16874271D01*
X10130310Y-16855224D01*
X10120786Y-16826652D01*
X10111262Y-16779033D01*
X10111262Y-16740938D01*
X10120786Y-16693319D01*
X10130310Y-16664748D01*
X10139833Y-16645700D01*
X10158881Y-16617128D01*
X10168405Y-16607605D01*
X10254119Y-16836176D02*
X10292214Y-16836176D01*
X10311262Y-16826652D01*
X10320786Y-16817129D01*
X10339833Y-16788557D01*
X10349357Y-16750462D01*
X10349357Y-16674271D01*
X10339833Y-16655224D01*
X10330310Y-16645700D01*
X10311262Y-16636176D01*
X10273167Y-16636176D01*
X10254119Y-16645700D01*
X10244595Y-16655224D01*
X10235071Y-16674271D01*
X10235071Y-16721890D01*
X10244595Y-16740938D01*
X10254119Y-16750462D01*
X10273167Y-16759986D01*
X10311262Y-16759986D01*
X10330310Y-16750462D01*
X10339833Y-16740938D01*
X10349357Y-16721890D01*
X10587452Y-16836176D02*
X10587452Y-16636176D01*
X10673167Y-16836176D02*
X10673167Y-16731414D01*
X10663643Y-16712367D01*
X10644595Y-16702843D01*
X10616024Y-16702843D01*
X10596976Y-16712367D01*
X10587452Y-16721890D01*
X10796976Y-16836176D02*
X10777929Y-16826652D01*
X10768405Y-16817129D01*
X10758881Y-16798081D01*
X10758881Y-16740938D01*
X10768405Y-16721890D01*
X10777929Y-16712367D01*
X10796976Y-16702843D01*
X10825548Y-16702843D01*
X10844595Y-16712367D01*
X10854119Y-16721890D01*
X10863643Y-16740938D01*
X10863643Y-16798081D01*
X10854119Y-16817129D01*
X10844595Y-16826652D01*
X10825548Y-16836176D01*
X10796976Y-16836176D01*
X10977929Y-16836176D02*
X10958881Y-16826652D01*
X10949357Y-16807605D01*
X10949357Y-16636176D01*
X11130310Y-16826652D02*
X11111262Y-16836176D01*
X11073167Y-16836176D01*
X11054119Y-16826652D01*
X11044595Y-16807605D01*
X11044595Y-16731414D01*
X11054119Y-16712367D01*
X11073167Y-16702843D01*
X11111262Y-16702843D01*
X11130310Y-16712367D01*
X11139833Y-16731414D01*
X11139833Y-16750462D01*
X11044595Y-16769509D01*
X11216024Y-16826652D02*
X11235071Y-16836176D01*
X11273167Y-16836176D01*
X11292214Y-16826652D01*
X11301738Y-16807605D01*
X11301738Y-16798081D01*
X11292214Y-16779033D01*
X11273167Y-16769509D01*
X11244595Y-16769509D01*
X11225548Y-16759986D01*
X11216024Y-16740938D01*
X11216024Y-16731414D01*
X11225548Y-16712367D01*
X11244595Y-16702843D01*
X11273167Y-16702843D01*
X11292214Y-16712367D01*
X11368405Y-16912367D02*
X11377928Y-16902843D01*
X11396976Y-16874271D01*
X11406500Y-16855224D01*
X11416024Y-16826652D01*
X11425548Y-16779033D01*
X11425548Y-16740938D01*
X11416024Y-16693319D01*
X11406500Y-16664748D01*
X11396976Y-16645700D01*
X11377928Y-16617128D01*
X11368405Y-16607605D01*
D15*
X6580505Y-17048316D02*
X6580505Y-16971085D01*
X6503274Y-16971085D01*
X6503274Y-17048316D01*
X6580505Y-17048316D01*
D11*
X6958881Y-17100176D02*
X6844595Y-17100176D01*
X6901738Y-17100176D02*
X6901738Y-16900176D01*
X6882690Y-16928748D01*
X6863643Y-16947795D01*
X6844595Y-16957319D01*
X7044595Y-17081129D02*
X7054119Y-17090652D01*
X7044595Y-17100176D01*
X7035071Y-17090652D01*
X7044595Y-17081129D01*
X7044595Y-17100176D01*
X7177928Y-16900176D02*
X7196976Y-16900176D01*
X7216024Y-16909700D01*
X7225548Y-16919224D01*
X7235071Y-16938271D01*
X7244595Y-16976367D01*
X7244595Y-17023986D01*
X7235071Y-17062081D01*
X7225548Y-17081129D01*
X7216024Y-17090652D01*
X7196976Y-17100176D01*
X7177928Y-17100176D01*
X7158881Y-17090652D01*
X7149357Y-17081129D01*
X7139833Y-17062081D01*
X7130309Y-17023986D01*
X7130309Y-16976367D01*
X7139833Y-16938271D01*
X7149357Y-16919224D01*
X7158881Y-16909700D01*
X7177928Y-16900176D01*
X7339833Y-17100176D02*
X7377928Y-17100176D01*
X7396976Y-17090652D01*
X7406500Y-17081129D01*
X7425548Y-17052557D01*
X7435071Y-17014462D01*
X7435071Y-16938271D01*
X7425548Y-16919224D01*
X7416024Y-16909700D01*
X7396976Y-16900176D01*
X7358881Y-16900176D01*
X7339833Y-16909700D01*
X7330309Y-16919224D01*
X7320786Y-16938271D01*
X7320786Y-16985890D01*
X7330309Y-17004938D01*
X7339833Y-17014462D01*
X7358881Y-17023986D01*
X7396976Y-17023986D01*
X7416024Y-17014462D01*
X7425548Y-17004938D01*
X7435071Y-16985890D01*
X7511262Y-16919224D02*
X7520786Y-16909700D01*
X7539833Y-16900176D01*
X7587452Y-16900176D01*
X7606500Y-16909700D01*
X7616024Y-16919224D01*
X7625548Y-16938271D01*
X7625548Y-16957319D01*
X7616024Y-16985890D01*
X7501738Y-17100176D01*
X7625548Y-17100176D01*
X7711262Y-17100176D02*
X7711262Y-16966843D01*
X7711262Y-16985890D02*
X7720786Y-16976367D01*
X7739833Y-16966843D01*
X7768405Y-16966843D01*
X7787452Y-16976367D01*
X7796976Y-16995414D01*
X7796976Y-17100176D01*
X7796976Y-16995414D02*
X7806500Y-16976367D01*
X7825548Y-16966843D01*
X7854119Y-16966843D01*
X7873167Y-16976367D01*
X7882690Y-16995414D01*
X7882690Y-17100176D01*
X7977928Y-17100176D02*
X7977928Y-16966843D01*
X7977928Y-16985890D02*
X7987452Y-16976367D01*
X8006500Y-16966843D01*
X8035071Y-16966843D01*
X8054119Y-16976367D01*
X8063643Y-16995414D01*
X8063643Y-17100176D01*
X8063643Y-16995414D02*
X8073167Y-16976367D01*
X8092214Y-16966843D01*
X8120786Y-16966843D01*
X8139833Y-16976367D01*
X8149357Y-16995414D01*
X8149357Y-17100176D01*
X8539833Y-16890652D02*
X8368405Y-17147795D01*
X8796976Y-16900176D02*
X8816024Y-16900176D01*
X8835071Y-16909700D01*
X8844595Y-16919224D01*
X8854119Y-16938271D01*
X8863643Y-16976367D01*
X8863643Y-17023986D01*
X8854119Y-17062081D01*
X8844595Y-17081129D01*
X8835071Y-17090652D01*
X8816024Y-17100176D01*
X8796976Y-17100176D01*
X8777929Y-17090652D01*
X8768405Y-17081129D01*
X8758881Y-17062081D01*
X8749357Y-17023986D01*
X8749357Y-16976367D01*
X8758881Y-16938271D01*
X8768405Y-16919224D01*
X8777929Y-16909700D01*
X8796976Y-16900176D01*
X8949357Y-17081129D02*
X8958881Y-17090652D01*
X8949357Y-17100176D01*
X8939833Y-17090652D01*
X8949357Y-17081129D01*
X8949357Y-17100176D01*
X9082690Y-16900176D02*
X9101738Y-16900176D01*
X9120786Y-16909700D01*
X9130310Y-16919224D01*
X9139833Y-16938271D01*
X9149357Y-16976367D01*
X9149357Y-17023986D01*
X9139833Y-17062081D01*
X9130310Y-17081129D01*
X9120786Y-17090652D01*
X9101738Y-17100176D01*
X9082690Y-17100176D01*
X9063643Y-17090652D01*
X9054119Y-17081129D01*
X9044595Y-17062081D01*
X9035071Y-17023986D01*
X9035071Y-16976367D01*
X9044595Y-16938271D01*
X9054119Y-16919224D01*
X9063643Y-16909700D01*
X9082690Y-16900176D01*
X9320786Y-16966843D02*
X9320786Y-17100176D01*
X9273167Y-16890652D02*
X9225548Y-17033510D01*
X9349357Y-17033510D01*
X9406500Y-16900176D02*
X9530310Y-16900176D01*
X9463643Y-16976367D01*
X9492214Y-16976367D01*
X9511262Y-16985890D01*
X9520786Y-16995414D01*
X9530310Y-17014462D01*
X9530310Y-17062081D01*
X9520786Y-17081129D01*
X9511262Y-17090652D01*
X9492214Y-17100176D01*
X9435071Y-17100176D01*
X9416024Y-17090652D01*
X9406500Y-17081129D01*
X9654119Y-16900176D02*
X9673167Y-16900176D01*
X9692214Y-16909700D01*
X9701738Y-16919224D01*
X9711262Y-16938271D01*
X9720786Y-16976367D01*
X9720786Y-17023986D01*
X9711262Y-17062081D01*
X9701738Y-17081129D01*
X9692214Y-17090652D01*
X9673167Y-17100176D01*
X9654119Y-17100176D01*
X9635071Y-17090652D01*
X9625548Y-17081129D01*
X9616024Y-17062081D01*
X9606500Y-17023986D01*
X9606500Y-16976367D01*
X9616024Y-16938271D01*
X9625548Y-16919224D01*
X9635071Y-16909700D01*
X9654119Y-16900176D01*
X9796976Y-16900176D02*
X9796976Y-16938271D01*
X9873167Y-16900176D02*
X9873167Y-16938271D01*
X10168405Y-17176367D02*
X10158881Y-17166843D01*
X10139833Y-17138271D01*
X10130310Y-17119224D01*
X10120786Y-17090652D01*
X10111262Y-17043033D01*
X10111262Y-17004938D01*
X10120786Y-16957319D01*
X10130310Y-16928748D01*
X10139833Y-16909700D01*
X10158881Y-16881129D01*
X10168405Y-16871605D01*
X10235071Y-16919224D02*
X10244595Y-16909700D01*
X10263643Y-16900176D01*
X10311262Y-16900176D01*
X10330310Y-16909700D01*
X10339833Y-16919224D01*
X10349357Y-16938271D01*
X10349357Y-16957319D01*
X10339833Y-16985890D01*
X10225548Y-17100176D01*
X10349357Y-17100176D01*
X10520786Y-16966843D02*
X10520786Y-17100176D01*
X10473167Y-16890652D02*
X10425548Y-17033510D01*
X10549357Y-17033510D01*
X10777929Y-17100176D02*
X10777929Y-16900176D01*
X10863643Y-17100176D02*
X10863643Y-16995414D01*
X10854119Y-16976367D01*
X10835071Y-16966843D01*
X10806500Y-16966843D01*
X10787452Y-16976367D01*
X10777929Y-16985890D01*
X10987452Y-17100176D02*
X10968405Y-17090652D01*
X10958881Y-17081129D01*
X10949357Y-17062081D01*
X10949357Y-17004938D01*
X10958881Y-16985890D01*
X10968405Y-16976367D01*
X10987452Y-16966843D01*
X11016024Y-16966843D01*
X11035071Y-16976367D01*
X11044595Y-16985890D01*
X11054119Y-17004938D01*
X11054119Y-17062081D01*
X11044595Y-17081129D01*
X11035071Y-17090652D01*
X11016024Y-17100176D01*
X10987452Y-17100176D01*
X11168405Y-17100176D02*
X11149357Y-17090652D01*
X11139833Y-17071605D01*
X11139833Y-16900176D01*
X11320786Y-17090652D02*
X11301738Y-17100176D01*
X11263643Y-17100176D01*
X11244595Y-17090652D01*
X11235071Y-17071605D01*
X11235071Y-16995414D01*
X11244595Y-16976367D01*
X11263643Y-16966843D01*
X11301738Y-16966843D01*
X11320786Y-16976367D01*
X11330309Y-16995414D01*
X11330309Y-17014462D01*
X11235071Y-17033510D01*
X11406500Y-17090652D02*
X11425548Y-17100176D01*
X11463643Y-17100176D01*
X11482690Y-17090652D01*
X11492214Y-17071605D01*
X11492214Y-17062081D01*
X11482690Y-17043033D01*
X11463643Y-17033510D01*
X11435071Y-17033510D01*
X11416024Y-17023986D01*
X11406500Y-17004938D01*
X11406500Y-16995414D01*
X11416024Y-16976367D01*
X11435071Y-16966843D01*
X11463643Y-16966843D01*
X11482690Y-16976367D01*
X11558881Y-17176367D02*
X11568405Y-17166843D01*
X11587452Y-17138271D01*
X11596976Y-17119224D01*
X11606500Y-17090652D01*
X11616024Y-17043033D01*
X11616024Y-17004938D01*
X11606500Y-16957319D01*
X11596976Y-16928748D01*
X11587452Y-16909700D01*
X11568405Y-16881129D01*
X11558881Y-16871605D01*
D16*
X6541500Y-17328700D02*
X6596500Y-17273700D01*
X6541500Y-17218700D01*
X6486500Y-17273700D01*
X6541500Y-17328700D01*
D11*
X6958881Y-17364176D02*
X6844595Y-17364176D01*
X6901738Y-17364176D02*
X6901738Y-17164176D01*
X6882690Y-17192748D01*
X6863643Y-17211795D01*
X6844595Y-17221319D01*
X7044595Y-17345129D02*
X7054119Y-17354652D01*
X7044595Y-17364176D01*
X7035071Y-17354652D01*
X7044595Y-17345129D01*
X7044595Y-17364176D01*
X7244595Y-17364176D02*
X7130309Y-17364176D01*
X7187452Y-17364176D02*
X7187452Y-17164176D01*
X7168405Y-17192748D01*
X7149357Y-17211795D01*
X7130309Y-17221319D01*
X7368405Y-17164176D02*
X7387452Y-17164176D01*
X7406500Y-17173700D01*
X7416024Y-17183224D01*
X7425548Y-17202271D01*
X7435071Y-17240367D01*
X7435071Y-17287986D01*
X7425548Y-17326081D01*
X7416024Y-17345129D01*
X7406500Y-17354652D01*
X7387452Y-17364176D01*
X7368405Y-17364176D01*
X7349357Y-17354652D01*
X7339833Y-17345129D01*
X7330309Y-17326081D01*
X7320786Y-17287986D01*
X7320786Y-17240367D01*
X7330309Y-17202271D01*
X7339833Y-17183224D01*
X7349357Y-17173700D01*
X7368405Y-17164176D01*
X7558881Y-17164176D02*
X7577928Y-17164176D01*
X7596976Y-17173700D01*
X7606500Y-17183224D01*
X7616024Y-17202271D01*
X7625548Y-17240367D01*
X7625548Y-17287986D01*
X7616024Y-17326081D01*
X7606500Y-17345129D01*
X7596976Y-17354652D01*
X7577928Y-17364176D01*
X7558881Y-17364176D01*
X7539833Y-17354652D01*
X7530309Y-17345129D01*
X7520786Y-17326081D01*
X7511262Y-17287986D01*
X7511262Y-17240367D01*
X7520786Y-17202271D01*
X7530309Y-17183224D01*
X7539833Y-17173700D01*
X7558881Y-17164176D01*
X7711262Y-17364176D02*
X7711262Y-17230843D01*
X7711262Y-17249890D02*
X7720786Y-17240367D01*
X7739833Y-17230843D01*
X7768405Y-17230843D01*
X7787452Y-17240367D01*
X7796976Y-17259414D01*
X7796976Y-17364176D01*
X7796976Y-17259414D02*
X7806500Y-17240367D01*
X7825548Y-17230843D01*
X7854119Y-17230843D01*
X7873167Y-17240367D01*
X7882690Y-17259414D01*
X7882690Y-17364176D01*
X7977928Y-17364176D02*
X7977928Y-17230843D01*
X7977928Y-17249890D02*
X7987452Y-17240367D01*
X8006500Y-17230843D01*
X8035071Y-17230843D01*
X8054119Y-17240367D01*
X8063643Y-17259414D01*
X8063643Y-17364176D01*
X8063643Y-17259414D02*
X8073167Y-17240367D01*
X8092214Y-17230843D01*
X8120786Y-17230843D01*
X8139833Y-17240367D01*
X8149357Y-17259414D01*
X8149357Y-17364176D01*
X8539833Y-17154652D02*
X8368405Y-17411795D01*
X8796976Y-17164176D02*
X8816024Y-17164176D01*
X8835071Y-17173700D01*
X8844595Y-17183224D01*
X8854119Y-17202271D01*
X8863643Y-17240367D01*
X8863643Y-17287986D01*
X8854119Y-17326081D01*
X8844595Y-17345129D01*
X8835071Y-17354652D01*
X8816024Y-17364176D01*
X8796976Y-17364176D01*
X8777929Y-17354652D01*
X8768405Y-17345129D01*
X8758881Y-17326081D01*
X8749357Y-17287986D01*
X8749357Y-17240367D01*
X8758881Y-17202271D01*
X8768405Y-17183224D01*
X8777929Y-17173700D01*
X8796976Y-17164176D01*
X8949357Y-17345129D02*
X8958881Y-17354652D01*
X8949357Y-17364176D01*
X8939833Y-17354652D01*
X8949357Y-17345129D01*
X8949357Y-17364176D01*
X9082690Y-17164176D02*
X9101738Y-17164176D01*
X9120786Y-17173700D01*
X9130310Y-17183224D01*
X9139833Y-17202271D01*
X9149357Y-17240367D01*
X9149357Y-17287986D01*
X9139833Y-17326081D01*
X9130310Y-17345129D01*
X9120786Y-17354652D01*
X9101738Y-17364176D01*
X9082690Y-17364176D01*
X9063643Y-17354652D01*
X9054119Y-17345129D01*
X9044595Y-17326081D01*
X9035071Y-17287986D01*
X9035071Y-17240367D01*
X9044595Y-17202271D01*
X9054119Y-17183224D01*
X9063643Y-17173700D01*
X9082690Y-17164176D01*
X9320786Y-17230843D02*
X9320786Y-17364176D01*
X9273167Y-17154652D02*
X9225548Y-17297510D01*
X9349357Y-17297510D01*
X9406500Y-17164176D02*
X9530310Y-17164176D01*
X9463643Y-17240367D01*
X9492214Y-17240367D01*
X9511262Y-17249890D01*
X9520786Y-17259414D01*
X9530310Y-17278462D01*
X9530310Y-17326081D01*
X9520786Y-17345129D01*
X9511262Y-17354652D01*
X9492214Y-17364176D01*
X9435071Y-17364176D01*
X9416024Y-17354652D01*
X9406500Y-17345129D01*
X9596976Y-17164176D02*
X9720786Y-17164176D01*
X9654119Y-17240367D01*
X9682690Y-17240367D01*
X9701738Y-17249890D01*
X9711262Y-17259414D01*
X9720786Y-17278462D01*
X9720786Y-17326081D01*
X9711262Y-17345129D01*
X9701738Y-17354652D01*
X9682690Y-17364176D01*
X9625548Y-17364176D01*
X9606500Y-17354652D01*
X9596976Y-17345129D01*
X9796976Y-17164176D02*
X9796976Y-17202271D01*
X9873167Y-17164176D02*
X9873167Y-17202271D01*
X10168405Y-17440367D02*
X10158881Y-17430843D01*
X10139833Y-17402271D01*
X10130310Y-17383224D01*
X10120786Y-17354652D01*
X10111262Y-17307033D01*
X10111262Y-17268938D01*
X10120786Y-17221319D01*
X10130310Y-17192748D01*
X10139833Y-17173700D01*
X10158881Y-17145129D01*
X10168405Y-17135605D01*
X10330310Y-17230843D02*
X10330310Y-17364176D01*
X10282690Y-17154652D02*
X10235071Y-17297510D01*
X10358881Y-17297510D01*
X10587452Y-17364176D02*
X10587452Y-17164176D01*
X10673167Y-17364176D02*
X10673167Y-17259414D01*
X10663643Y-17240367D01*
X10644595Y-17230843D01*
X10616024Y-17230843D01*
X10596976Y-17240367D01*
X10587452Y-17249890D01*
X10796976Y-17364176D02*
X10777929Y-17354652D01*
X10768405Y-17345129D01*
X10758881Y-17326081D01*
X10758881Y-17268938D01*
X10768405Y-17249890D01*
X10777929Y-17240367D01*
X10796976Y-17230843D01*
X10825548Y-17230843D01*
X10844595Y-17240367D01*
X10854119Y-17249890D01*
X10863643Y-17268938D01*
X10863643Y-17326081D01*
X10854119Y-17345129D01*
X10844595Y-17354652D01*
X10825548Y-17364176D01*
X10796976Y-17364176D01*
X10977929Y-17364176D02*
X10958881Y-17354652D01*
X10949357Y-17335605D01*
X10949357Y-17164176D01*
X11130310Y-17354652D02*
X11111262Y-17364176D01*
X11073167Y-17364176D01*
X11054119Y-17354652D01*
X11044595Y-17335605D01*
X11044595Y-17259414D01*
X11054119Y-17240367D01*
X11073167Y-17230843D01*
X11111262Y-17230843D01*
X11130310Y-17240367D01*
X11139833Y-17259414D01*
X11139833Y-17278462D01*
X11044595Y-17297510D01*
X11216024Y-17354652D02*
X11235071Y-17364176D01*
X11273167Y-17364176D01*
X11292214Y-17354652D01*
X11301738Y-17335605D01*
X11301738Y-17326081D01*
X11292214Y-17307033D01*
X11273167Y-17297510D01*
X11244595Y-17297510D01*
X11225548Y-17287986D01*
X11216024Y-17268938D01*
X11216024Y-17259414D01*
X11225548Y-17240367D01*
X11244595Y-17230843D01*
X11273167Y-17230843D01*
X11292214Y-17240367D01*
X11368405Y-17440367D02*
X11377928Y-17430843D01*
X11396976Y-17402271D01*
X11406500Y-17383224D01*
X11416024Y-17354652D01*
X11425548Y-17307033D01*
X11425548Y-17268938D01*
X11416024Y-17221319D01*
X11406500Y-17192748D01*
X11396976Y-17173700D01*
X11377928Y-17145129D01*
X11368405Y-17135605D01*
M02*
