M48
; DRILL file {KiCad (6.0.0)} date Fri Jan  6 10:55:54 2023
; FORMAT={-:-/ absolute / metric / decimal}
; #@! TF.CreationDate,2023-01-06T10:55:54+07:00
; #@! TF.GenerationSoftware,Kicad,Pcbnew,(6.0.0)
; #@! TF.FileFunction,NonPlated,1,2,NPTH
FMAT,2
METRIC
; #@! TA.AperFunction,NonPlated,NPTH,ComponentDrill
T1C1.500
; #@! TA.AperFunction,NonPlated,NPTH,ComponentDrill
T2C1.702
; #@! TA.AperFunction,NonPlated,NPTH,ComponentDrill
T3C1.750
; #@! TA.AperFunction,NonPlated,NPTH,ComponentDrill
T4C3.000
; #@! TA.AperFunction,NonPlated,NPTH,ComponentDrill
T5C3.048
; #@! TA.AperFunction,NonPlated,NPTH,ComponentDrill
T6C3.988
%
G90
G05
T2
X88.9Y-70.104
X88.9Y-89.154
X88.9Y-108.204
X88.9Y-127.254
X88.9Y-146.304
X99.06Y-70.104
X99.06Y-89.154
X99.06Y-108.204
X99.06Y-127.254
X99.06Y-146.304
X107.95Y-70.104
X107.95Y-89.154
X107.95Y-108.204
X107.95Y-127.254
X107.95Y-146.304
X118.11Y-70.104
X118.11Y-89.154
X118.11Y-108.204
X118.11Y-127.254
X118.11Y-146.304
X127.0Y-70.104
X127.0Y-89.154
X127.0Y-108.204
X127.0Y-127.254
X127.0Y-146.304
X137.16Y-70.104
X137.16Y-89.154
X137.16Y-108.204
X137.16Y-127.254
X137.16Y-146.304
X146.05Y-70.104
X151.13Y-93.599
X151.13Y-103.759
X151.13Y-131.699
X151.13Y-141.859
X156.21Y-70.104
T3
X70.6Y-110.19
X80.76Y-110.19
T4
X71.87Y-107.65
X78.22Y-105.11
X90.17Y-67.564
X90.17Y-86.614
X90.17Y-105.664
X90.17Y-124.714
X90.17Y-143.764
X96.52Y-65.024
X96.52Y-84.074
X96.52Y-103.124
X96.52Y-122.174
X96.52Y-141.224
X109.22Y-67.564
X109.22Y-86.614
X109.22Y-105.664
X109.22Y-124.714
X109.22Y-143.764
X115.57Y-65.024
X115.57Y-84.074
X115.57Y-103.124
X115.57Y-122.174
X115.57Y-141.224
X128.27Y-67.564
X128.27Y-86.614
X128.27Y-105.664
X128.27Y-124.714
X128.27Y-143.764
X134.62Y-65.024
X134.62Y-84.074
X134.62Y-103.124
X134.62Y-122.174
X134.62Y-141.224
X147.32Y-67.564
X153.67Y-65.024
X153.67Y-94.869
X153.67Y-132.969
X156.21Y-101.219
X156.21Y-139.319
T5
X158.115Y-86.741
X158.115Y-110.617
X158.115Y-124.841
X158.115Y-148.717
T6
X75.68Y-110.19
X93.98Y-70.104
X93.98Y-89.154
X93.98Y-108.204
X93.98Y-127.254
X93.98Y-146.304
X113.03Y-70.104
X113.03Y-89.154
X113.03Y-108.204
X113.03Y-127.254
X113.03Y-146.304
X132.08Y-70.104
X132.08Y-89.154
X132.08Y-108.204
X132.08Y-127.254
X132.08Y-146.304
X142.875Y-86.741
X142.875Y-110.617
X142.875Y-124.841
X142.875Y-148.717
X151.13Y-70.104
X151.13Y-98.679
X151.13Y-136.779
T1
X70.08Y-109.54G85X70.08Y-110.84
G05
X81.28Y-109.54G85X81.28Y-110.84
G05
T0
M30
