G04 #@! TF.GenerationSoftware,KiCad,Pcbnew,(6.0.0)*
G04 #@! TF.CreationDate,2023-01-06T10:55:49+07:00*
G04 #@! TF.ProjectId,yampad_v2,79616d70-6164-45f7-9632-2e6b69636164,2.0*
G04 #@! TF.SameCoordinates,Original*
G04 #@! TF.FileFunction,Soldermask,Bot*
G04 #@! TF.FilePolarity,Negative*
%FSLAX46Y46*%
G04 Gerber Fmt 4.6, Leading zero omitted, Abs format (unit mm)*
G04 Created by KiCad (PCBNEW (6.0.0)) date 2023-01-06 10:55:49*
%MOMM*%
%LPD*%
G01*
G04 APERTURE LIST*
G04 Aperture macros list*
%AMRoundRect*
0 Rectangle with rounded corners*
0 $1 Rounding radius*
0 $2 $3 $4 $5 $6 $7 $8 $9 X,Y pos of 4 corners*
0 Add a 4 corners polygon primitive as box body*
4,1,4,$2,$3,$4,$5,$6,$7,$8,$9,$2,$3,0*
0 Add four circle primitives for the rounded corners*
1,1,$1+$1,$2,$3*
1,1,$1+$1,$4,$5*
1,1,$1+$1,$6,$7*
1,1,$1+$1,$8,$9*
0 Add four rect primitives between the rounded corners*
20,1,$1+$1,$2,$3,$4,$5,0*
20,1,$1+$1,$4,$5,$6,$7,0*
20,1,$1+$1,$6,$7,$8,$9,0*
20,1,$1+$1,$8,$9,$2,$3,0*%
G04 Aperture macros list end*
%ADD10RoundRect,0.051000X0.850000X-0.850000X0.850000X0.850000X-0.850000X0.850000X-0.850000X-0.850000X0*%
%ADD11O,1.802000X1.802000*%
%ADD12C,1.803800*%
%ADD13C,3.102000*%
%ADD14C,4.089800*%
%ADD15RoundRect,0.051000X-1.500000X-1.250000X1.500000X-1.250000X1.500000X1.250000X-1.500000X1.250000X0*%
%ADD16C,3.150000*%
%ADD17RoundRect,0.051000X-1.250000X1.500000X-1.250000X-1.500000X1.250000X-1.500000X1.250000X1.500000X0*%
%ADD18O,1.602000X2.902000*%
%ADD19C,1.852000*%
%ADD20RoundRect,0.051000X-1.000000X1.000000X-1.000000X-1.000000X1.000000X-1.000000X1.000000X1.000000X0*%
%ADD21C,2.102000*%
%ADD22C,0.702000*%
%ADD23RoundRect,0.051000X1.275000X1.250000X-1.275000X1.250000X-1.275000X-1.250000X1.275000X-1.250000X0*%
%ADD24RoundRect,0.051000X-0.876300X0.876300X-0.876300X-0.876300X0.876300X-0.876300X0.876300X0.876300X0*%
%ADD25C,1.854600*%
%ADD26RoundRect,0.051000X0.750000X0.500000X-0.750000X0.500000X-0.750000X-0.500000X0.750000X-0.500000X0*%
%ADD27RoundRect,0.051000X-0.750000X-0.500000X0.750000X-0.500000X0.750000X0.500000X-0.750000X0.500000X0*%
%ADD28RoundRect,0.051000X0.450000X0.600000X-0.450000X0.600000X-0.450000X-0.600000X0.450000X-0.600000X0*%
%ADD29RoundRect,0.301000X-0.450000X0.325000X-0.450000X-0.325000X0.450000X-0.325000X0.450000X0.325000X0*%
%ADD30RoundRect,0.301000X-0.325000X-0.450000X0.325000X-0.450000X0.325000X0.450000X-0.325000X0.450000X0*%
%ADD31RoundRect,0.301000X0.450000X-0.325000X0.450000X0.325000X-0.450000X0.325000X-0.450000X-0.325000X0*%
%ADD32RoundRect,0.051000X0.600000X-0.450000X0.600000X0.450000X-0.600000X0.450000X-0.600000X-0.450000X0*%
%ADD33RoundRect,0.051000X-0.500000X0.700000X-0.500000X-0.700000X0.500000X-0.700000X0.500000X0.700000X0*%
G04 APERTURE END LIST*
D10*
X71374000Y-97663000D03*
D11*
X73914000Y-97663000D03*
X76454000Y-97663000D03*
X78994000Y-97663000D03*
D12*
X99060000Y-146304000D03*
D13*
X90170000Y-143764000D03*
D12*
X88900000Y-146304000D03*
D13*
X96520000Y-141224000D03*
D14*
X93980000Y-146304000D03*
D15*
X100580000Y-141224000D03*
X86180000Y-143764000D03*
D14*
X113030000Y-146304000D03*
D12*
X107950000Y-146304000D03*
X118110000Y-146304000D03*
D13*
X109220000Y-143764000D03*
X115570000Y-141224000D03*
D15*
X119630000Y-141224000D03*
X105230000Y-143764000D03*
D16*
X158115000Y-124841000D03*
D12*
X151130000Y-131699000D03*
D13*
X153670000Y-132969000D03*
D14*
X151130000Y-136779000D03*
X142875000Y-148717000D03*
D12*
X151130000Y-141859000D03*
D13*
X156210000Y-139319000D03*
D14*
X142875000Y-124841000D03*
D16*
X158115000Y-148717000D03*
D17*
X156210000Y-143379000D03*
X153670000Y-128979000D03*
D12*
X118110000Y-70104000D03*
X107950000Y-70104000D03*
D13*
X115570000Y-65024000D03*
X109220000Y-67564000D03*
D14*
X113030000Y-70104000D03*
D15*
X119630000Y-65024000D03*
X105230000Y-67564000D03*
D13*
X153670000Y-65024000D03*
X147320000Y-67564000D03*
D14*
X151130000Y-70104000D03*
D12*
X156210000Y-70104000D03*
X146050000Y-70104000D03*
D15*
X157730000Y-65024000D03*
X143330000Y-67564000D03*
D14*
X93980000Y-89154000D03*
D13*
X96520000Y-84074000D03*
D12*
X88900000Y-89154000D03*
X99060000Y-89154000D03*
D13*
X90170000Y-86614000D03*
D15*
X100580000Y-84074000D03*
X86180000Y-86614000D03*
D13*
X109220000Y-86614000D03*
D14*
X113030000Y-89154000D03*
D12*
X118110000Y-89154000D03*
D13*
X115570000Y-84074000D03*
D12*
X107950000Y-89154000D03*
D15*
X119630000Y-84074000D03*
X105230000Y-86614000D03*
D14*
X132080000Y-89154000D03*
D13*
X134620000Y-84074000D03*
D12*
X137160000Y-89154000D03*
X127000000Y-89154000D03*
D13*
X128270000Y-86614000D03*
D15*
X138680000Y-84074000D03*
X124280000Y-86614000D03*
D13*
X90170000Y-105664000D03*
D12*
X99060000Y-108204000D03*
D14*
X93980000Y-108204000D03*
D12*
X88900000Y-108204000D03*
D13*
X96520000Y-103124000D03*
D15*
X100580000Y-103124000D03*
X86180000Y-105664000D03*
D14*
X113030000Y-108204000D03*
D13*
X115570000Y-103124000D03*
X109220000Y-105664000D03*
D12*
X118110000Y-108204000D03*
X107950000Y-108204000D03*
D15*
X119630000Y-103124000D03*
X105230000Y-105664000D03*
D13*
X134620000Y-103124000D03*
D14*
X132080000Y-108204000D03*
D12*
X127000000Y-108204000D03*
D13*
X128270000Y-105664000D03*
D12*
X137160000Y-108204000D03*
D15*
X138680000Y-103124000D03*
X124280000Y-105664000D03*
D13*
X90170000Y-124714000D03*
D12*
X88900000Y-127254000D03*
D13*
X96520000Y-122174000D03*
D12*
X99060000Y-127254000D03*
D14*
X93980000Y-127254000D03*
D15*
X100580000Y-122174000D03*
X86180000Y-124714000D03*
D13*
X115570000Y-122174000D03*
D12*
X107950000Y-127254000D03*
X118110000Y-127254000D03*
D13*
X109220000Y-124714000D03*
D14*
X113030000Y-127254000D03*
D15*
X119630000Y-122174000D03*
X105230000Y-124714000D03*
D12*
X127000000Y-127254000D03*
X137160000Y-127254000D03*
D13*
X128270000Y-124714000D03*
X134620000Y-122174000D03*
D14*
X132080000Y-127254000D03*
D15*
X138680000Y-122174000D03*
X124280000Y-124714000D03*
D13*
X134620000Y-141224000D03*
D12*
X127000000Y-146304000D03*
D13*
X128270000Y-143764000D03*
D12*
X137160000Y-146304000D03*
D14*
X132080000Y-146304000D03*
D15*
X138680000Y-141224000D03*
X124280000Y-143764000D03*
D12*
X99060000Y-70104000D03*
X88900000Y-70104000D03*
D14*
X93980000Y-70104000D03*
D13*
X96520000Y-65024000D03*
X90170000Y-67564000D03*
D15*
X100580000Y-65024000D03*
X86180000Y-67564000D03*
D14*
X132080000Y-70104000D03*
D13*
X128270000Y-67564000D03*
X134620000Y-65024000D03*
D12*
X127000000Y-70104000D03*
X137160000Y-70104000D03*
D15*
X138680000Y-65024000D03*
X124280000Y-67564000D03*
D14*
X142875000Y-86741000D03*
D16*
X158115000Y-86741000D03*
D14*
X151130000Y-98679000D03*
D12*
X151130000Y-93599000D03*
D16*
X158115000Y-110617000D03*
D13*
X156210000Y-101219000D03*
X153670000Y-94869000D03*
D12*
X151130000Y-103759000D03*
D14*
X142875000Y-110617000D03*
D17*
X156210000Y-105279000D03*
X153670000Y-90879000D03*
D14*
X75680000Y-110190000D03*
D13*
X78220000Y-105110000D03*
D18*
X70080000Y-110190000D03*
D19*
X70600000Y-110190000D03*
X80760000Y-110190000D03*
D13*
X71870000Y-107650000D03*
D18*
X81280000Y-110190000D03*
D20*
X78180000Y-102690000D03*
D21*
X73180000Y-102690000D03*
X75680000Y-102690000D03*
D22*
X68595000Y-107650000D03*
D23*
X68595000Y-107650000D03*
D21*
X73180000Y-117190000D03*
D22*
X81522000Y-105110000D03*
D21*
X78180000Y-117190000D03*
D23*
X81522000Y-105110000D03*
D24*
X82804000Y-64643000D03*
D25*
X82804000Y-67183000D03*
X82804000Y-69723000D03*
X82804000Y-72263000D03*
X82804000Y-74803000D03*
X82804000Y-77343000D03*
X82804000Y-79883000D03*
X82804000Y-82423000D03*
X82804000Y-84963000D03*
X82804000Y-87503000D03*
X82804000Y-90043000D03*
X82804000Y-92583000D03*
X67564000Y-92583000D03*
X67564000Y-90043000D03*
X67564000Y-87503000D03*
X67564000Y-84963000D03*
X67564000Y-82423000D03*
X67564000Y-79883000D03*
X67564000Y-77343000D03*
X67564000Y-74803000D03*
X67564000Y-72263000D03*
X67564000Y-69723000D03*
X67564000Y-67183000D03*
X67564000Y-64643000D03*
D26*
X105955000Y-116129000D03*
X105955000Y-119329000D03*
X101055000Y-119329000D03*
X101055000Y-116129000D03*
D27*
X139155000Y-119329000D03*
X139155000Y-116129000D03*
X144055000Y-116129000D03*
X144055000Y-119329000D03*
D28*
X114553000Y-74676000D03*
X111253000Y-74676000D03*
D21*
X77597000Y-67033000D03*
X77597000Y-73533000D03*
X73097000Y-67033000D03*
X73097000Y-73533000D03*
D28*
X114553000Y-112649000D03*
X111253000Y-112649000D03*
X95503000Y-112649000D03*
X92203000Y-112649000D03*
X133603000Y-112649000D03*
X130303000Y-112649000D03*
D29*
X133750000Y-135225000D03*
X133750000Y-137275000D03*
D28*
X114553000Y-131699000D03*
X111253000Y-131699000D03*
D30*
X121825000Y-131700000D03*
X123875000Y-131700000D03*
D28*
X95503000Y-131699000D03*
X92203000Y-131699000D03*
X133603000Y-150749000D03*
X130303000Y-150749000D03*
D31*
X111250000Y-137675000D03*
X111250000Y-135625000D03*
D28*
X114553000Y-150749000D03*
X111253000Y-150749000D03*
D26*
X125005000Y-135179000D03*
X125005000Y-138379000D03*
X120105000Y-138379000D03*
X120105000Y-135179000D03*
D28*
X133603000Y-131699000D03*
X130303000Y-131699000D03*
D26*
X105955000Y-78029000D03*
X105955000Y-81229000D03*
X101055000Y-81229000D03*
X101055000Y-78029000D03*
X105955000Y-135179000D03*
X105955000Y-138379000D03*
X101055000Y-138379000D03*
X101055000Y-135179000D03*
D28*
X95503000Y-74676000D03*
X92203000Y-74676000D03*
D27*
X139155000Y-81229000D03*
X139155000Y-78029000D03*
X144055000Y-78029000D03*
X144055000Y-81229000D03*
D28*
X95503000Y-150749000D03*
X92203000Y-150749000D03*
D31*
X112300000Y-80675000D03*
X112300000Y-78625000D03*
X116200000Y-99725000D03*
X116200000Y-97675000D03*
X113950000Y-116525000D03*
X113950000Y-118575000D03*
D29*
X132100000Y-116725000D03*
X132100000Y-118775000D03*
X132800000Y-97675000D03*
X132800000Y-99725000D03*
X134600000Y-78525000D03*
X134600000Y-80575000D03*
D28*
X133603000Y-74676000D03*
X130303000Y-74676000D03*
X152653000Y-74676000D03*
X149353000Y-74676000D03*
X114553000Y-93599000D03*
X111253000Y-93599000D03*
X133603000Y-93599000D03*
X130303000Y-93599000D03*
D32*
X140650000Y-93600000D03*
X140650000Y-90300000D03*
X141732000Y-144906000D03*
X141732000Y-141606000D03*
D26*
X105955000Y-97079000D03*
X105955000Y-100279000D03*
X101055000Y-100279000D03*
X101055000Y-97079000D03*
D27*
X139155000Y-138379000D03*
X139155000Y-135179000D03*
X144055000Y-135179000D03*
X144055000Y-138379000D03*
X139155000Y-100279000D03*
X139155000Y-97079000D03*
X144055000Y-97079000D03*
X144055000Y-100279000D03*
D28*
X95503000Y-93599000D03*
X92203000Y-93599000D03*
D33*
X83630000Y-110775000D03*
X83630000Y-114325000D03*
G36*
X69545497Y-108950000D02*
G01*
X69545497Y-108952000D01*
X69545164Y-108952429D01*
X69460828Y-109035017D01*
X69395028Y-109137119D01*
X69393249Y-109138034D01*
X69391568Y-109136950D01*
X69391403Y-109135565D01*
X69407272Y-109070149D01*
X69384620Y-109004700D01*
X69330100Y-108961825D01*
X69284123Y-108952964D01*
X69282612Y-108951654D01*
X69282991Y-108949690D01*
X69284502Y-108949000D01*
X69543765Y-108949000D01*
X69545497Y-108950000D01*
G37*
G36*
X79212841Y-103729418D02*
G01*
X79212508Y-103730660D01*
X79202576Y-103745523D01*
X79202448Y-103745695D01*
X79178696Y-103774115D01*
X79170063Y-103842830D01*
X79200063Y-103905539D01*
X79207148Y-103912788D01*
X79256512Y-103959225D01*
X79257089Y-103961140D01*
X79255718Y-103962597D01*
X79253843Y-103962203D01*
X79130473Y-103856836D01*
X78944228Y-103742705D01*
X78943274Y-103740948D01*
X78944319Y-103739242D01*
X78945273Y-103739000D01*
X79179801Y-103739000D01*
X79198738Y-103735233D01*
X79209734Y-103727886D01*
X79211730Y-103727755D01*
X79212841Y-103729418D01*
G37*
G36*
X77180199Y-103739000D02*
G01*
X77494727Y-103739000D01*
X77496459Y-103740000D01*
X77496459Y-103742000D01*
X77495772Y-103742705D01*
X77309527Y-103856836D01*
X77198259Y-103951867D01*
X77196292Y-103952231D01*
X77194993Y-103950710D01*
X77195628Y-103948854D01*
X77199331Y-103945549D01*
X77236072Y-103886490D01*
X77235056Y-103817238D01*
X77196742Y-103759501D01*
X77180430Y-103751666D01*
X77179302Y-103750014D01*
X77179482Y-103749329D01*
X77165528Y-103740005D01*
X77164643Y-103738211D01*
X77165754Y-103736548D01*
X77167029Y-103736380D01*
X77180199Y-103739000D01*
G37*
M02*
